# Blender v2.75 (sub 0) OBJ File: ''
# www.blender.org
mtllib Lance.mtl
o Cylinder
v -0.008073 1.125873 0.016361
v -0.001499 1.597239 -0.000074
v -0.002471 1.597239 -0.000944
v -0.018072 1.125873 0.007420
v -0.002657 1.597239 -0.002235
v -0.019984 1.125873 -0.005855
v -0.001970 1.597239 -0.003344
v -0.012916 1.125873 -0.017255
v -0.000731 1.597239 -0.003751
v -0.000174 1.125873 -0.021444
v 0.000481 1.597239 -0.003267
v 0.012279 1.125873 -0.016462
v 0.001097 1.597239 -0.002117
v 0.018617 1.125873 -0.004641
v 0.000830 1.597239 -0.000840
v 0.015874 1.125873 0.008488
v -0.000195 1.597239 -0.000033
v 0.005333 1.125873 0.016783
v 0.044475 0.065375 -0.008366
v 0.038077 0.065375 0.022256
v 0.009578 0.063182 0.004584
v 0.011285 0.063182 -0.003585
v 0.043093 0.369103 0.025547
v 0.025513 0.823863 0.014465
v 0.008875 0.823863 0.027557
v 0.015101 0.361451 0.047913
v -0.012285 0.823863 0.026891
v -0.020328 0.347069 0.046996
v 0.050552 0.366446 -0.009636
v 0.029843 0.823863 -0.006258
v 0.033987 0.354722 -0.041173
v 0.019839 0.823863 -0.024916
v 0.001149 0.339417 -0.054309
v 0.000183 0.823863 -0.032779
v -0.032596 0.327693 -0.042896
v -0.019929 0.823863 -0.026168
v -0.051460 0.325035 -0.012275
v -0.031086 0.823863 -0.008175
v -0.046614 0.332688 0.023226
v -0.028067 0.823863 0.012779
v -0.023208 0.160943 0.059381
v -0.023364 0.165018 0.063075
v -0.055979 0.145641 0.032728
v -0.053022 0.143768 0.031033
v -0.061400 0.135330 -0.013248
v -0.057559 0.134630 -0.012364
v -0.037093 0.138911 -0.053341
v -0.034698 0.137803 -0.050505
v 0.005570 0.154708 -0.068791
v 0.004865 0.151804 -0.065542
v 0.046627 0.175329 -0.052368
v 0.042619 0.170082 -0.050441
v 0.066865 0.191126 -0.011757
v 0.060897 0.184083 -0.012266
v 0.056816 0.194707 0.034040
v 0.051147 0.187257 0.031119
v 0.017931 0.178118 0.059415
v 0.021182 0.184396 0.063593
v 0.061137 0.141444 0.037313
v 0.021766 0.132499 0.070643
v -0.027104 0.115688 0.070478
v 0.072586 0.138337 -0.013917
v 0.050757 0.124633 -0.059077
v 0.005864 0.106743 -0.077035
v -0.041089 0.093039 -0.059389
v -0.068130 0.089932 -0.014395
v -0.062607 0.098877 0.036893
v -0.018523 0.340958 0.042757
v -0.042556 0.328145 0.021050
v -0.047002 0.321328 -0.011353
v -0.029782 0.323695 -0.039289
v 0.001048 0.334140 -0.049687
v 0.031062 0.347775 -0.037682
v 0.046215 0.358220 -0.008890
v 0.039418 0.360588 0.023216
v 0.013851 0.353770 0.043613
v 0.045848 0.243572 0.027436
v 0.016476 0.236494 0.051933
v 0.043238 0.275818 0.025788
v 0.015761 0.272022 0.048983
v -0.020173 0.223192 0.051587
v -0.018380 0.264888 0.048827
v 0.054201 0.241114 -0.010440
v 0.051195 0.274500 -0.009904
v 0.037626 0.230270 -0.043973
v 0.035908 0.268684 -0.041393
v 0.003879 0.216114 -0.057473
v 0.004531 0.261093 -0.053945
v -0.031251 0.205270 -0.044622
v -0.028256 0.255278 -0.041686
v -0.051324 0.202812 -0.011434
v -0.047110 0.253959 -0.010352
v -0.046949 0.209890 0.026562
v -0.043210 0.257755 0.025394
v -0.024941 0.069790 0.058530
v -0.023544 0.116291 0.056553
v -0.052526 0.102650 0.029168
v -0.058099 0.069790 0.028881
v -0.057056 0.095392 -0.012631
v -0.064442 0.069790 -0.015145
v -0.035014 0.097913 -0.049284
v -0.041002 0.069790 -0.052947
v 0.003286 0.109033 -0.063643
v 0.001254 0.069790 -0.066839
v 0.039923 0.123550 -0.048988
v 0.042553 0.069790 -0.050319
v 0.057754 0.134670 -0.012176
v 0.063571 0.069790 -0.011117
v 0.048437 0.137191 0.029568
v 0.054473 0.069790 0.032423
v 0.019517 0.069790 0.059929
v 0.016329 0.129933 0.056711
v 0.029693 0.065375 -0.035937
v 0.007341 0.063182 -0.010939
v 0.000647 0.065375 -0.047555
v -0.000407 0.063182 -0.014039
v -0.029071 0.065375 -0.037785
v -0.008335 0.063182 -0.011433
v -0.017776 0.065375 0.040617
v -0.041096 0.065375 0.019765
v -0.011543 0.063182 0.003920
v -0.005322 0.063182 0.009482
v -0.045557 0.065375 -0.011199
v -0.012733 0.063182 -0.004340
v 0.013492 0.065375 0.041600
v 0.003019 0.063182 0.009745
v -0.005767 -0.102465 0.000823
v -0.002888 -0.102465 0.003398
v 0.000973 -0.102458 0.003519
v 0.004008 -0.100955 0.001131
v 0.002973 -0.102458 -0.006054
v -0.000613 -0.103006 -0.007489
v -0.006318 -0.101503 -0.003000
v 0.004798 -0.100955 -0.002650
v -0.004282 -0.101503 -0.006282
vt 0.372155 0.649001
vt 0.376546 0.936434
vt 0.356548 0.936482
vt 0.339454 0.649311
vt 0.336519 0.936585
vt 0.306821 0.649771
vt 0.601136 0.650992
vt 0.516593 0.937654
vt 0.496612 0.937314
vt 0.568582 0.650263
vt 0.476614 0.937029
vt 0.535934 0.649683
vt 0.456605 0.936799
vt 0.503219 0.649251
vt 0.436590 0.936625
vt 0.470461 0.648967
vt 0.416572 0.936506
vt 0.437680 0.648830
vt 0.769356 0.891128
vt 0.774031 0.890147
vt 0.780134 0.890147
vt 0.784809 0.891128
vt 0.785869 0.892631
vt 0.782817 0.893952
vt 0.777083 0.894474
vt 0.771348 0.893952
vt 0.768296 0.892631
vt 0.404903 0.648841
vt 0.396556 0.936442
vt 0.865494 0.935021
vt 0.877192 0.951525
vt 0.806325 0.948395
vt 0.803230 0.943998
vt 0.442543 0.206209
vt 0.440394 0.464377
vt 0.389450 0.464513
vt 0.360954 0.202367
vt 0.338363 0.464979
vt 0.279852 0.195818
vt 0.523971 0.205056
vt 0.491335 0.464577
vt 0.604888 0.199885
vt 0.542321 0.465106
vt 0.687405 0.193482
vt 0.593531 0.465970
vt 0.769710 0.189352
vt 0.645106 0.467181
vt 0.850115 0.188457
vt 0.697078 0.468746
vt 0.198437 0.189746
vt 0.286971 0.465778
vt 0.235180 0.466916
vt 0.117525 0.185736
vt 0.251217 0.088485
vt 0.263495 0.098066
vt 0.153735 0.088579
vt 0.154419 0.081534
vt 0.048725 0.084355
vt 0.060431 0.077921
vt 0.923976 0.078319
vt 0.933196 0.086538
vt 0.829852 0.086383
vt 0.827949 0.079332
vt 0.719545 0.092347
vt 0.725491 0.084009
vt 0.613747 0.103875
vt 0.629628 0.092259
vt 0.524957 0.112660
vt 0.534576 0.097501
vt 0.443793 0.115239
vt 0.440682 0.098116
vt 0.345380 0.095412
vt 0.360353 0.109023
vt 0.438892 0.074277
vt 0.340555 0.072574
vt 0.242738 0.068551
vt 0.537192 0.073845
vt 0.635750 0.070460
vt 0.734869 0.065797
vt 0.836577 0.063330
vt 0.930249 0.065988
vt 0.144242 0.064865
vt 0.051769 0.065624
vt 0.279522 0.191390
vt 0.198496 0.186161
vt 0.120926 0.182754
vt 0.847178 0.185476
vt 0.770138 0.185991
vt 0.688161 0.189373
vt 0.605478 0.195092
vt 0.524210 0.199696
vt 0.442695 0.200344
vt 0.360850 0.197238
vt 0.442716 0.130983
vt 0.356281 0.128212
vt 0.442255 0.148167
vt 0.355716 0.147434
vt 0.263354 0.122420
vt 0.267645 0.145565
vt 0.527201 0.130251
vt 0.528127 0.148284
vt 0.617453 0.125637
vt 0.616129 0.146872
vt 0.713544 0.119593
vt 0.705051 0.145110
vt 0.810388 0.116406
vt 0.791553 0.144967
vt 0.904894 0.119396
vt 0.875877 0.148209
vt 0.166759 0.117313
vt 0.071138 0.116941
vt 0.180801 0.144289
vt 0.095921 0.145653
vt 0.231964 0.037710
vt 0.235336 0.047931
vt 0.131488 0.047152
vt 0.123821 0.039406
vt 0.032254 0.051967
vt 0.018401 0.045917
vt 0.961597 0.045961
vt 0.948632 0.052241
vt 0.848422 0.046055
vt 0.855274 0.038824
vt 0.742366 0.046283
vt 0.746190 0.037400
vt 0.639914 0.048514
vt 0.640861 0.036875
vt 0.538767 0.050147
vt 0.538286 0.036262
vt 0.437665 0.050388
vt 0.437415 0.036262
vt 0.336207 0.036762
vt 0.336763 0.049675
vt 0.814194 0.924233
vt 0.789567 0.941124
vt 0.747134 0.924221
vt 0.771709 0.941119
vt 0.695735 0.934990
vt 0.758013 0.943985
vt 0.780570 0.971765
vt 0.717564 0.966024
vt 0.763808 0.952252
vt 0.780587 0.953784
vt 0.684058 0.951500
vt 0.754893 0.948382
vt 0.843601 0.966039
vt 0.797379 0.952261
vt 0.788375 0.646190
vt 0.767008 0.645755
vt 0.807359 0.539767
vt 0.817247 0.539968
vt 0.831213 0.646627
vt 0.809782 0.646481
vt 0.827153 0.540107
vt 0.836968 0.541139
vt 0.895488 0.646190
vt 0.874082 0.646481
vt 0.856705 0.540107
vt 0.866536 0.539621
vt 0.745695 0.645175
vt 0.797228 0.540112
vt 0.852651 0.646627
vt 0.846890 0.541139
vt 0.938169 0.645175
vt 0.916856 0.645755
vt 0.876739 0.540381
vt 0.886603 0.540113
vt 0.761403 0.882806
vt 0.753961 0.878539
vt 0.759672 0.874253
vt 0.776892 0.872024
vt 0.777052 0.885065
vt 0.794847 0.872842
vt 0.808425 0.876302
vt 0.808425 0.880820
vt 0.794847 0.884280
vt 0.948733 0.954679
vt 0.890359 0.979946
vt 0.780656 0.989934
vt 0.670914 0.979959
vt 0.612488 0.954679
vt 0.632735 0.925923
vt 0.722194 0.907149
vt 0.839004 0.907149
vt 0.928467 0.925934
vn -0.371200 0.037500 0.927800
vn -0.281800 0.651500 0.704300
vn -0.668500 0.651700 0.358400
vn -0.880700 0.037500 0.472200
vn -0.742500 0.651700 -0.155100
vn -0.978200 0.037500 -0.204400
vn -0.469100 0.651500 -0.596200
vn -0.618000 0.037500 -0.785300
vn 0.023800 0.651700 -0.758100
vn 0.031400 0.037500 -0.998800
vn 0.505700 0.651500 -0.565500
vn 0.666100 0.037500 -0.744900
vn 0.750800 0.651700 -0.108100
vn 0.989100 0.037500 -0.142500
vn 0.644600 0.651700 0.399700
vn 0.849300 0.037500 0.526600
vn 0.236900 0.651600 0.720600
vn 0.312100 0.037500 0.949300
vn 0.160200 -0.986800 -0.023100
vn 0.137600 -0.986800 0.085300
vn 0.533700 -0.778800 0.329400
vn 0.621000 -0.778900 -0.088100
vn 0.841800 -0.181700 0.508200
vn 0.849000 0.041600 0.526700
vn 0.310100 0.041700 0.949800
vn 0.359500 -0.207900 0.909700
vn -0.376100 0.041400 0.925600
vn -0.271000 -0.267000 0.924800
vn 0.976000 -0.190500 -0.105300
vn 0.988800 0.041700 -0.143300
vn 0.703700 -0.233600 -0.671000
vn 0.663200 0.041600 -0.747300
vn 0.126800 -0.306300 -0.943500
vn 0.025000 0.041000 -0.998800
vn -0.520300 -0.383800 -0.762900
vn -0.621400 0.040000 -0.782500
vn -0.899300 -0.405300 -0.164500
vn -0.977800 0.039800 -0.206000
vn -0.780900 -0.347600 0.518900
vn -0.883500 0.040500 0.466700
vn -0.222000 -0.299800 0.927800
vn -0.249700 -0.263500 0.931800
vn -0.755600 -0.398200 0.520200
vn -0.725500 -0.415400 0.548700
vn -0.833200 -0.533300 -0.145900
vn -0.829500 -0.543500 -0.128200
vn -0.482300 -0.481200 -0.732000
vn -0.446600 -0.488900 -0.749400
vn 0.143300 -0.318900 -0.936900
vn 0.170800 -0.348800 -0.921500
vn 0.722600 -0.226200 -0.653200
vn 0.737400 -0.278800 -0.615200
vn 0.979900 -0.179400 -0.087800
vn 0.957300 -0.286000 -0.043000
vn 0.847100 -0.169100 0.503800
vn 0.830800 -0.290600 0.474700
vn 0.420500 -0.279200 0.863200
vn 0.382900 -0.198800 0.902100
vn 0.789200 -0.407100 0.459800
vn 0.376600 -0.444300 0.812900
vn -0.191100 -0.540500 0.819300
vn 0.906100 -0.418800 -0.059100
vn 0.668100 -0.485500 -0.563800
vn 0.143700 -0.602000 -0.785400
vn -0.386400 -0.703600 -0.596400
vn -0.676200 -0.727200 -0.118000
vn -0.610300 -0.659600 0.438600
vn -0.220600 -0.302400 0.927300
vn -0.761300 -0.375400 0.528700
vn -0.888900 -0.428800 -0.161000
vn -0.508000 -0.409100 -0.758000
vn 0.159600 -0.337000 -0.927900
vn 0.733400 -0.275900 -0.621300
vn 0.966500 -0.247700 -0.066900
vn 0.837300 -0.242900 0.489800
vn 0.403400 -0.258200 0.877800
vn 0.837500 0.167100 0.520300
vn 0.291500 0.157900 0.943500
vn 0.849800 0.074200 0.521900
vn 0.319000 0.077300 0.944600
vn -0.419300 0.143100 0.896500
vn -0.383600 0.073000 0.920600
vn 0.975600 0.163700 -0.146300
vn 0.988300 0.075700 -0.132500
vn 0.631200 0.150700 -0.760900
vn 0.663700 0.076800 -0.744000
vn -0.036900 0.135500 -0.990100
vn 0.005800 0.066200 -0.997800
vn -0.650000 0.123700 -0.749800
vn -0.635800 0.050700 -0.770200
vn -0.968000 0.121100 -0.219800
vn -0.976000 0.046400 -0.213000
vn -0.903000 0.128700 0.410000
vn -0.893400 0.058100 0.445500
vn -0.321200 -0.538200 0.779200
vn 0.101300 -0.743300 0.661200
vn -0.307500 -0.802800 0.510900
vn -0.778200 -0.500700 0.379100
vn -0.527700 -0.849100 -0.024600
vn -0.866000 -0.461400 -0.192800
vn -0.142200 -0.829800 -0.539600
vn -0.566600 -0.476100 -0.672500
vn 0.357800 -0.773400 -0.523300
vn 0.002600 -0.524400 -0.851500
vn 0.646700 -0.714900 -0.266000
vn 0.563800 -0.540600 -0.624300
vn 0.738100 -0.672900 0.049200
vn 0.840700 -0.529900 -0.111400
vn 0.662200 -0.663500 0.348300
vn 0.724900 -0.525800 0.445000
vn 0.273600 -0.536100 0.798600
vn 0.441600 -0.690600 0.572700
vn 0.107900 -0.986800 -0.120700
vn 0.419200 -0.779100 -0.466100
vn 0.005100 -0.986800 -0.161800
vn 0.018900 -0.779300 -0.626300
vn -0.100100 -0.986800 -0.127200
vn -0.388900 -0.778800 -0.492100
vn -0.060100 -0.986800 0.150300
vn -0.142700 -0.986800 0.076500
vn -0.552800 -0.779200 0.295400
vn -0.232900 -0.779000 0.582200
vn -0.158500 -0.986800 -0.033100
vn -0.613700 -0.778900 -0.129100
vn 0.050600 -0.986800 0.153800
vn 0.197000 -0.779300 0.594900
vn -0.674000 -0.654900 0.341800
vn -0.261600 -0.645200 0.717800
vn 0.290300 -0.662900 0.690100
vn 0.796200 -0.433000 0.422600
vn 0.560300 -0.648100 -0.515800
vn -0.016800 -0.701500 -0.712500
vn -0.852300 -0.473600 -0.222100
vn 0.898800 -0.433000 -0.068500
vn -0.598200 -0.463800 -0.653500
usemtl Material.018
s 1
f 1/1/1 2/2/2 3/3/3 4/4/4
f 4/4/4 3/3/3 5/5/5 6/6/6
f 6/7/6 5/8/5 7/9/7 8/10/8
f 8/10/8 7/9/7 9/11/9 10/12/10
f 10/12/10 9/11/9 11/13/11 12/14/12
f 12/14/12 11/13/11 13/15/13 14/16/14
f 14/16/14 13/15/13 15/17/15 16/18/16
f 3/19/3 2/20/2 17/21/17 15/22/15 13/23/13 11/24/11 9/25/9 7/26/7 5/27/5
f 18/28/18 17/29/17 2/2/2 1/1/1
f 16/18/16 15/17/15 17/29/17 18/28/18
f 19/30/19 20/31/20 21/32/21 22/33/22
f 23/34/23 24/35/24 25/36/25 26/37/26
f 26/37/26 25/36/25 27/38/27 28/39/28
f 29/40/29 30/41/30 24/35/24 23/34/23
f 31/42/31 32/43/32 30/41/30 29/40/29
f 33/44/33 34/45/34 32/43/32 31/42/31
f 35/46/35 36/47/36 34/45/34 33/44/33
f 37/48/37 38/49/38 36/47/36 35/46/35
f 39/50/39 40/51/40 38/52/38 37/53/37
f 28/39/28 27/38/27 40/51/40 39/50/39
f 24/35/24 16/18/16 18/28/18 25/36/25
f 25/36/25 18/28/18 1/1/1 27/38/27
f 30/41/30 14/16/14 16/18/16 24/35/24
f 32/43/32 12/14/12 14/16/14 30/41/30
f 34/45/34 10/12/10 12/14/12 32/43/32
f 36/47/36 8/10/8 10/12/10 34/45/34
f 38/49/38 6/7/6 8/10/8 36/47/36
f 40/51/40 4/4/4 6/6/6 38/52/38
f 27/38/27 1/1/1 4/4/4 40/51/40
f 41/54/41 42/55/42 43/56/43 44/57/44
f 44/57/44 43/56/43 45/58/45 46/59/46
f 46/60/46 45/61/45 47/62/47 48/63/48
f 48/63/48 47/62/47 49/64/49 50/65/50
f 50/65/50 49/64/49 51/66/51 52/67/52
f 52/67/52 51/66/51 53/68/53 54/69/54
f 54/69/54 53/68/53 55/70/55 56/71/56
f 57/72/57 58/73/58 42/55/42 41/54/41
f 56/71/56 55/70/55 58/73/58 57/72/57
f 59/74/59 56/71/56 57/72/57 60/75/60
f 60/75/60 57/72/57 41/54/41 61/76/61
f 62/77/62 54/69/54 56/71/56 59/74/59
f 63/78/63 52/67/52 54/69/54 62/77/62
f 64/79/64 50/65/50 52/67/52 63/78/63
f 65/80/65 48/63/48 50/65/50 64/79/64
f 66/81/66 46/60/46 48/63/48 65/80/65
f 67/82/67 44/57/44 46/59/46 66/83/66
f 61/76/61 41/54/41 44/57/44 67/82/67
f 68/84/68 28/39/28 39/50/39 69/85/69
f 69/85/69 39/50/39 37/53/37 70/86/70
f 70/87/70 37/48/37 35/46/35 71/88/71
f 71/88/71 35/46/35 33/44/33 72/89/72
f 72/89/72 33/44/33 31/42/31 73/90/73
f 73/90/73 31/42/31 29/40/29 74/91/74
f 74/91/74 29/40/29 23/34/23 75/92/75
f 76/93/76 26/37/26 28/39/28 68/84/68
f 75/92/75 23/34/23 26/37/26 76/93/76
f 55/70/55 77/94/77 78/95/78 58/73/58
f 77/94/77 79/96/79 80/97/80 78/95/78
f 58/73/58 78/95/78 81/98/81 42/55/42
f 78/95/78 80/97/80 82/99/82 81/98/81
f 53/68/53 83/100/83 77/94/77 55/70/55
f 83/100/83 84/101/84 79/96/79 77/94/77
f 51/66/51 85/102/85 83/100/83 53/68/53
f 85/102/85 86/103/86 84/101/84 83/100/83
f 49/64/49 87/104/87 85/102/85 51/66/51
f 87/104/87 88/105/88 86/103/86 85/102/85
f 47/62/47 89/106/89 87/104/87 49/64/49
f 89/106/89 90/107/90 88/105/88 87/104/87
f 45/61/45 91/108/91 89/106/89 47/62/47
f 91/108/91 92/109/92 90/107/90 89/106/89
f 43/56/43 93/110/93 91/111/91 45/58/45
f 93/110/93 94/112/94 92/113/92 91/111/91
f 42/55/42 81/98/81 93/110/93 43/56/43
f 81/98/81 82/99/82 94/112/94 93/110/93
f 95/114/95 96/115/96 97/116/97 98/117/98
f 96/115/96 61/76/61 67/82/67 97/116/97
f 98/117/98 97/116/97 99/118/99 100/119/100
f 97/116/97 67/82/67 66/83/66 99/118/99
f 100/120/100 99/121/99 101/122/101 102/123/102
f 99/121/99 66/81/66 65/80/65 101/122/101
f 102/123/102 101/122/101 103/124/103 104/125/104
f 101/122/101 65/80/65 64/79/64 103/124/103
f 104/125/104 103/124/103 105/126/105 106/127/106
f 103/124/103 64/79/64 63/78/63 105/126/105
f 106/127/106 105/126/105 107/128/107 108/129/108
f 105/126/105 63/78/63 62/77/62 107/128/107
f 108/129/108 107/128/107 109/130/109 110/131/110
f 107/128/107 62/77/62 59/74/59 109/130/109
f 111/132/111 112/133/112 96/115/96 95/114/95
f 112/133/112 60/75/60 61/76/61 96/115/96
f 110/131/110 109/130/109 112/133/112 111/132/111
f 109/130/109 59/74/59 60/75/60 112/133/112
f 113/134/113 19/30/19 22/33/22 114/135/114
f 115/136/115 113/134/113 114/135/114 116/137/116
f 117/138/117 115/136/115 116/137/116 118/139/118
f 119/140/119 120/141/120 121/142/121 122/143/122
f 123/144/123 117/138/117 118/139/118 124/145/124
f 120/141/120 123/144/123 124/145/124 121/142/121
f 125/146/125 119/140/119 122/143/122 126/147/126
f 20/31/20 125/146/125 126/147/126 21/32/21
f 122/148/122 121/149/121 127/150/127 128/151/128
f 21/152/21 126/153/126 129/154/129 130/155/130
f 116/156/116 114/157/114 131/158/131 132/159/132
f 121/149/121 124/160/124 133/161/133 127/150/127
f 126/153/126 122/148/122 128/151/128 129/154/129
f 114/157/114 22/162/22 134/163/134 131/158/131
f 124/164/124 118/165/118 135/166/135 133/167/133
f 22/162/22 21/152/21 130/155/130 134/163/134
f 118/165/118 116/156/116 132/159/132 135/166/135
f 127/168/127 133/169/133 135/170/135 132/171/132
f 128/172/128 127/168/127 132/171/132 131/173/131
f 131/173/131 134/174/134 130/175/130 129/176/129
f 129/176/129 128/172/128 131/173/131
f 79/96/79 75/92/75 76/93/76 80/97/80
f 80/97/80 76/93/76 68/84/68 82/99/82
f 84/101/84 74/91/74 75/92/75 79/96/79
f 86/103/86 73/90/73 74/91/74 84/101/84
f 88/105/88 72/89/72 73/90/73 86/103/86
f 90/107/90 71/88/71 72/89/72 88/105/88
f 92/109/92 70/87/70 71/88/71 90/107/90
f 94/112/94 69/85/69 70/86/70 92/113/92
f 82/99/82 68/84/68 69/85/69 94/112/94
f 110/177/110 111/178/111 125/146/125 20/31/20
f 111/178/111 95/179/95 119/140/119 125/146/125
f 98/180/98 100/181/100 123/144/123 120/141/120
f 100/181/100 102/182/102 117/138/117 123/144/123
f 95/179/95 98/180/98 120/141/120 119/140/119
f 102/182/102 104/183/104 115/136/115 117/138/117
f 104/183/104 106/184/106 113/134/113 115/136/115
f 106/184/106 108/185/108 19/30/19 113/134/113
f 108/185/108 110/177/110 20/31/20 19/30/19
