# Blender v2.75 (sub 0) OBJ File: ''
# www.blender.org
mtllib Cage.mtl
o Cube.001_Cube.004
v -0.498281 -1.626088 -0.518099
v -0.516078 -1.624897 0.502326
v -0.522138 0.015513 0.500305
v -0.504340 0.014321 -0.520119
v 0.504340 -1.621106 0.520119
v 0.498281 0.019304 0.518099
v 0.516078 0.018112 -0.502326
v 0.522138 -1.622297 -0.500305
v -0.498281 -1.626088 -0.518099
v -0.516078 -1.624897 0.502326
v -0.522138 0.015513 0.500305
v -0.504340 0.014321 -0.520119
v 0.504340 -1.621106 0.520119
v 0.498281 0.019304 0.518099
v 0.516078 0.018112 -0.502326
v 0.522138 -1.622297 -0.500305
vt 0.755096 0.002831
vt 0.839281 0.002831
vt 0.839281 0.137933
vt 0.755096 0.137933
vt 0.924129 0.002831
vt 0.924129 0.137933
vt 0.994626 0.137933
vt 0.994626 0.002831
vt 0.656561 0.002831
vt 0.656561 0.137933
vt 0.650835 0.071434
vt 0.580469 0.071472
vt 0.580469 0.002783
vt 0.650835 0.002746
vt 0.649816 0.003970
vt 0.649526 0.066635
vt 0.580838 0.066635
vt 0.581128 0.003970
vn -0.999800 -0.003700 -0.017400
vn -0.017400 0.001200 0.999800
vn 0.017400 -0.001200 -0.999800
vn -0.003700 1.000000 -0.001200
vn 0.003700 -1.000000 0.001200
vn 0.999800 0.003700 0.017400
usemtl Material.001
s 1
f 1/1/1 2/2/1 3/3/1 4/4/1
f 2/2/2 5/5/2 6/6/2 3/3/2
f 5/5/1 6/6/1 7/7/1 8/8/1
f 8/9/3 1/1/3 4/4/3 7/10/3
f 4/11/4 3/12/4 6/13/4 7/14/4
f 8/15/5 5/16/5 2/17/5 1/18/5
f 9/1/6 12/4/6 11/3/6 10/2/6
f 10/2/3 11/3/3 14/6/3 13/5/3
f 13/5/6 16/8/6 15/7/6 14/6/6
f 16/9/2 15/10/2 12/4/2 9/1/2
f 12/11/5 15/14/5 14/13/5 11/12/5
f 16/15/4 9/18/4 10/17/4 13/16/4
