# Blender v2.77 (sub 0) OBJ File: ''
# www.blender.org
mtllib Longbow.mtl
o BezierCurve_Mesh.003
v -0.033804 -0.005534 0.008122
v -0.033742 -0.010258 0.001123
v 0.000000 -0.005652 0.002184
v 0.000000 -0.003082 0.005994
v -0.101413 -0.009365 0.000402
v -0.101413 -0.005059 0.006776
v -0.108854 -0.002057 0.003650
v -0.108854 -0.003756 0.001135
v -0.402295 -0.002454 -0.149137
v -0.408056 -0.001093 -0.147234
v -0.409972 -0.001093 -0.149984
v -0.406374 -0.002454 -0.151444
v -0.299676 0.009691 0.001069
v -0.297158 -0.000040 -0.004123
v -0.311786 -0.000045 -0.010052
v -0.316203 0.011095 0.000268
v -0.380468 0.000116 -0.117728
v -0.330752 0.000005 -0.034186
v -0.335367 -0.010119 -0.029257
v -0.384496 -0.005813 -0.115916
v -0.408056 0.001563 -0.147234
v -0.402295 0.002709 -0.149137
v -0.406374 0.002709 -0.151444
v -0.409972 0.001563 -0.149984
v -0.396499 -0.001093 -0.129384
v -0.393404 -0.002454 -0.131730
v -0.388525 -0.002898 -0.113587
v -0.388525 0.003200 -0.113587
v -0.396499 0.001563 -0.129384
v -0.384496 0.005971 -0.115916
v -0.335367 0.010120 -0.029257
v -0.414562 0.001563 -0.159333
v -0.414562 -0.001093 -0.159333
v -0.101413 0.004656 0.006776
v -0.108854 0.001776 0.003650
v -0.084507 -0.003114 0.004967
v -0.084507 0.002749 0.004967
v -0.033742 -0.000121 -0.005876
v 0.000000 -0.000136 -0.001626
v -0.101413 -0.000124 -0.005973
v -0.108854 -0.000110 -0.001380
v -0.409390 0.002709 -0.157585
v -0.404673 0.000122 -0.155532
v -0.402156 0.000122 -0.160864
v -0.403131 0.002709 -0.165157
v -0.402814 0.000122 -0.152760
v -0.409390 -0.002454 -0.157585
v -0.084498 0.005441 0.001118
v -0.101413 0.009117 0.000402
v -0.033742 0.010016 0.001123
v 0.000000 0.005380 0.002184
v -0.108854 0.003536 0.001135
v -0.299676 -0.009766 0.001069
v -0.292204 -0.000077 -0.001204
v -0.292204 -0.003915 0.001119
v -0.396567 0.000122 -0.150894
v -0.316203 -0.011180 0.000268
v -0.339983 -0.005282 -0.023924
v -0.339983 0.005292 -0.023924
v -0.393404 0.002709 -0.131730
v -0.390309 0.000122 -0.133927
v 0.000000 0.000116 -0.118131
v 0.000000 0.000116 -0.133629
v -0.025022 0.000116 -0.133470
v -0.023001 0.000116 -0.118043
v -0.323611 -0.005881 0.013407
v -0.323611 0.005741 0.013407
v -0.302731 -0.005138 0.006981
v -0.302731 0.005015 0.006981
v -0.409490 -0.001093 -0.163959
v -0.403131 -0.002454 -0.165157
v -0.409490 0.001563 -0.163959
v -0.292204 -0.002088 0.003452
v -0.292204 0.001917 0.003452
v -0.292204 0.003763 0.001119
v -0.084498 -0.000136 -0.002730
v -0.067578 0.009567 0.000762
v -0.067578 -0.000122 -0.005925
v -0.050669 -0.000138 -0.001692
v -0.050669 0.004695 0.001644
v -0.033804 0.005123 0.008122
v 0.000000 0.002717 0.005994
v -0.067609 0.004889 0.007449
v -0.050692 0.002361 0.004980
v -0.084498 -0.005713 0.001118
v -0.067578 -0.009811 0.000762
v -0.050669 -0.004971 0.001644
v -0.050692 -0.002719 0.004980
v -0.067609 -0.005296 0.007449
v 0.000000 0.000116 -0.118131
v -0.023001 0.000116 -0.118043
v -0.025022 0.000116 -0.133470
v 0.000000 0.000116 -0.133629
v -0.380468 0.000116 -0.117728
v -0.390309 0.000122 -0.133927
v 0.033804 -0.005534 0.008122
v 0.033742 -0.010258 0.001123
v 0.101413 -0.009365 0.000402
v 0.108854 -0.003756 0.001135
v 0.108854 -0.002057 0.003650
v 0.101413 -0.005059 0.006776
v 0.402295 -0.002454 -0.149137
v 0.406374 -0.002454 -0.151444
v 0.409972 -0.001093 -0.149984
v 0.408056 -0.001093 -0.147234
v 0.299676 0.009691 0.001069
v 0.316203 0.011095 0.000268
v 0.311786 -0.000045 -0.010052
v 0.297158 -0.000040 -0.004123
v 0.380468 0.000116 -0.117728
v 0.384496 -0.005813 -0.115916
v 0.335367 -0.010119 -0.029257
v 0.330752 0.000005 -0.034186
v 0.408056 0.001563 -0.147234
v 0.409972 0.001563 -0.149984
v 0.406374 0.002709 -0.151444
v 0.402295 0.002709 -0.149137
v 0.396499 -0.001093 -0.129384
v 0.388525 -0.002898 -0.113587
v 0.393404 -0.002454 -0.131730
v 0.396499 0.001563 -0.129384
v 0.388525 0.003200 -0.113587
v 0.384496 0.005971 -0.115916
v 0.335367 0.010120 -0.029257
v 0.414562 -0.001093 -0.159333
v 0.414562 0.001563 -0.159333
v 0.108854 0.001776 0.003650
v 0.101413 0.004656 0.006776
v 0.084507 -0.003114 0.004967
v 0.084507 0.002749 0.004967
v 0.033742 -0.000121 -0.005876
v 0.101413 -0.000124 -0.005973
v 0.108854 -0.000110 -0.001380
v 0.409390 0.002709 -0.157585
v 0.403131 0.002709 -0.165157
v 0.402156 0.000122 -0.160864
v 0.404673 0.000122 -0.155532
v 0.402814 0.000122 -0.152760
v 0.409390 -0.002454 -0.157585
v 0.084498 0.005441 0.001118
v 0.101413 0.009117 0.000402
v 0.033742 0.010016 0.001123
v 0.108854 0.003536 0.001135
v 0.299676 -0.009766 0.001069
v 0.292204 -0.003915 0.001119
v 0.292204 -0.000077 -0.001204
v 0.396567 0.000122 -0.150894
v 0.316203 -0.011180 0.000268
v 0.339983 0.005292 -0.023924
v 0.339983 -0.005282 -0.023924
v 0.393404 0.002709 -0.131730
v 0.390309 0.000122 -0.133927
v 0.023001 0.000116 -0.118043
v 0.025022 0.000116 -0.133470
v 0.323611 -0.005881 0.013407
v 0.323611 0.005741 0.013407
v 0.302731 -0.005138 0.006981
v 0.302731 0.005015 0.006981
v 0.403131 -0.002454 -0.165157
v 0.409490 -0.001093 -0.163959
v 0.409490 0.001563 -0.163959
v 0.292204 -0.002088 0.003452
v 0.292204 0.001917 0.003452
v 0.292204 0.003763 0.001119
v 0.084498 -0.000136 -0.002730
v 0.067578 -0.000122 -0.005925
v 0.067578 0.009567 0.000762
v 0.050669 -0.000138 -0.001692
v 0.050669 0.004695 0.001644
v 0.033804 0.005123 0.008122
v 0.050692 0.002361 0.004980
v 0.067609 0.004889 0.007449
v 0.084498 -0.005713 0.001118
v 0.067578 -0.009811 0.000762
v 0.050669 -0.004971 0.001644
v 0.050692 -0.002719 0.004980
v 0.067609 -0.005296 0.007449
v 0.025022 0.000116 -0.133470
v 0.023001 0.000116 -0.118043
v 0.390309 0.000122 -0.133927
v 0.380468 0.000116 -0.117728
vt 0.263209 0.123901
vt 0.185865 0.123789
vt 0.229394 0.082105
vt 0.278239 0.082427
vt 0.207469 0.227404
vt 0.271519 0.227393
vt 0.279782 0.241959
vt 0.229963 0.242507
vt 0.292408 0.855617
vt 0.352250 0.856533
vt 0.354929 0.860096
vt 0.319672 0.860214
vt 0.439018 0.628221
vt 0.527803 0.619119
vt 0.599521 0.641768
vt 0.443586 0.643969
vt 0.201636 0.806210
vt 0.086383 0.684703
vt 0.211814 0.681947
vt 0.274815 0.804941
vt 0.377583 0.856457
vt 0.437329 0.855366
vt 0.410646 0.860082
vt 0.375690 0.860087
vt 0.347009 0.828297
vt 0.300583 0.829257
vt 0.328810 0.804497
vt 0.388179 0.804408
vt 0.376408 0.828204
vt 0.441526 0.804653
vt 0.474290 0.681339
vt 0.598969 0.683663
vt 0.514490 0.805578
vt 0.370806 0.867183
vt 0.360879 0.867101
vt 0.353269 0.227445
vt 0.339662 0.241154
vt 0.274886 0.203685
vt 0.353025 0.203620
vt 0.055650 0.124752
vt 0.157903 0.080219
vt 0.088294 0.230691
vt 0.158268 0.244018
vt 0.396958 0.866597
vt 0.444984 0.865253
vt 0.444945 0.873442
vt 0.398850 0.877460
vt 0.273125 0.861066
vt 0.334323 0.866649
vt 0.286591 0.865386
vt 0.414761 0.203784
vt 0.415023 0.227733
vt 0.561353 0.124237
vt 0.434428 0.123555
vt 0.389175 0.082170
vt 0.459732 0.080284
vt 0.526787 0.231346
vt 0.458442 0.243456
vt 0.388304 0.241884
vt 0.241806 0.628163
vt 0.155590 0.619114
vt 0.202161 0.612101
vt 0.268414 0.614448
vt 0.505682 0.854047
vt 0.457978 0.860825
vt 0.235192 0.644060
vt 0.078212 0.641822
vt 0.291030 0.679538
vt 0.395390 0.679157
vt 0.422298 0.829003
vt 0.472335 0.830016
vt 0.723848 0.324771
vt 0.901639 0.324771
vt 0.899816 0.360786
vt 0.722836 0.357889
vt 0.224290 0.854548
vt 0.250967 0.830487
vt 0.905062 0.884594
vt 0.719228 0.870483
vt 0.315647 0.645419
vt 0.361675 0.645293
vt 0.300296 0.630908
vt 0.378793 0.630994
vt 0.359024 0.870723
vt 0.332127 0.877504
vt 0.374269 0.870490
vt 0.365713 0.884594
vt 0.286625 0.873487
vt 0.313331 0.613941
vt 0.370148 0.613307
vt 0.415386 0.613961
vt 0.481811 0.611708
vt 0.503279 0.204421
vt 0.438333 0.178490
vt 0.560110 0.178236
vt 0.496584 0.151427
vt 0.411065 0.151277
vt 0.357540 0.123830
vt 0.340092 0.082511
vt 0.364646 0.178560
vt 0.352597 0.151259
vt 0.212824 0.203966
vt 0.121807 0.204736
vt 0.069383 0.178988
vt 0.196809 0.178859
vt 0.220101 0.151450
vt 0.133732 0.151666
vt 0.278268 0.151356
vt 0.271656 0.178687
vt 0.723848 0.324771
vt 0.722836 0.357889
vt 0.899816 0.360786
vt 0.901639 0.324771
vt 0.719228 0.870483
vt 0.905062 0.884594
vt 0.263209 0.123901
vt 0.185865 0.123789
vt 0.207469 0.227404
vt 0.229963 0.242507
vt 0.279782 0.241959
vt 0.271519 0.227393
vt 0.292408 0.855617
vt 0.319672 0.860214
vt 0.354929 0.860096
vt 0.352250 0.856533
vt 0.439018 0.628221
vt 0.443586 0.643969
vt 0.599521 0.641768
vt 0.527803 0.619119
vt 0.201636 0.806210
vt 0.274815 0.804941
vt 0.211814 0.681947
vt 0.086383 0.684703
vt 0.377583 0.856457
vt 0.375690 0.860087
vt 0.410646 0.860082
vt 0.437329 0.855366
vt 0.347009 0.828297
vt 0.328810 0.804497
vt 0.300583 0.829257
vt 0.376408 0.828204
vt 0.388179 0.804408
vt 0.441526 0.804653
vt 0.514490 0.805578
vt 0.598969 0.683663
vt 0.474290 0.681339
vt 0.360879 0.867101
vt 0.370806 0.867183
vt 0.339662 0.241154
vt 0.353269 0.227445
vt 0.274886 0.203685
vt 0.353025 0.203620
vt 0.055650 0.124752
vt 0.088294 0.230691
vt 0.158268 0.244018
vt 0.396958 0.866597
vt 0.398850 0.877460
vt 0.444945 0.873442
vt 0.444984 0.865253
vt 0.273125 0.861066
vt 0.286591 0.865386
vt 0.334323 0.866649
vt 0.414761 0.203784
vt 0.415023 0.227733
vt 0.561353 0.124237
vt 0.434428 0.123555
vt 0.388304 0.241884
vt 0.458442 0.243456
vt 0.526787 0.231346
vt 0.241806 0.628163
vt 0.268414 0.614448
vt 0.202161 0.612101
vt 0.155590 0.619114
vt 0.457978 0.860825
vt 0.505682 0.854047
vt 0.078212 0.641822
vt 0.235192 0.644060
vt 0.395390 0.679157
vt 0.291030 0.679538
vt 0.422298 0.829003
vt 0.472335 0.830016
vt 0.722836 0.357889
vt 0.899816 0.360786
vt 0.224290 0.854548
vt 0.250967 0.830487
vt 0.719228 0.870483
vt 0.905062 0.884594
vt 0.315647 0.645419
vt 0.361675 0.645293
vt 0.300296 0.630908
vt 0.378793 0.630994
vt 0.332127 0.877504
vt 0.359024 0.870723
vt 0.374269 0.870490
vt 0.365713 0.884594
vt 0.286625 0.873487
vt 0.313331 0.613941
vt 0.370148 0.613307
vt 0.415386 0.613961
vt 0.481811 0.611708
vt 0.503279 0.204421
vt 0.560110 0.178236
vt 0.438333 0.178490
vt 0.496584 0.151427
vt 0.411065 0.151277
vt 0.357540 0.123830
vt 0.352597 0.151259
vt 0.364646 0.178560
vt 0.212824 0.203966
vt 0.196809 0.178859
vt 0.069383 0.178988
vt 0.121807 0.204736
vt 0.220101 0.151450
vt 0.133732 0.151666
vt 0.278268 0.151356
vt 0.271656 0.178687
vt 0.899816 0.360786
vt 0.722836 0.357889
vt 0.905062 0.884594
vt 0.719228 0.870483
vn -0.071500 -0.479500 0.874600
vn -0.074500 -0.980500 -0.181600
vn 0.000000 -0.983200 -0.182400
vn 0.000000 -0.459700 0.888100
vn -0.183500 -0.966700 -0.178100
vn -0.166900 -0.482500 0.859800
vn -0.268600 -0.421700 0.866000
vn -0.377500 -0.907700 -0.183200
vn 0.102400 -0.973100 -0.206300
vn -0.648200 -0.601900 0.466500
vn -0.696000 -0.573300 0.432300
vn 0.041100 -0.997400 -0.060000
vn 0.386900 0.917600 -0.091300
vn 0.372700 0.000900 -0.927900
vn 0.590900 -0.000500 -0.806700
vn 0.074100 0.997200 -0.010300
vn 0.769700 0.399900 -0.497600
vn 0.835900 0.000700 -0.548800
vn 0.123000 -0.982200 -0.142300
vn 0.103400 -0.981900 -0.158400
vn -0.639000 0.619300 0.456300
vn 0.117200 0.969200 -0.216800
vn 0.063100 0.995000 -0.077900
vn -0.686000 0.591800 0.423300
vn -0.743000 -0.555300 0.373500
vn 0.101500 -0.988500 -0.112000
vn -0.786400 -0.497200 0.366600
vn -0.781400 0.505700 0.365700
vn -0.732600 0.572200 0.368600
vn 0.113400 0.980600 -0.159600
vn 0.126100 0.981900 -0.141100
vn -0.834100 0.528000 -0.160100
vn -0.841400 -0.515600 -0.161700
vn -0.164700 0.474500 0.864700
vn -0.265000 0.418000 0.868900
vn -0.021400 -0.455700 0.889900
vn -0.021300 0.448700 0.893400
vn -0.054900 0.000200 -0.998500
vn 0.000000 -0.000200 -1.000000
vn -0.161100 -0.000100 -0.986900
vn -0.300500 0.000300 -0.953800
vn 0.010600 0.999700 0.020300
vn 0.993800 -0.001400 -0.111000
vn 0.936700 -0.001000 0.350100
vn 0.453400 0.657300 -0.602000
vn 0.588400 -0.001300 -0.808500
vn -0.017100 -0.999700 0.019000
vn -0.011900 0.983200 -0.182300
vn -0.181900 0.968300 -0.171200
vn -0.075000 0.981900 -0.174100
vn 0.000000 0.984800 -0.173800
vn -0.376200 0.909800 -0.175200
vn 0.384900 -0.918200 -0.093300
vn 0.271900 -0.001200 -0.962300
vn 0.361900 -0.919600 -0.153200
vn 0.769100 -0.000800 -0.639100
vn 0.073300 -0.997200 -0.012600
vn -0.778900 -0.499200 0.379700
vn -0.777400 0.500900 0.380400
vn 0.119600 0.985600 -0.119200
vn 0.834500 0.257700 -0.487000
vn -0.000000 1.000000 0.000000
vn 0.000000 1.000000 0.000100
vn -0.378800 -0.461700 0.802100
vn -0.378700 0.460300 0.803000
vn 0.299300 -0.461000 0.835400
vn 0.299700 0.459300 0.836200
vn -0.419100 -0.527400 -0.739100
vn 0.448300 -0.660500 -0.602300
vn -0.408600 0.546900 -0.730700
vn 0.219000 -0.387900 0.895300
vn 0.219400 0.383900 0.896900
vn 0.367100 0.918300 -0.148500
vn 0.001500 -0.000300 -1.000000
vn 0.020800 0.984700 -0.172900
vn 0.027300 0.000300 -0.999600
vn 0.001700 -0.000400 -1.000000
vn -0.012200 0.982800 -0.184000
vn -0.071100 0.472000 0.878700
vn 0.000000 0.452700 0.891700
vn 0.004400 0.474800 0.880100
vn -0.021100 0.444500 0.895500
vn -0.011700 -0.981500 -0.191200
vn 0.020800 -0.983400 -0.180400
vn -0.012000 -0.981100 -0.193200
vn -0.021200 -0.451400 0.892100
vn 0.004600 -0.482400 0.875900
vn -0.000000 -1.000000 -0.000000
vn -0.000000 -1.000000 -0.000100
vn -0.000000 -1.000000 -0.000200
vn 0.071500 -0.479500 0.874600
vn 0.074500 -0.980500 -0.181600
vn 0.183500 -0.966700 -0.178100
vn 0.377500 -0.907700 -0.183200
vn 0.268600 -0.421700 0.866000
vn 0.166900 -0.482500 0.859800
vn -0.102400 -0.973100 -0.206300
vn -0.041100 -0.997400 -0.060000
vn 0.696000 -0.573300 0.432300
vn 0.648200 -0.601900 0.466500
vn -0.386900 0.917600 -0.091300
vn -0.074100 0.997200 -0.010300
vn -0.590900 -0.000500 -0.806700
vn -0.372700 0.000900 -0.927900
vn -0.769700 0.399900 -0.497600
vn -0.103400 -0.981900 -0.158400
vn -0.123000 -0.982200 -0.142300
vn -0.835900 0.000700 -0.548800
vn 0.639000 0.619300 0.456300
vn 0.686000 0.591800 0.423300
vn -0.063100 0.995000 -0.077900
vn -0.117200 0.969200 -0.216800
vn 0.743000 -0.555300 0.373500
vn 0.786400 -0.497200 0.366600
vn -0.101500 -0.988500 -0.112000
vn 0.732600 0.572200 0.368600
vn 0.781400 0.505700 0.365700
vn -0.113400 0.980600 -0.159600
vn -0.126200 0.981900 -0.141100
vn 0.841400 -0.515600 -0.161700
vn 0.834100 0.528000 -0.160100
vn 0.265000 0.418000 0.868900
vn 0.164700 0.474500 0.864700
vn 0.021400 -0.455700 0.889900
vn 0.021300 0.448700 0.893400
vn 0.054900 0.000200 -0.998500
vn 0.161100 -0.000100 -0.986900
vn 0.300500 0.000300 -0.953800
vn -0.010600 0.999700 0.020300
vn -0.453400 0.657300 -0.602000
vn -0.936700 -0.001000 0.350100
vn -0.993800 -0.001400 -0.111000
vn -0.588400 -0.001300 -0.808500
vn 0.017100 -0.999700 0.019000
vn 0.011900 0.983200 -0.182300
vn 0.181900 0.968300 -0.171200
vn 0.075000 0.981900 -0.174100
vn 0.376200 0.909800 -0.175200
vn -0.384900 -0.918200 -0.093300
vn -0.361900 -0.919600 -0.153200
vn -0.271900 -0.001200 -0.962300
vn -0.769100 -0.000800 -0.639100
vn -0.073300 -0.997200 -0.012600
vn 0.777400 0.500900 0.380400
vn 0.778900 -0.499200 0.379700
vn -0.119600 0.985600 -0.119200
vn -0.834500 0.257700 -0.487000
vn 0.378800 -0.461700 0.802100
vn 0.378700 0.460300 0.803000
vn -0.299300 -0.461000 0.835400
vn -0.299700 0.459300 0.836200
vn -0.448300 -0.660500 -0.602300
vn 0.419100 -0.527400 -0.739100
vn 0.408600 0.546900 -0.730700
vn -0.219000 -0.387900 0.895300
vn -0.219400 0.383900 0.896900
vn -0.367100 0.918300 -0.148500
vn -0.001500 -0.000300 -1.000000
vn -0.027300 0.000300 -0.999600
vn -0.020800 0.984700 -0.172900
vn -0.001700 -0.000400 -1.000000
vn 0.012200 0.982800 -0.184000
vn 0.071100 0.472000 0.878700
vn 0.021100 0.444500 0.895500
vn -0.004400 0.474800 0.880100
vn 0.011700 -0.981500 -0.191200
vn -0.020800 -0.983400 -0.180400
vn 0.012000 -0.981100 -0.193200
vn 0.021200 -0.451400 0.892100
vn -0.004600 -0.482400 0.875900
usemtl Material.017
s 1
f 1/1/1 2/2/2 3/3/3 4/4/4
f 5/5/5 6/6/6 7/7/7 8/8/8
f 9/9/9 10/10/10 11/11/11 12/12/12
f 13/13/13 14/14/14 15/15/15 16/16/16
f 17/17/17 18/18/18 19/19/19 20/20/20
f 21/21/21 22/22/22 23/23/23 24/24/24
f 25/25/25 26/26/26 20/20/20 27/27/27
f 27/27/27 28/28/28 29/29/29 25/25/25
f 30/30/30 31/31/31 18/32/18 17/33/17
f 11/11/11 24/24/24 32/34/32 33/35/33
f 6/6/6 34/36/34 35/37/35 7/7/7
f 36/38/36 37/39/37 34/36/34 6/6/6
f 2/2/2 38/40/38 39/41/39 3/3/3
f 40/42/40 5/5/5 8/8/8 41/43/41
f 24/24/24 23/23/23 42/44/42 32/34/32
f 42/44/42 43/45/43 44/46/44 45/47/45
f 10/10/10 21/21/21 24/24/24 11/11/11
f 46/48/46 12/12/12 47/49/47 43/50/43
f 48/51/48 49/52/49 34/36/34 37/39/37
f 38/53/38 50/54/50 51/55/51 39/56/39
f 49/52/49 40/57/40 41/58/41 52/59/52
f 53/60/53 14/61/14 54/62/54 55/63/55
f 22/22/22 56/64/56 46/65/46 23/23/23
f 14/61/14 53/60/53 57/66/57 15/67/15
f 27/27/27 58/68/58 59/69/59 28/28/28
f 28/28/28 59/69/59 31/31/31 30/30/30
f 30/30/30 60/70/60 29/29/29 28/28/28
f 61/71/61 60/70/60 30/30/30 17/33/17
f 23/23/23 46/65/46 43/45/43 42/44/42
f 62/72/62 63/73/62 64/74/63 65/75/63
f 56/76/56 9/9/9 12/12/12 46/48/46
f 20/20/20 19/19/19 58/68/58 27/27/27
f 26/26/26 61/77/61 17/17/17 20/20/20
f 65/75/63 64/74/63 61/78/61 17/79/17
f 58/68/58 19/19/19 57/66/57 66/80/64
f 19/19/19 18/18/18 15/67/15 57/66/57
f 66/80/64 67/81/65 59/69/59 58/68/58
f 16/16/16 31/31/31 59/69/59 67/81/65
f 18/32/18 31/31/31 16/16/16 15/15/15
f 53/60/53 68/82/66 66/80/64 57/66/57
f 68/82/66 69/83/67 67/81/65 66/80/64
f 47/49/47 33/35/33 70/84/68 71/85/69
f 69/83/67 13/13/13 16/16/16 67/81/65
f 12/12/12 11/11/11 33/35/33 47/49/47
f 70/84/68 72/86/70 45/47/45 71/85/69
f 44/87/44 71/85/69 45/47/45
f 32/34/32 42/44/42 45/47/45 72/86/70
f 43/50/43 47/49/47 71/85/69 44/88/44
f 33/35/33 32/34/32 72/86/70 70/84/68
f 61/77/61 26/26/26 9/9/9 56/76/56
f 60/70/60 61/71/61 56/64/56 22/22/22
f 25/25/25 29/29/29 21/21/21 10/10/10
f 29/29/29 60/70/60 22/22/22 21/21/21
f 26/26/26 25/25/25 10/10/10 9/9/9
f 73/89/71 55/63/55 8/8/8 7/7/7
f 7/7/7 35/37/35 74/90/72 73/89/71
f 55/63/55 54/62/54 41/43/41 8/8/8
f 52/59/52 75/91/73 74/90/72 35/37/35
f 54/92/54 75/91/73 52/59/52 41/58/41
f 14/14/14 13/13/13 75/91/73 54/92/54
f 68/82/66 53/60/53 55/63/55 73/89/71
f 69/83/67 68/82/66 73/89/71 74/90/72
f 13/13/13 69/83/67 74/90/72 75/91/73
f 34/36/34 49/52/49 52/59/52 35/37/35
f 76/93/74 48/51/48 77/94/75 78/95/76
f 79/96/77 80/97/78 50/54/50 38/53/38
f 51/55/51 50/54/50 81/98/79 82/99/80
f 80/97/78 77/94/75 83/100/81 84/101/82
f 85/102/83 76/103/74 78/104/76 86/105/84
f 87/106/85 79/107/77 38/40/38 2/2/2
f 4/4/4 82/99/80 81/98/79 1/1/1
f 88/108/86 84/101/82 83/100/81 89/109/87
f 36/38/36 85/102/83 86/105/84 89/109/87
f 88/108/86 87/106/85 2/2/2 1/1/1
f 89/109/87 86/105/84 87/106/85 88/108/86
f 1/1/1 81/98/79 84/101/82 88/108/86
f 86/105/84 78/104/76 79/107/77 87/106/85
f 50/54/50 80/97/78 84/101/82 81/98/79
f 78/95/76 77/94/75 80/97/78 79/96/77
f 6/6/6 5/5/5 85/102/83 36/38/36
f 5/5/5 40/42/40 76/103/74 85/102/83
f 40/57/40 49/52/49 48/51/48 76/93/74
f 77/94/75 48/51/48 37/39/37 83/100/81
f 89/109/87 83/100/81 37/39/37 36/38/36
f 90/110/88 91/111/89 92/112/89 93/113/88
f 91/111/89 94/114/90 95/115/90 92/112/89
f 96/116/91 4/4/4 3/3/3 97/117/92
f 98/118/93 99/119/94 100/120/95 101/121/96
f 102/122/97 103/123/98 104/124/99 105/125/100
f 106/126/101 107/127/102 108/128/103 109/129/104
f 110/130/105 111/131/106 112/132/107 113/133/108
f 114/134/109 115/135/110 116/136/111 117/137/112
f 118/138/113 119/139/114 111/131/106 120/140/115
f 119/139/114 118/138/113 121/141/116 122/142/117
f 123/143/118 110/144/105 113/145/108 124/146/119
f 104/124/99 125/147/120 126/148/121 115/135/110
f 101/121/96 100/120/95 127/149/122 128/150/123
f 129/151/124 101/121/96 128/150/123 130/152/125
f 97/117/92 3/3/3 39/41/39 131/153/126
f 132/154/127 133/155/128 99/119/94 98/118/93
f 115/135/110 126/148/121 134/156/129 116/136/111
f 134/156/129 135/157/130 136/158/131 137/159/132
f 105/125/100 104/124/99 115/135/110 114/134/109
f 138/160/133 137/161/132 139/162/134 103/123/98
f 140/163/135 130/152/125 128/150/123 141/164/136
f 131/165/126 39/56/39 51/55/51 142/166/137
f 141/164/136 143/167/138 133/168/128 132/169/127
f 144/170/139 145/171/140 146/172/141 109/173/104
f 117/137/112 116/136/111 138/174/133 147/175/142
f 109/173/104 108/176/103 148/177/143 144/170/139
f 119/139/114 122/142/117 149/178/144 150/179/145
f 122/142/117 123/143/118 124/146/119 149/178/144
f 123/143/118 122/142/117 121/141/116 151/180/146
f 152/181/147 110/144/105 123/143/118 151/180/146
f 116/136/111 134/156/129 137/159/132 138/174/133
f 62/72/62 153/182/63 154/183/63 63/73/62
f 147/184/142 138/160/133 103/123/98 102/122/97
f 111/131/106 119/139/114 150/179/145 112/132/107
f 120/140/115 111/131/106 110/130/105 152/185/147
f 153/182/63 110/186/105 152/187/147 154/183/63
f 150/179/145 155/188/148 148/177/143 112/132/107
f 112/132/107 148/177/143 108/176/103 113/133/108
f 155/188/148 150/179/145 149/178/144 156/189/149
f 107/127/102 156/189/149 149/178/144 124/146/119
f 113/145/108 108/128/103 107/127/102 124/146/119
f 144/170/139 148/177/143 155/188/148 157/190/150
f 157/190/150 155/188/148 156/189/149 158/191/151
f 139/162/134 159/192/152 160/193/153 125/147/120
f 158/191/151 156/189/149 107/127/102 106/126/101
f 103/123/98 139/162/134 125/147/120 104/124/99
f 160/193/153 159/192/152 135/157/130 161/194/154
f 136/195/131 135/157/130 159/192/152
f 126/148/121 161/194/154 135/157/130 134/156/129
f 137/161/132 136/196/131 159/192/152 139/162/134
f 125/147/120 160/193/153 161/194/154 126/148/121
f 152/185/147 147/184/142 102/122/97 120/140/115
f 151/180/146 117/137/112 147/175/142 152/181/147
f 118/138/113 105/125/100 114/134/109 121/141/116
f 121/141/116 114/134/109 117/137/112 151/180/146
f 120/140/115 102/122/97 105/125/100 118/138/113
f 162/197/155 100/120/95 99/119/94 145/171/140
f 100/120/95 162/197/155 163/198/156 127/149/122
f 145/171/140 99/119/94 133/155/128 146/172/141
f 143/167/138 127/149/122 163/198/156 164/199/157
f 146/200/141 133/168/128 143/167/138 164/199/157
f 109/129/104 146/200/141 164/199/157 106/126/101
f 157/190/150 162/197/155 145/171/140 144/170/139
f 158/191/151 163/198/156 162/197/155 157/190/150
f 106/126/101 164/199/157 163/198/156 158/191/151
f 128/150/123 127/149/122 143/167/138 141/164/136
f 165/201/158 166/202/159 167/203/160 140/163/135
f 168/204/161 131/165/126 142/166/137 169/205/162
f 51/55/51 82/99/80 170/206/163 142/166/137
f 169/205/162 171/207/164 172/208/165 167/203/160
f 173/209/166 174/210/167 166/211/159 165/212/158
f 175/213/168 97/117/92 131/153/126 168/214/161
f 4/4/4 96/116/91 170/206/163 82/99/80
f 176/215/169 177/216/170 172/208/165 171/207/164
f 129/151/124 177/216/170 174/210/167 173/209/166
f 176/215/169 96/116/91 97/117/92 175/213/168
f 177/216/170 176/215/169 175/213/168 174/210/167
f 96/116/91 176/215/169 171/207/164 170/206/163
f 174/210/167 175/213/168 168/214/161 166/211/159
f 142/166/137 170/206/163 171/207/164 169/205/162
f 166/202/159 168/204/161 169/205/162 167/203/160
f 101/121/96 129/151/124 173/209/166 98/118/93
f 98/118/93 173/209/166 165/212/158 132/154/127
f 132/169/127 165/201/158 140/163/135 141/164/136
f 167/203/160 172/208/165 130/152/125 140/163/135
f 177/216/170 129/151/124 130/152/125 172/208/165
f 90/110/88 93/113/88 178/217/89 179/218/89
f 179/218/89 178/217/89 180/219/90 181/220/90
