# Blender v2.75 (sub 0) OBJ File: ''
# www.blender.org
mtllib Halberd.mtl
o Cube.010
v 0.011641 0.390279 0.013146
v 0.000000 0.390279 0.017673
v 0.000000 -0.954946 0.017673
v 0.011641 -0.954946 0.013146
v 0.011641 0.390279 -0.003189
v 0.011641 -0.954946 -0.003189
v 0.000000 0.390279 -0.007353
v 0.000000 -0.954946 -0.007353
v 0.017012 -0.974910 -0.010809
v 0.017012 -0.974910 0.020599
v 0.011641 -0.994874 0.013146
v 0.011641 -0.994874 -0.003189
v 0.007955 0.543486 -0.001557
v 0.007955 0.543486 0.011550
v 0.002438 0.543299 0.093466
v 0.000000 0.552869 0.093413
v 0.000000 0.584343 0.125673
v 0.001563 0.571539 0.125836
v 0.002438 0.379373 0.096154
v 0.001563 0.352960 0.128269
v 0.011557 0.531300 0.024378
v 0.011557 0.393415 0.024378
v 0.000000 0.390240 0.026670
v 0.000000 0.543486 0.015183
v 0.000000 0.534572 0.026670
v 0.003862 0.402889 0.033852
v 0.003862 0.521877 0.033852
v 0.003503 0.521947 0.064179
v 0.003503 0.402819 0.064179
v 0.000000 0.396812 0.036455
v 0.000000 0.396372 0.064179
v 0.000000 0.527954 0.036455
v 0.000000 0.528394 0.064179
v 0.000000 0.369825 0.096098
v 0.000576 0.599471 0.146685
v 0.000576 0.328362 0.146640
v 0.000000 0.340160 0.128061
v 0.000809 0.570415 0.171143
v 0.000809 0.354380 0.171102
v 0.000809 0.532960 0.191496
v 0.000809 0.391833 0.191455
v 0.000809 0.486742 0.204612
v 0.000809 0.440085 0.204571
v 0.000000 0.310719 0.146640
v 0.000000 0.617114 0.146685
v 0.000000 0.542172 0.216296
v 0.000000 0.488857 0.233397
v 0.000000 0.382561 0.216252
v 0.000000 0.344960 0.186908
v 0.000000 0.579775 0.186952
v 0.000000 0.438144 0.233352
v 0.011695 0.393401 -0.013272
v 0.011695 0.531365 -0.013272
v 0.001489 0.383312 -0.088476
v 0.003211 0.409519 -0.050145
v 0.000000 0.403795 -0.050145
v 0.000000 0.374055 -0.088291
v 0.003530 0.409581 -0.023220
v 0.003211 0.515287 -0.050145
v 0.003530 0.515225 -0.023220
v 0.000000 0.404186 -0.025530
v 0.000000 0.521011 -0.050145
v 0.000000 0.520620 -0.025530
v 0.000000 0.550639 -0.086171
v 0.001489 0.541380 -0.086315
v 0.000000 0.390279 -0.013272
v 0.000612 0.365524 -0.112702
v 0.000612 0.561579 -0.112741
v 0.000819 0.384339 -0.131255
v 0.000819 0.540567 -0.131291
v 0.000819 0.411423 -0.144576
v 0.000819 0.513481 -0.144613
v 0.000819 0.446317 -0.153134
v 0.000819 0.480058 -0.153171
v 0.000000 0.352765 -0.112702
v 0.000000 0.574338 -0.112741
v 0.000000 0.481587 -0.178727
v 0.000000 0.520143 -0.166631
v 0.000000 0.377527 -0.145288
v 0.000000 0.404718 -0.166592
v 0.000000 0.547336 -0.145327
v 0.000000 0.444913 -0.178688
v 0.000000 0.543486 -0.004898
v 0.000000 0.534487 -0.013272
v 0.000000 -0.994874 0.017673
v 0.000000 -1.093362 0.011734
v 0.008898 -1.093362 0.009340
v 0.000000 -0.974910 0.029304
v 0.000000 -0.974910 -0.018816
v 0.000000 -0.994874 -0.007353
v 0.000000 -1.093362 -0.001499
v 0.008898 -1.093362 0.000703
v 0.007698 0.564247 0.011193
v 0.000000 0.564247 0.014625
v 0.015066 0.621368 0.017898
v 0.000000 0.621368 0.025089
v 0.007698 0.564247 -0.001191
v 0.000000 0.564247 -0.004348
v 0.000000 0.621368 -0.014661
v 0.015066 0.621368 -0.008047
v 0.000000 0.723036 0.005070
v -0.011641 0.390279 0.013146
v -0.011641 -0.954946 0.013146
v -0.011641 0.390279 -0.003189
v -0.011641 -0.954946 -0.003189
v -0.017012 -0.974910 -0.010809
v -0.011641 -0.994874 -0.003189
v -0.011641 -0.994874 0.013146
v -0.017012 -0.974910 0.020599
v -0.007955 0.543486 -0.001557
v -0.007955 0.543486 0.011550
v -0.002438 0.543299 0.093466
v -0.001563 0.571539 0.125836
v -0.002438 0.379373 0.096154
v -0.001563 0.352960 0.128269
v -0.011557 0.393415 0.024378
v -0.011557 0.531300 0.024378
v -0.003862 0.402889 0.033852
v -0.003503 0.402819 0.064179
v -0.003503 0.521947 0.064179
v -0.003862 0.521877 0.033852
v -0.000576 0.328362 0.146640
v -0.000576 0.599471 0.146685
v -0.000809 0.354380 0.171102
v -0.000809 0.570415 0.171143
v -0.000809 0.391833 0.191455
v -0.000809 0.532960 0.191496
v -0.000809 0.440085 0.204571
v -0.000809 0.486742 0.204612
v -0.011695 0.531365 -0.013272
v -0.011695 0.393401 -0.013272
v -0.001489 0.383312 -0.088476
v -0.003211 0.409519 -0.050145
v -0.003530 0.409581 -0.023220
v -0.003530 0.515225 -0.023220
v -0.003211 0.515287 -0.050145
v -0.001489 0.541380 -0.086315
v -0.000612 0.561579 -0.112741
v -0.000612 0.365524 -0.112702
v -0.000819 0.540567 -0.131291
v -0.000819 0.384339 -0.131255
v -0.000819 0.513481 -0.144613
v -0.000819 0.411423 -0.144576
v -0.000819 0.480058 -0.153171
v -0.000819 0.446317 -0.153134
v -0.008898 -1.093362 0.009340
v -0.008898 -1.093362 0.000703
v -0.007698 0.564247 0.011193
v -0.015066 0.621368 0.017898
v -0.007698 0.564247 -0.001191
v -0.015066 0.621368 -0.008047
vt 0.453427 0.765790
vt 0.431920 0.761926
vt 0.444792 0.103061
vt 0.464759 0.101675
vt 0.475451 0.765916
vt 0.487884 0.102318
vt 0.498226 0.762254
vt 0.507440 0.103744
vt 0.493575 0.087472
vt 0.459016 0.087500
vt 0.463418 0.074059
vt 0.488794 0.073061
vt 0.473700 0.881248
vt 0.454915 0.881124
vt 0.336234 0.881167
vt 0.336776 0.888113
vt 0.292223 0.910725
vt 0.291441 0.901624
vt 0.324718 0.763736
vt 0.277917 0.746028
vt 0.439187 0.871099
vt 0.435628 0.771432
vt 0.421977 0.766471
vt 0.442214 0.883173
vt 0.428201 0.876220
vt 0.416128 0.777467
vt 0.421560 0.866201
vt 0.377289 0.865731
vt 0.371966 0.779057
vt 0.410087 0.772506
vt 0.371676 0.773811
vt 0.416464 0.871122
vt 0.377689 0.870994
vt 0.324327 0.756791
vt 0.263074 0.921791
vt 0.250703 0.729105
vt 0.277594 0.736929
vt 0.227021 0.901680
vt 0.217156 0.748175
vt 0.196384 0.875539
vt 0.189958 0.775250
vt 0.175620 0.842998
vt 0.173534 0.809840
vt 0.249800 0.716605
vt 0.263772 0.934291
vt 0.161555 0.882657
vt 0.134791 0.845164
vt 0.154282 0.769228
vt 0.194258 0.741848
vt 0.204979 0.908688
vt 0.132522 0.809120
vt 0.491723 0.771730
vt 0.488175 0.871060
vt 0.610633 0.766395
vt 0.552530 0.783835
vt 0.552832 0.779032
vt 0.611138 0.759622
vt 0.512105 0.782725
vt 0.546341 0.862102
vt 0.506780 0.861952
vt 0.517137 0.778036
vt 0.545807 0.866848
vt 0.510721 0.866423
vt 0.596977 0.888462
vt 0.597573 0.881719
vt 0.504845 0.765803
vt 0.646951 0.754405
vt 0.634768 0.896951
vt 0.672715 0.768683
vt 0.663002 0.882225
vt 0.690380 0.788778
vt 0.684051 0.862962
vt 0.700639 0.814409
vt 0.698582 0.838937
vt 0.647860 0.745178
vt 0.634111 0.906177
vt 0.735652 0.840851
vt 0.715642 0.868495
vt 0.693535 0.764177
vt 0.722806 0.784590
vt 0.682978 0.887572
vt 0.737891 0.814186
vt 0.486686 0.883175
vt 0.497551 0.876587
vt 0.446233 0.072754
vt 0.456222 0.007604
vt 0.467227 0.013294
vt 0.435186 0.087378
vt 0.518181 0.087341
vt 0.506391 0.071496
vt 0.485927 0.006615
vt 0.476286 0.013947
vt 0.456575 0.896716
vt 0.445800 0.896625
vt 0.450409 0.931253
vt 0.430917 0.931419
vt 0.473064 0.896676
vt 0.483720 0.896560
vt 0.497457 0.931764
vt 0.478189 0.931442
vt 0.463170 0.989897
vn 0.942800 -0.202900 0.264400
vn 0.000000 -0.732600 0.680600
vn 0.000000 0.257800 0.966200
vn 0.831500 0.222300 0.509100
vn 0.938000 -0.211600 -0.274500
vn 0.824000 0.225300 -0.519900
vn 0.000000 -0.709800 -0.704400
vn 0.000000 0.254900 -0.967000
vn 0.808900 -0.000000 -0.588000
vn 0.818400 -0.000000 0.574600
vn 0.819900 -0.246900 0.516500
vn 0.812600 -0.250100 -0.526500
vn 0.879900 0.208200 -0.427200
vn 0.896600 0.210700 0.389400
vn 0.985200 0.144000 -0.092900
vn 0.000000 0.781500 -0.623900
vn 0.000000 0.708900 -0.705300
vn 0.996800 0.070400 -0.037700
vn 0.985100 -0.144700 -0.093100
vn 0.997000 -0.069300 -0.033500
vn 0.856400 0.346100 0.383100
vn 0.798800 -0.518400 0.305400
vn 0.000000 -0.869000 0.494800
vn -0.000000 0.492100 0.870500
vn 0.000000 0.712900 0.701300
vn 0.876800 -0.244600 0.414000
vn 0.877000 0.244300 0.413700
vn 0.982400 0.185300 -0.024900
vn 0.982400 -0.185000 -0.025000
vn 0.000000 -0.858000 0.513600
vn 0.000000 -0.942900 -0.333200
vn 0.000000 0.857700 0.514200
vn 0.000000 0.943300 -0.331800
vn -0.000000 -0.791700 -0.610900
vn 0.999100 0.040700 -0.014800
vn 0.999100 -0.040700 -0.015000
vn -0.000000 -0.724200 -0.689600
vn 0.999800 0.014400 0.012600
vn 0.999800 -0.015000 0.012300
vn 0.999800 0.007800 0.015800
vn 0.999800 -0.007700 0.015800
vn 0.999900 0.002400 0.015400
vn 0.999900 -0.002300 0.015300
vn -0.000000 -0.969200 -0.246200
vn 0.000000 0.962500 -0.271400
vn 0.000000 0.427400 0.904100
vn 0.000000 0.141900 0.989900
vn 0.000000 -0.422900 0.906200
vn 0.000000 -0.662600 0.749000
vn -0.000000 0.645900 0.763400
vn 0.000000 -0.137200 0.990600
vn 0.775100 -0.513800 -0.367600
vn 0.829900 0.342300 -0.440700
vn 0.991700 -0.115700 0.056100
vn 0.983300 -0.181700 0.012800
vn 0.000000 -0.961300 0.275300
vn 0.000000 -0.842600 0.538600
vn 0.865500 -0.216700 -0.451500
vn 0.983400 0.180900 0.013700
vn 0.865500 0.217000 -0.451400
vn 0.000000 -0.781900 -0.623400
vn 0.000000 0.956900 0.290600
vn 0.000000 0.782500 -0.622700
vn 0.000000 0.828100 0.560500
vn 0.991300 0.117000 0.061100
vn 0.000000 -0.844400 -0.535700
vn 0.998700 -0.050900 0.003000
vn 0.998700 0.051000 0.003200
vn 0.999700 -0.020100 -0.015800
vn 0.999700 0.019200 -0.016200
vn 0.999800 -0.008800 -0.018600
vn 0.999800 0.008900 -0.018500
vn 0.999800 -0.002500 -0.017500
vn 0.999800 0.002600 -0.017500
vn 0.000000 -0.991600 0.129400
vn -0.000000 0.988700 0.149900
vn 0.000000 0.134100 -0.991000
vn -0.000000 0.408900 -0.912600
vn 0.000000 -0.665000 -0.746800
vn 0.000000 -0.404500 -0.914500
vn -0.000000 0.649700 -0.760200
vn 0.000000 -0.129900 -0.991500
vn 0.000000 0.435700 -0.900100
vn 0.000000 0.633500 -0.773700
vn -0.000000 -0.282200 0.959400
vn 0.000000 -0.679200 0.734000
vn 0.650500 -0.602700 0.462100
vn 0.000000 -0.000000 1.000000
vn 0.000000 -0.000000 -1.000000
vn 0.000000 -0.279300 -0.960200
vn 0.000000 -0.681900 -0.731500
vn 0.645300 -0.602000 -0.470200
vn 0.842800 -0.078000 0.532500
vn -0.000000 -0.078600 0.996900
vn 0.839800 0.009000 0.542800
vn 0.000000 0.007300 1.000000
vn 0.834500 -0.078800 -0.545300
vn 0.000000 -0.077300 -0.997000
vn 0.000000 0.007200 -1.000000
vn 0.831200 0.009000 -0.556000
vn 0.000000 1.000000 -0.000100
vn -0.942800 -0.202900 0.264400
vn -0.831500 0.222300 0.509100
vn -0.938000 -0.211600 -0.274500
vn -0.824000 0.225300 -0.519900
vn -0.808900 -0.000000 -0.588000
vn -0.812600 -0.250100 -0.526500
vn -0.819900 -0.246900 0.516500
vn -0.818400 -0.000000 0.574600
vn -0.879900 0.208200 -0.427200
vn -0.896600 0.210700 0.389400
vn -0.985200 0.144000 -0.092900
vn -0.996800 0.070400 -0.037700
vn -0.985100 -0.144700 -0.093100
vn -0.997000 -0.069300 -0.033500
vn -0.798800 -0.518400 0.305400
vn -0.856400 0.346100 0.383100
vn -0.876800 -0.244600 0.414000
vn -0.982400 -0.185000 -0.025000
vn -0.982400 0.185300 -0.024900
vn -0.877000 0.244300 0.413700
vn -0.999100 -0.040700 -0.015000
vn -0.999100 0.040700 -0.014800
vn -0.999800 -0.015000 0.012300
vn -0.999800 0.014400 0.012600
vn -0.999800 -0.007700 0.015800
vn -0.999800 0.007800 0.015800
vn -0.999900 -0.002300 0.015300
vn -0.999900 0.002400 0.015400
vn -0.829900 0.342300 -0.440700
vn -0.775100 -0.513800 -0.367600
vn -0.991700 -0.115700 0.056100
vn -0.983300 -0.181700 0.012800
vn -0.865500 -0.216700 -0.451500
vn -0.865500 0.217000 -0.451400
vn -0.983400 0.180900 0.013700
vn -0.991300 0.117000 0.061100
vn -0.998700 0.051000 0.003200
vn -0.998700 -0.050900 0.003000
vn -0.999700 0.019200 -0.016200
vn -0.999700 -0.020100 -0.015800
vn -0.999800 0.008900 -0.018500
vn -0.999800 -0.008800 -0.018600
vn -0.999800 0.002600 -0.017500
vn -0.999800 -0.002500 -0.017500
vn -0.650500 -0.602700 0.462100
vn -0.645300 -0.602000 -0.470200
vn -0.842800 -0.078000 0.532500
vn -0.839800 0.009000 0.542800
vn -0.834500 -0.078800 -0.545300
vn -0.831200 0.009000 -0.556000
usemtl Material.015
s 1
f 1/1/1 2/2/2 3/3/3 4/4/4
f 5/5/5 1/1/1 4/4/4 6/6/6
f 7/7/7 5/5/5 6/6/6 8/8/8
f 9/9/9 10/10/10 11/11/11 12/12/12
f 13/13/13 14/14/14 1/1/1 5/5/5
f 15/15/15 16/16/16 17/17/17 18/18/18
f 19/19/19 15/15/15 18/18/18 20/20/20
f 1/1/1 14/14/14 21/21/21 22/22/22
f 2/2/2 1/1/1 22/22/22 23/23/23
f 14/14/14 24/24/24 25/25/25 21/21/21
f 26/26/26 27/27/27 28/28/28 29/29/29
f 30/30/30 26/26/26 29/29/29 31/31/31
f 27/27/27 32/32/32 33/33/33 28/28/28
f 29/29/29 28/28/28 15/15/15 19/19/19
f 31/31/31 29/29/29 19/19/19 34/34/34
f 28/28/28 33/33/33 16/16/16 15/15/15
f 20/20/20 18/18/18 35/35/35 36/36/36
f 34/34/34 19/19/19 20/20/20 37/37/37
f 36/36/36 35/35/35 38/38/38 39/39/39
f 39/39/39 38/38/38 40/40/40 41/41/41
f 41/41/41 40/40/40 42/42/42 43/43/43
f 36/36/36 44/44/44 37/37/37 20/20/20
f 21/21/21 25/25/25 32/32/32 27/27/27
f 23/23/23 22/22/22 26/26/26 30/30/30
f 22/22/22 21/21/21 27/27/27 26/26/26
f 17/17/17 45/45/45 35/35/35 18/18/18
f 42/42/42 40/40/40 46/46/46 47/47/47
f 39/39/39 41/41/41 48/48/48 49/49/49
f 38/38/38 35/35/35 45/45/45 50/50/50
f 41/41/41 43/43/43 51/51/51 48/48/48
f 43/43/43 42/42/42 47/47/47 51/51/51
f 40/40/40 38/38/38 50/50/50 46/46/46
f 36/36/36 39/39/39 49/49/49 44/44/44
f 13/13/13 5/5/5 52/52/52 53/53/53
f 54/54/54 55/55/55 56/56/56 57/57/57
f 58/58/58 55/55/55 59/59/59 60/60/60
f 61/61/61 56/56/56 55/55/55 58/58/58
f 60/60/60 59/59/59 62/62/62 63/63/63
f 64/64/64 62/62/62 59/59/59 65/65/65
f 65/65/65 59/59/59 55/55/55 54/54/54
f 5/5/5 7/7/7 66/66/66 52/52/52
f 54/54/54 67/67/67 68/68/68 65/65/65
f 67/67/67 69/69/69 70/70/70 68/68/68
f 69/69/69 71/71/71 72/72/72 70/70/70
f 71/71/71 73/73/73 74/74/74 72/72/72
f 67/67/67 54/54/54 57/57/57 75/75/75
f 64/64/64 65/65/65 68/68/68 76/76/76
f 74/74/74 77/77/77 78/78/78 72/72/72
f 69/69/69 79/79/79 80/80/80 71/71/71
f 70/70/70 81/81/81 76/76/76 68/68/68
f 71/71/71 80/80/80 82/82/82 73/73/73
f 73/73/73 82/82/82 77/77/77 74/74/74
f 72/72/72 78/78/78 81/81/81 70/70/70
f 67/67/67 75/75/75 79/79/79 69/69/69
f 83/83/83 13/13/13 53/53/53 84/84/84
f 66/66/66 61/61/61 58/58/58 52/52/52
f 52/52/52 58/58/58 60/60/60 53/53/53
f 53/53/53 60/60/60 63/63/63 84/84/84
f 11/11/11 85/85/85 86/86/86 87/87/87
f 10/10/10 88/88/88 85/85/85 11/11/11
f 89/89/89 9/9/9 12/12/12 90/90/90
f 91/91/91 92/92/92 87/87/87 86/86/86
f 90/90/90 12/12/12 92/92/92 91/91/91
f 12/12/12 11/11/11 87/87/87 92/92/92
f 8/8/8 6/6/6 9/9/9 89/89/89
f 4/4/4 3/3/3 88/88/88 10/10/10
f 6/6/6 4/4/4 10/10/10 9/9/9
f 24/24/24 14/14/14 93/93/93 94/94/94
f 94/94/94 93/93/93 95/95/95 96/96/96
f 97/97/97 98/98/98 99/99/99 100/100/100
f 13/13/13 83/83/83 98/98/98 97/97/97
f 14/14/14 13/13/13 97/97/97 93/93/93
f 95/95/95 100/100/100 101/101/101
f 96/96/96 95/95/95 101/101/101
f 100/100/100 99/99/99 101/101/101
f 93/93/93 97/97/97 100/100/100 95/95/95
f 102/1/102 103/4/103 3/3/3 2/2/2
f 104/5/104 105/6/105 103/4/103 102/1/102
f 7/7/7 8/8/8 105/6/105 104/5/104
f 106/9/106 107/12/107 108/11/108 109/10/109
f 110/13/110 104/5/104 102/1/102 111/14/111
f 112/15/112 113/18/113 17/17/17 16/16/16
f 114/19/114 115/20/115 113/18/113 112/15/112
f 102/1/102 116/22/116 117/21/117 111/14/111
f 2/2/2 23/23/23 116/22/116 102/1/102
f 111/14/111 117/21/117 25/25/25 24/24/24
f 118/26/118 119/29/119 120/28/120 121/27/121
f 30/30/30 31/31/31 119/29/119 118/26/118
f 121/27/121 120/28/120 33/33/33 32/32/32
f 119/29/119 114/19/114 112/15/112 120/28/120
f 31/31/31 34/34/34 114/19/114 119/29/119
f 120/28/120 112/15/112 16/16/16 33/33/33
f 115/20/115 122/36/122 123/35/123 113/18/113
f 34/34/34 37/37/37 115/20/115 114/19/114
f 122/36/122 124/39/124 125/38/125 123/35/123
f 124/39/124 126/41/126 127/40/127 125/38/125
f 126/41/126 128/43/128 129/42/129 127/40/127
f 122/36/122 115/20/115 37/37/37 44/44/44
f 117/21/117 121/27/121 32/32/32 25/25/25
f 23/23/23 30/30/30 118/26/118 116/22/116
f 116/22/116 118/26/118 121/27/121 117/21/117
f 17/17/17 113/18/113 123/35/123 45/45/45
f 129/42/129 47/47/47 46/46/46 127/40/127
f 124/39/124 49/49/49 48/48/48 126/41/126
f 125/38/125 50/50/50 45/45/45 123/35/123
f 126/41/126 48/48/48 51/51/51 128/43/128
f 128/43/128 51/51/51 47/47/47 129/42/129
f 127/40/127 46/46/46 50/50/50 125/38/125
f 122/36/122 44/44/44 49/49/49 124/39/124
f 110/13/110 130/53/130 131/52/131 104/5/104
f 132/54/132 57/57/57 56/56/56 133/55/133
f 134/58/134 135/60/135 136/59/136 133/55/133
f 61/61/61 134/58/134 133/55/133 56/56/56
f 135/60/135 63/63/63 62/62/62 136/59/136
f 64/64/64 137/65/137 136/59/136 62/62/62
f 137/65/137 132/54/132 133/55/133 136/59/136
f 104/5/104 131/52/131 66/66/66 7/7/7
f 132/54/132 137/65/137 138/68/138 139/67/139
f 139/67/139 138/68/138 140/70/140 141/69/141
f 141/69/141 140/70/140 142/72/142 143/71/143
f 143/71/143 142/72/142 144/74/144 145/73/145
f 139/67/139 75/75/75 57/57/57 132/54/132
f 64/64/64 76/76/76 138/68/138 137/65/137
f 144/74/144 142/72/142 78/78/78 77/77/77
f 141/69/141 143/71/143 80/80/80 79/79/79
f 140/70/140 138/68/138 76/76/76 81/81/81
f 143/71/143 145/73/145 82/82/82 80/80/80
f 145/73/145 144/74/144 77/77/77 82/82/82
f 142/72/142 140/70/140 81/81/81 78/78/78
f 139/67/139 141/69/141 79/79/79 75/75/75
f 83/83/83 84/84/84 130/53/130 110/13/110
f 66/66/66 131/52/131 134/58/134 61/61/61
f 131/52/131 130/53/130 135/60/135 134/58/134
f 130/53/130 84/84/84 63/63/63 135/60/135
f 108/11/108 146/87/146 86/86/86 85/85/85
f 109/10/109 108/11/108 85/85/85 88/88/88
f 89/89/89 90/90/90 107/12/107 106/9/106
f 91/91/91 86/86/86 146/87/146 147/92/147
f 90/90/90 91/91/91 147/92/147 107/12/107
f 107/12/107 147/92/147 146/87/146 108/11/108
f 8/8/8 89/89/89 106/9/106 105/6/105
f 103/4/103 109/10/109 88/88/88 3/3/3
f 105/6/105 106/9/106 109/10/109 103/4/103
f 24/24/24 94/94/94 148/93/148 111/14/111
f 94/94/94 96/96/96 149/95/149 148/93/148
f 150/97/150 151/100/151 99/99/99 98/98/98
f 110/13/110 150/97/150 98/98/98 83/83/83
f 111/14/111 148/93/148 150/97/150 110/13/110
f 149/95/149 101/101/101 151/100/151
f 96/96/96 101/101/101 149/95/149
f 151/100/151 101/101/101 99/99/99
f 148/93/148 149/95/149 151/100/151 150/97/150
