# Blender v2.77 (sub 0) OBJ File: ''
# www.blender.org
mtllib Shortbow.mtl
o BezierCurve_Mesh.005
v 0.019707 0.000116 -0.118113
v 0.021504 0.000116 -0.133882
v -0.001703 0.000116 -0.133629
v -0.001703 0.000116 -0.118131
v 0.195082 -0.000840 -0.114260
v 0.190762 -0.003148 -0.116310
v 0.194765 -0.002395 -0.132031
v 0.198328 -0.000599 -0.129950
v 0.180725 -0.001467 -0.071515
v 0.176430 -0.005095 -0.074310
v 0.150269 -0.002217 -0.031527
v 0.146550 -0.007520 -0.035549
v 0.043449 -0.003246 0.008795
v 0.042373 -0.010704 0.001484
v 0.103576 -0.008769 -0.009079
v 0.106368 -0.002596 -0.003829
v -0.039035 -0.003246 0.008030
v -0.037924 -0.010704 0.000728
v -0.103334 -0.002581 -0.004850
v -0.100609 -0.008718 -0.010125
v -0.148664 -0.002319 -0.031456
v -0.145068 -0.007891 -0.035612
v -0.141471 -0.000001 -0.039453
v -0.097884 -0.000041 -0.015377
v -0.196923 -0.001631 -0.113587
v -0.192895 -0.005813 -0.115916
v -0.176430 -0.007063 -0.073390
v -0.180558 -0.002057 -0.070353
v -0.201747 -0.000616 -0.128542
v -0.198652 -0.002454 -0.130887
v -0.196923 0.001797 -0.113587
v -0.201747 0.000876 -0.128542
v -0.180558 0.002116 -0.070353
v -0.148664 0.002313 -0.031456
v -0.039035 0.003008 0.008030
v -0.103334 0.002509 -0.004850
v 0.043449 0.003008 0.008795
v 0.106368 0.002521 -0.003829
v 0.150269 0.002223 -0.031527
v 0.195082 0.001050 -0.114260
v 0.180725 0.001585 -0.071515
v 0.198328 0.000863 -0.129950
v 0.186443 0.000121 -0.117869
v 0.191201 0.000122 -0.133908
v 0.041296 -0.000119 -0.005828
v 0.100784 -0.000043 -0.014309
v -0.036813 -0.000119 -0.006574
v 0.172135 0.000065 -0.076573
v 0.142832 0.000006 -0.039296
v -0.172302 0.000038 -0.075820
v 0.194765 0.002655 -0.132031
v -0.198652 0.002709 -0.130887
v -0.100609 0.008641 -0.010125
v -0.145068 0.007880 -0.035612
v 0.190762 0.003354 -0.116310
v 0.176430 0.005210 -0.074310
v 0.146550 0.007523 -0.035549
v 0.103576 0.008687 -0.009079
v 0.042373 0.010466 0.001484
v -0.037924 0.010466 0.000728
v -0.176430 0.007120 -0.073390
v -0.192895 0.005971 -0.115916
v -0.188866 0.000116 -0.117728
v -0.195557 0.000122 -0.133085
v -0.025022 0.000116 -0.133470
v -0.023001 0.000116 -0.118043
v 0.019707 0.000116 -0.118113
v -0.001703 0.000116 -0.118131
v -0.001703 0.000116 -0.133629
v 0.021504 0.000116 -0.133882
v -0.023001 0.000116 -0.118043
v -0.025022 0.000116 -0.133470
v 0.186443 0.000121 -0.117869
v 0.191201 0.000122 -0.133908
v -0.188866 0.000116 -0.117728
v -0.195557 0.000122 -0.133085
vt 0.741032 0.462342
vt 0.915270 0.461767
vt 0.912495 0.469056
vt 0.741243 0.469067
vt 0.352956 0.046870
vt 0.298331 0.044495
vt 0.341857 0.024213
vt 0.358106 0.028043
vt 0.343474 0.126297
vt 0.275094 0.125317
vt 0.332936 0.216252
vt 0.246355 0.216189
vt 0.316304 0.425727
vt 0.200241 0.426354
vt 0.231977 0.310560
vt 0.326389 0.309457
vt 0.312646 0.575169
vt 0.198413 0.574484
vt 0.316617 0.693189
vt 0.223548 0.691906
vt 0.316945 0.787102
vt 0.228869 0.786996
vt 0.122535 0.787012
vt 0.105229 0.691316
vt 0.321923 0.955324
vt 0.261240 0.957883
vt 0.241089 0.877705
vt 0.317875 0.876648
vt 0.333611 0.973370
vt 0.316430 0.977315
vt 0.354078 0.955350
vt 0.343315 0.973252
vt 0.362861 0.876715
vt 0.368154 0.787176
vt 0.382575 0.575242
vt 0.373002 0.693267
vt 0.386483 0.425768
vt 0.383483 0.309459
vt 0.382476 0.216254
vt 0.371133 0.046897
vt 0.377055 0.126296
vt 0.367195 0.028182
vt 0.235175 0.040699
vt 0.361246 0.007988
vt 0.054234 0.426357
vt 0.111765 0.310773
vt 0.054296 0.574365
vt 0.195287 0.124328
vt 0.142023 0.215463
vt 0.142981 0.878545
vt 0.380030 0.024140
vt 0.357041 0.977376
vt 0.466093 0.692130
vt 0.456204 0.787200
vt 0.426303 0.044522
vt 0.489862 0.040733
vt 0.445485 0.125408
vt 0.525292 0.124566
vt 0.469035 0.216313
vt 0.477779 0.310696
vt 0.573356 0.215787
vt 0.502560 0.426554
vt 0.648549 0.426807
vt 0.597963 0.311145
vt 0.496843 0.574731
vt 0.641000 0.574784
vt 0.584426 0.691666
vt 0.439582 0.877895
vt 0.562482 0.787337
vt 0.414981 0.958097
vt 0.493111 0.964869
vt 0.537506 0.878848
vt 0.336581 0.989478
vt 0.910755 0.476380
vt 0.740283 0.475756
vt 0.737572 0.122575
vt 0.914776 0.113801
vt 0.182209 0.964543
vt 0.907288 0.826065
vt 0.737571 0.813754
vt 0.741032 0.462342
vt 0.741243 0.469067
vt 0.912495 0.469056
vt 0.915270 0.461767
vt 0.740283 0.475756
vt 0.910755 0.476380
vt 0.737572 0.122575
vt 0.914776 0.113801
vt 0.737571 0.813754
vt 0.907288 0.826065
vn -0.000000 1.000000 0.000000
vn 0.839000 -0.498500 0.218200
vn -0.056600 -0.997000 -0.053800
vn 0.193200 -0.772600 -0.604700
vn 0.848300 -0.423400 -0.318000
vn 0.796800 -0.435900 0.418400
vn -0.008600 -0.999100 -0.040700
vn 0.625600 -0.388800 0.676400
vn 0.009800 -0.999600 -0.024800
vn 0.089800 -0.369400 0.924900
vn 0.011500 -0.999000 -0.043100
vn 0.017800 -0.999800 -0.002200
vn 0.351100 -0.365800 0.861900
vn -0.098200 -0.370300 0.923700
vn -0.010800 -0.998800 -0.047700
vn -0.336700 -0.364200 0.868400
vn -0.013600 -0.999900 -0.008000
vn -0.605800 -0.367900 0.705500
vn -0.005000 -0.999900 -0.014100
vn 0.631500 0.000300 -0.775400
vn 0.313000 0.000100 -0.949700
vn -0.865400 -0.418000 0.276400
vn 0.049500 -0.992700 -0.109800
vn 0.005400 -0.999600 -0.029100
vn -0.802300 -0.375700 0.463800
vn -0.914000 -0.343100 -0.216800
vn -0.263500 -0.715500 -0.647100
vn -0.864800 0.418200 0.277900
vn -0.913500 0.344900 -0.215700
vn -0.802000 0.375800 0.464300
vn -0.605400 0.368000 0.705700
vn -0.097700 0.370100 0.923900
vn -0.336100 0.364400 0.868500
vn 0.089400 0.369200 0.925100
vn 0.350400 0.366000 0.862100
vn 0.625000 0.388900 0.676800
vn 0.838500 0.498800 0.219300
vn 0.796300 0.436200 0.419100
vn 0.847900 0.424700 -0.317200
vn -0.853100 0.432100 -0.292500
vn -0.450300 0.590000 -0.670200
vn -0.066500 -0.000200 -0.997800
vn -0.324900 0.000100 -0.945700
vn 0.076700 -0.000200 -0.997100
vn -0.861600 0.000900 -0.507700
vn -0.647700 0.000200 -0.761900
vn 0.855300 0.000900 -0.518200
vn 0.193100 0.773800 -0.603300
vn -0.263500 0.717600 -0.644700
vn -0.011700 0.999900 -0.007400
vn -0.003900 0.999900 -0.013100
vn -0.056800 0.997100 -0.051300
vn -0.009100 0.999200 -0.038500
vn 0.008300 0.999700 -0.023400
vn 0.015700 0.999900 -0.001600
vn 0.010200 0.999000 -0.043000
vn -0.009500 0.998800 -0.047600
vn 0.005800 0.999600 -0.027100
vn 0.049900 0.993100 -0.106100
vn 0.838700 0.383700 -0.386500
vn 0.437000 0.467500 -0.768400
vn 0.000000 1.000000 0.000100
vn -0.853100 0.432100 -0.292600
vn 0.000000 -1.000000 -0.000000
vn -0.000000 -1.000000 -0.000100
vn -0.000000 -1.000000 -0.000200
usemtl Material.021
s 1
f 1/1/1 2/2/1 3/3/1 4/4/1
f 5/5/2 6/6/3 7/7/4 8/8/5
f 9/9/6 10/10/7 6/6/3 5/5/2
f 11/11/8 12/12/9 10/10/7 9/9/6
f 13/13/10 14/14/11 15/15/12 16/16/13
f 17/17/14 18/18/15 14/14/11 13/13/10
f 19/19/16 20/20/17 18/18/15 17/17/14
f 21/21/18 22/22/19 20/20/17 19/19/16
f 22/22/19 23/23/20 24/24/21 20/20/17
f 25/25/22 26/26/23 27/27/24 28/28/25
f 28/28/25 27/27/24 22/22/19 21/21/18
f 29/29/26 30/30/27 26/26/23 25/25/22
f 25/25/22 31/31/28 32/32/29 29/29/26
f 28/28/25 33/33/30 31/31/28 25/25/22
f 21/21/18 34/34/31 33/33/30 28/28/25
f 17/17/14 35/35/32 36/36/33 19/19/16
f 13/13/10 37/37/34 35/35/32 17/17/14
f 16/16/13 38/38/35 37/37/34 13/13/10
f 11/11/8 39/39/36 38/38/35 16/16/13
f 5/5/2 40/40/37 41/41/38 9/9/6
f 8/8/5 42/42/39 40/40/37 5/5/2
f 6/6/3 43/43/40 44/44/41 7/7/4
f 14/14/11 45/45/42 46/46/43 15/15/12
f 18/18/15 47/47/44 45/45/42 14/14/11
f 20/20/17 24/24/21 47/47/44 18/18/15
f 10/10/7 48/48/45 43/43/40 6/6/3
f 12/12/9 49/49/46 48/48/45 10/10/7
f 27/27/24 50/50/47 23/23/20 22/22/19
f 19/19/16 36/36/33 34/34/31 21/21/18
f 7/7/4 51/51/48 42/42/39 8/8/5
f 29/29/26 32/32/29 52/52/49 30/30/27
f 7/7/4 44/44/41 51/51/48
f 53/53/50 54/54/51 34/34/31 36/36/33
f 51/51/48 55/55/52 40/40/37 42/42/39
f 43/56/40 55/55/52 51/51/48 44/44/41
f 55/55/52 56/57/53 41/41/38 40/40/37
f 48/58/45 56/57/53 55/55/52 43/56/40
f 57/59/54 58/60/55 38/38/35 39/39/36
f 49/61/46 57/59/54 56/57/53 48/58/45
f 58/60/55 59/62/56 37/37/34 38/38/35
f 45/63/42 59/62/56 58/60/55 46/64/43
f 59/62/56 60/65/57 35/35/32 37/37/34
f 47/66/44 60/65/57 59/62/56 45/63/42
f 60/65/57 53/53/50 36/36/33 35/35/32
f 24/67/21 53/53/50 60/65/57 47/66/44
f 54/54/51 61/68/58 33/33/30 34/34/31
f 23/69/20 54/54/51 53/53/50 24/67/21
f 61/68/58 62/70/59 31/31/28 33/33/30
f 63/71/60 62/70/59 61/68/58 50/72/47
f 62/70/59 52/52/49 32/32/29 31/31/28
f 64/73/61 52/52/49 62/70/59 63/71/60
f 50/72/47 61/68/58 54/54/51 23/69/20
f 4/4/1 3/3/1 65/74/62 66/75/62
f 43/76/63 44/77/41 2/2/1 1/1/1
f 64/73/61 30/30/27 52/52/49
f 46/64/43 58/60/55 57/59/54 49/61/46
f 56/57/53 57/59/54 39/39/36 41/41/38
f 15/15/12 46/46/43 49/49/46 12/12/9
f 9/9/6 41/41/38 39/39/36 11/11/8
f 16/16/13 15/15/12 12/12/9 11/11/8
f 26/26/23 63/78/60 50/50/47 27/27/24
f 30/30/27 64/73/61 63/78/60 26/26/23
f 66/75/62 65/74/62 64/79/61 63/80/60
f 67/81/64 68/82/64 69/83/64 70/84/64
f 68/82/64 71/85/65 72/86/65 69/83/64
f 73/87/64 67/81/64 70/84/64 74/88/64
f 71/85/65 75/89/66 76/90/66 72/86/65
