# Blender v2.75 (sub 0) OBJ File: ''
# www.blender.org
mtllib Knife.mtl
o Cube.005
v -0.026452 0.197193 -0.002292
v -0.011618 0.186288 0.003239
v -0.039651 0.287745 0.000000
v -0.035281 0.246406 -0.001897
v -0.011637 0.186290 -0.003239
v -0.036258 -0.111805 -0.005399
v -0.036259 -0.111805 0.003832
v -0.033726 -0.095418 0.003378
v -0.033726 -0.095418 -0.004759
v -0.001422 0.016795 -0.000717
v -0.000937 0.044772 -0.001111
v -0.020614 0.043558 0.003946
v -0.018495 0.018241 0.004686
v -0.018466 0.018243 -0.004397
v -0.031124 0.021469 -0.000645
v -0.038926 0.041234 -0.001117
v -0.020614 0.043558 -0.003946
v -0.031898 -0.071139 0.002833
v -0.031898 -0.071139 -0.003992
v -0.019446 -0.133695 -0.007440
v -0.032483 -0.127392 -0.005424
v -0.019750 -0.117413 -0.008225
v -0.021410 -0.098102 -0.008717
v -0.020575 -0.072663 -0.008565
v -0.031673 -0.056020 -0.003866
v -0.019849 -0.055402 -0.009531
v -0.026587 0.115545 -0.001210
v -0.010525 0.116865 0.003887
v -0.032529 -0.127392 0.003849
v -0.031672 -0.056020 0.002744
v -0.031702 -0.045546 -0.004113
v -0.019699 -0.046014 -0.009794
v -0.037847 -0.006847 0.003306
v -0.018968 -0.009844 0.008857
v -0.020198 -0.001454 0.004377
v -0.029927 -0.001411 -0.000079
v -0.037788 -0.006843 -0.004709
v -0.019446 -0.133695 0.007440
v -0.019750 -0.117413 0.008225
v -0.021410 -0.098102 0.008717
v -0.020575 -0.072663 0.008565
v -0.019849 -0.055402 0.009531
v -0.019699 -0.046014 0.009840
v -0.031702 -0.045546 0.003030
v -0.033948 -0.029342 0.002668
v -0.039455 -0.020744 0.002098
v -0.039455 -0.020744 -0.005259
v -0.033947 -0.029342 -0.005621
v -0.018059 -0.028521 0.010165
v -0.019064 -0.020923 0.010611
v -0.002012 -0.029342 -0.005345
v 0.000562 -0.020744 -0.005297
v 0.000562 -0.020744 0.003972
v -0.002013 -0.029342 0.004490
v -0.019064 -0.020923 -0.010504
v -0.018059 -0.028521 -0.009854
v -0.036605 0.067604 -0.001154
v -0.018450 0.072893 0.003920
v -0.010525 0.116865 -0.003887
v -0.018450 0.072893 -0.003920
v 0.001453 0.177278 -0.002292
v -0.012093 0.229701 -0.001897
v -0.004295 -0.111805 -0.005399
v -0.009094 -0.095418 -0.004759
v -0.009094 -0.095418 0.003378
v -0.004296 -0.111805 0.003832
v -0.008946 -0.071139 -0.003992
v -0.008947 -0.071139 0.002833
v 0.000151 -0.013545 0.003306
v 0.000091 -0.013542 -0.004709
v -0.002238 -0.000599 -0.000261
v -0.006409 -0.127392 -0.005424
v -0.007111 -0.056020 -0.003866
v 0.005369 0.118017 -0.001210
v -0.006363 -0.127392 0.003849
v -0.007111 -0.056020 0.002744
v -0.006029 -0.045546 -0.004113
v -0.018968 -0.009844 -0.008857
v -0.006029 -0.045546 0.003030
v 0.000552 0.075180 -0.001154
v -0.020139 -0.001451 -0.003799
vt 0.728197 0.793130
vt 0.596826 0.767567
vt 0.778145 0.991738
vt 0.771520 0.901224
vt 0.370414 0.895442
vt 0.391583 0.985619
vt 0.189144 0.762717
vt 0.313519 0.787844
vt 0.511802 0.071593
vt 0.585047 0.073419
vt 0.578065 0.108429
vt 0.501513 0.107362
vt 0.570782 0.399078
vt 0.555465 0.459780
vt 0.732747 0.459121
vt 0.725257 0.403955
vt 0.311816 0.398899
vt 0.424940 0.407049
vt 0.482888 0.450828
vt 0.321042 0.453964
vt 0.562694 0.168346
vt 0.493756 0.167724
vt 0.391490 0.017309
vt 0.512977 0.036679
vt 0.377808 0.055687
vt 0.378342 0.100992
vt 0.369004 0.163947
vt 0.490731 0.205856
vt 0.361603 0.206975
vt 0.764078 0.616433
vt 0.617245 0.617392
vt 0.603404 0.038144
vt 0.555761 0.206282
vt 0.486548 0.231613
vt 0.359584 0.229479
vt 0.531482 0.301208
vt 0.661854 0.309030
vt 0.620602 0.327957
vt 0.514039 0.321516
vt 0.497338 0.300512
vt 0.721348 0.033435
vt 0.724900 0.062628
vt 0.705662 0.105731
vt 0.690813 0.167082
vt 0.688519 0.209448
vt 0.686430 0.231811
vt 0.554635 0.231808
vt 0.549374 0.268641
vt 0.532743 0.284901
vt 0.494142 0.284697
vt 0.481877 0.268056
vt 0.583697 0.016315
vt 0.715534 0.003729
vt 0.693779 0.271470
vt 0.680051 0.286583
vt 0.202807 0.271315
vt 0.199445 0.290545
vt 0.114914 0.292533
vt 0.110341 0.270192
vt 0.358929 0.284174
vt 0.347349 0.269251
vt 0.867960 0.513291
vt 0.702171 0.522729
vt 0.206240 0.612091
vt 0.347976 0.610831
vt 0.452447 0.507786
vt 0.291130 0.517466
vt 0.477125 0.746929
vt 0.568785 0.861885
vt 0.175742 0.856935
vt 0.078703 0.741936
vt 0.236285 0.065483
vt 0.249141 0.105099
vt 0.169535 0.105880
vt 0.152639 0.065696
vt 0.241672 0.167075
vt 0.173165 0.166062
vt 0.135117 0.310935
vt 0.210007 0.305354
vt 0.228004 0.338518
vt 0.256143 0.029755
vt 0.224253 0.205209
vt 0.472105 0.618126
vt 0.163709 0.027483
vt 0.159521 0.203436
vt 0.214991 0.231365
vt 0.370998 0.306554
vt 0.831787 0.234622
vt 0.847923 0.274768
vt 0.144600 0.229080
vt 0.840741 0.035246
vt 0.876398 0.073276
vt 0.831694 0.113514
vt 0.817383 0.172466
vt 0.828002 0.209203
vt 0.851780 0.013022
vt 0.858390 0.296200
vt 0.842479 0.313060
vt 0.530417 0.525664
vt 0.066019 0.613053
vt 0.123621 0.520600
vt 0.147877 0.454762
vt 0.899075 0.456317
vt 0.407093 0.326931
vt 0.788965 0.344542
vt 0.842445 0.412409
vt 0.840335 0.362663
vt 0.747397 0.361493
vt 0.161448 0.394097
vt 0.333220 0.356411
vt 0.424130 0.357327
vt 0.174513 0.356411
vt 0.585923 0.361406
vn -0.975600 -0.089100 -0.200700
vn 0.033900 0.043700 0.998500
vn -0.070400 0.980500 -0.183700
vn -0.966200 -0.135300 -0.219600
vn -0.010600 0.014000 -0.999800
vn -0.800800 -0.036300 -0.597800
vn -0.827900 -0.038400 0.559600
vn -0.820600 0.081800 0.565600
vn -0.792500 0.085600 -0.603800
vn 0.998600 -0.025700 -0.047300
vn 0.998300 0.009800 -0.058200
vn -0.029500 -0.000700 0.999600
vn -0.030800 -0.002000 0.999500
vn -0.031300 -0.024600 -0.999200
vn -0.993100 -0.102500 -0.056700
vn -0.996800 -0.056900 -0.056900
vn -0.018500 -0.008500 -0.999800
vn -0.849100 0.033200 0.527100
vn -0.826200 0.033600 -0.562400
vn 0.002400 -0.767700 -0.640800
vn -0.665900 -0.501700 -0.552200
vn 0.005000 -0.013400 -0.999900
vn -0.010100 0.026000 -0.999600
vn -0.005800 -0.003100 -1.000000
vn -0.843400 -0.005900 -0.537300
vn -0.011200 -0.037200 -0.999200
vn -0.989700 0.114700 -0.086000
vn 0.021300 0.009700 0.999700
vn -0.698900 -0.505300 0.506200
vn -0.863400 -0.005800 0.504400
vn -0.827200 -0.065200 -0.558200
vn -0.020500 -0.055400 -0.998300
vn -0.712100 0.440500 0.546700
vn 0.012100 0.276900 0.960800
vn -0.039800 0.274200 0.960800
vn -0.605900 0.795500 0.011000
vn -0.679500 0.469500 -0.563800
vn 0.003800 -0.751400 0.659800
vn 0.007000 -0.017000 0.999800
vn -0.013700 0.027800 0.999500
vn -0.006500 -0.006300 1.000000
vn -0.012500 -0.042300 0.999000
vn -0.041000 -0.053900 0.997700
vn -0.847800 -0.048500 0.528100
vn -0.782100 -0.244800 0.573000
vn -0.851700 -0.169500 0.495900
vn -0.811600 -0.154000 -0.563600
vn -0.716600 -0.256000 -0.648800
vn -0.011700 -0.081300 0.996600
vn -0.041600 -0.006000 0.999100
vn 0.767700 -0.207200 -0.606400
vn 0.805300 -0.054500 -0.590400
vn 0.827300 -0.044100 0.560000
vn 0.784800 -0.195100 0.588300
vn -0.003300 0.009400 -1.000000
vn 0.020800 -0.083100 -0.996300
vn -0.990300 0.124600 -0.061700
vn -0.019400 0.011400 0.999700
vn 0.010600 -0.000700 -0.999900
vn -0.010400 0.005400 -0.999900
vn 0.984000 0.125400 -0.126700
vn 0.922000 0.346700 -0.172300
vn 0.800900 0.057500 -0.596000
vn 0.773500 0.102200 -0.625400
vn 0.804600 0.099800 0.585400
vn 0.827700 0.058500 0.558100
vn 0.820000 -0.053200 -0.569900
vn 0.843100 -0.055400 0.534900
vn 0.787800 0.217300 0.576300
vn 0.757900 0.232000 -0.609700
vn 0.853000 0.521900 -0.004800
vn 0.693200 -0.470300 -0.546100
vn 0.832800 -0.097800 -0.544800
vn 0.995900 -0.032900 -0.084500
vn 0.725100 -0.472300 0.501100
vn 0.852100 -0.099200 0.513900
vn 0.807900 -0.148200 -0.570400
vn 0.026100 0.315000 -0.948700
vn 0.828000 -0.154500 0.539000
vn 0.992100 -0.108500 -0.063000
vn -0.027900 0.284600 -0.958200
usemtl Material.010
s 1
f 1/1/1 2/2/2 3/3/3 4/4/4
f 4/5/4 3/6/3 5/7/5 1/8/1
f 6/9/6 7/10/7 8/11/8 9/12/9
f 10/13/10 11/14/11 12/15/12 13/16/13
f 14/17/14 15/18/15 16/19/16 17/20/17
f 9/12/9 8/11/8 18/21/18 19/22/19
f 20/23/20 21/24/21 6/9/6 22/25/22
f 23/26/23 9/12/9 19/22/19 24/27/24
f 22/25/22 6/9/6 9/12/9 23/26/23
f 24/27/24 19/22/19 25/28/25 26/29/26
f 27/30/27 28/31/28 2/2/2 1/1/1
f 21/24/21 29/32/29 7/10/7 6/9/6
f 19/22/19 18/21/18 30/33/30 25/28/25
f 26/29/26 25/28/25 31/34/31 32/35/32
f 33/36/33 34/37/34 35/38/35 36/39/36
f 37/40/37 33/36/33 36/39/36
f 29/32/29 38/41/38 39/42/39 7/10/7
f 7/10/7 39/42/39 40/43/40 8/11/8
f 18/21/18 41/44/41 42/45/42 30/33/30
f 8/11/8 40/43/40 41/44/41 18/21/18
f 30/33/30 42/45/42 43/46/43 44/47/44
f 45/48/45 46/49/46 47/50/47 48/51/48
f 30/33/30 44/47/44 31/34/31 25/28/25
f 29/32/29 21/52/21 20/53/20 38/41/38
f 49/54/49 50/55/50 46/49/46 45/48/45
f 33/36/33 37/40/37 47/50/47 46/49/46
f 51/56/51 52/57/52 53/58/53 54/59/54
f 48/51/48 47/50/47 55/60/55 56/61/56
f 57/62/57 58/63/58 28/31/28 27/30/27
f 1/8/1 5/7/5 59/64/59 27/65/27
f 57/66/57 60/67/60 17/20/17 16/19/16
f 61/68/61 62/69/62 3/3/3 2/2/2
f 62/70/62 61/71/61 5/7/5 3/6/3
f 63/72/63 64/73/64 65/74/65 66/75/66
f 64/73/64 67/76/67 68/77/68 65/74/65
f 69/78/69 70/79/70 71/80/71
f 20/23/20 22/25/22 63/72/63 72/81/72
f 23/26/23 24/27/24 67/76/67 64/73/64
f 22/25/22 23/26/23 64/73/64 63/72/63
f 24/27/24 26/29/26 73/82/73 67/76/67
f 74/83/74 61/68/61 2/2/2 28/31/28
f 72/81/72 63/72/63 66/75/66 75/84/75
f 67/76/67 73/82/73 76/85/76 68/77/68
f 26/29/26 32/35/32 77/86/77 73/82/73
f 70/79/70 69/78/69 53/58/53 52/57/52
f 37/40/37 78/87/78 55/60/55 47/50/47
f 34/37/34 33/36/33 46/49/46 50/55/50
f 43/46/43 79/88/79 54/89/54 49/54/49
f 79/90/79 77/86/77 51/56/51 54/59/54
f 44/47/44 43/46/43 49/54/49 45/48/45
f 75/91/75 66/92/66 39/42/39 38/41/38
f 66/92/66 65/93/65 40/43/40 39/42/39
f 68/94/68 76/95/76 42/45/42 41/44/41
f 65/93/65 68/94/68 41/44/41 40/43/40
f 76/95/76 79/88/79 43/46/43 42/45/42
f 78/87/78 70/79/70 52/57/52 55/60/55
f 31/34/31 44/47/44 45/48/45 48/51/48
f 77/86/77 32/35/32 56/61/56 51/56/51
f 32/35/32 31/34/31 48/51/48 56/61/56
f 76/85/76 73/82/73 77/86/77 79/90/79
f 75/91/75 38/41/38 20/53/20 72/96/72
f 49/54/49 54/89/54 53/97/53 50/55/50
f 69/98/69 34/37/34 50/55/50 53/97/53
f 51/56/51 56/61/56 55/60/55 52/57/52
f 80/99/80 74/83/74 28/31/28 58/63/58
f 61/71/61 74/100/74 59/64/59 5/7/5
f 80/101/80 11/102/11 17/20/17 60/67/60
f 74/100/74 80/101/80 60/67/60 59/64/59
f 11/14/11 80/99/80 58/63/58 12/15/12
f 27/65/27 59/64/59 60/67/60 57/66/57
f 16/103/16 12/15/12 58/63/58 57/62/57
f 37/40/37 36/39/36 81/104/81 78/87/78
f 78/87/78 81/104/81 71/80/71 70/79/70
f 34/37/34 69/98/69 71/105/71 35/38/35
f 13/16/13 15/106/15 36/107/36 35/108/35
f 12/15/12 16/103/16 15/106/15 13/16/13
f 11/102/11 10/109/10 14/17/14 17/20/17
f 81/110/81 36/111/36 15/18/15 14/17/14
f 10/109/10 71/112/71 81/110/81 14/17/14
f 71/113/71 10/13/10 13/16/13 35/108/35
