# Blender v2.75 (sub 0) OBJ File: ''
# www.blender.org
mtllib Sword.mtl
o Cube.001
v 0.018779 0.735099 -0.002292
v 0.013375 0.772043 -0.001897
v 0.000000 0.830930 0.000000
v 0.000000 0.735099 0.003239
v 0.000000 0.735099 -0.003239
v 0.016506 -0.255395 -0.005399
v 0.016403 -0.222054 -0.004759
v 0.016402 -0.222054 0.003378
v 0.016505 -0.255395 0.003832
v 0.000000 -0.027818 0.004415
v 0.000000 -0.037751 0.005186
v 0.019597 -0.038295 0.002029
v 0.018781 -0.028368 -0.000327
v 0.000000 -0.027818 -0.004415
v 0.018747 -0.038284 -0.002859
v 0.000000 -0.037751 -0.005186
v 0.017434 -0.172656 -0.003992
v 0.017434 -0.172656 0.002833
v 0.000000 -0.299933 -0.007440
v 0.000000 -0.266805 -0.008225
v 0.015335 -0.287109 -0.005424
v 0.000000 -0.227516 -0.008717
v 0.000000 -0.175757 -0.008565
v 0.000000 -0.140637 -0.009531
v 0.018579 -0.141895 -0.003866
v 0.015335 -0.287109 0.003849
v 0.018578 -0.141895 0.002744
v 0.000000 -0.108432 -0.009794
v 0.019646 -0.107479 -0.004135
v 0.022867 -0.043812 -0.004272
v 0.000000 -0.043812 -0.006635
v 0.000000 -0.043812 0.007360
v 0.023717 -0.043812 0.004504
v 0.068826 -0.044653 0.005157
v 0.017013 -0.044653 0.013676
v 0.036677 -0.044653 0.012255
v 0.068826 -0.044653 -0.005180
v 0.068826 -0.053202 -0.005180
v 0.036677 -0.053202 -0.012474
v 0.036677 -0.044653 -0.012474
v 0.000000 -0.088033 -0.010547
v 0.000000 -0.059609 -0.009854
v 0.022867 -0.059609 -0.005674
v 0.020670 -0.083981 -0.004905
v 0.022867 -0.059609 0.004787
v 0.020670 -0.083981 0.003917
v 0.000000 -0.059609 0.010165
v 0.000000 -0.088033 0.010726
v 0.000000 -0.266805 0.008225
v 0.000000 -0.299933 0.007440
v 0.000000 -0.227516 0.008717
v 0.000000 -0.140637 0.009531
v 0.000000 -0.175757 0.008565
v 0.019646 -0.107479 0.003048
v 0.000000 -0.108432 0.009840
v 0.017013 -0.044653 -0.014136
v 0.000000 -0.044653 -0.014113
v 0.068826 -0.053202 0.005121
v 0.017013 -0.053202 0.013676
v 0.000000 -0.053202 0.014226
v 0.036677 -0.053202 0.012223
v 0.000000 -0.044653 0.014226
v 0.017013 -0.053202 -0.014136
v 0.000000 -0.053202 -0.014113
v -0.018779 0.735099 -0.002292
v -0.013375 0.772043 -0.001897
v -0.016506 -0.255395 -0.005399
v -0.016505 -0.255395 0.003832
v -0.016402 -0.222054 0.003378
v -0.016403 -0.222054 -0.004759
v -0.018781 -0.028368 -0.000327
v -0.019597 -0.038295 0.002029
v -0.018747 -0.038284 -0.002859
v -0.017434 -0.172656 0.002833
v -0.017434 -0.172656 -0.003992
v -0.015335 -0.287109 -0.005424
v -0.018579 -0.141895 -0.003866
v -0.015335 -0.287109 0.003849
v -0.018578 -0.141895 0.002744
v -0.019646 -0.107479 -0.004135
v -0.022867 -0.043812 -0.004272
v -0.023717 -0.043812 0.004504
v -0.068826 -0.044653 0.005157
v -0.036677 -0.044653 0.012255
v -0.017013 -0.044653 0.013676
v -0.068826 -0.044653 -0.005180
v -0.036677 -0.044653 -0.012474
v -0.036677 -0.053202 -0.012474
v -0.068826 -0.053202 -0.005180
v -0.020670 -0.083981 -0.004905
v -0.022867 -0.059609 -0.005674
v -0.020670 -0.083981 0.003917
v -0.022867 -0.059609 0.004787
v -0.019646 -0.107479 0.003048
v -0.017013 -0.044653 -0.014136
v -0.068826 -0.053202 0.005121
v -0.017013 -0.053202 0.013676
v -0.036677 -0.053202 0.012223
v -0.017013 -0.053202 -0.014136
vt 0.480872 0.873500
vt 0.453659 0.918449
vt 0.385733 0.990129
vt 0.385734 0.873387
vt 0.067719 0.918788
vt 0.041405 0.873940
vt 0.132681 0.873923
vt 0.132683 0.990327
vt 0.720326 0.773072
vt 0.720949 0.809376
vt 0.684788 0.809523
vt 0.680850 0.773324
vt 0.385750 0.022539
vt 0.385750 0.010373
vt 0.482462 0.009673
vt 0.480480 0.022130
vt 0.132680 0.022484
vt 0.038628 0.022066
vt 0.040760 0.009673
vt 0.132680 0.010289
vt 0.721324 0.864917
vt 0.690581 0.865008
vt 0.017195 0.010877
vt 0.783294 0.723734
vt 0.790041 0.760128
vt 0.717209 0.738720
vt 0.795465 0.802912
vt 0.802260 0.860756
vt 0.809108 0.900098
vt 0.722044 0.899638
vt 0.676330 0.739001
vt 0.692375 0.899697
vt 0.816792 0.936241
vt 0.724347 0.938563
vt 0.638344 0.604993
vt 0.627805 0.586505
vt 0.643658 0.578359
vt 0.668349 0.605069
vt 0.608973 0.585247
vt 0.594045 0.604714
vt 0.563071 0.604629
vt 0.591876 0.577367
vt 0.593482 0.516436
vt 0.542743 0.584958
vt 0.553097 0.559394
vt 0.568499 0.123477
vt 0.611042 0.123499
vt 0.610709 0.164512
vt 0.568166 0.164490
vt 0.822717 0.959037
vt 0.832004 0.990332
vt 0.730845 0.992724
vt 0.728046 0.965367
vt 0.684783 0.992724
vt 0.688143 0.965347
vt 0.582423 0.990210
vt 0.592485 0.959056
vt 0.608555 0.761292
vt 0.612147 0.734040
vt 0.607900 0.803669
vt 0.603994 0.900490
vt 0.608063 0.861332
vt 0.691780 0.938583
vt 0.598083 0.936444
vt 0.696188 0.584994
vt 0.702417 0.605150
vt 0.798494 0.573549
vt 0.800474 0.515347
vt 0.852630 0.515347
vt 0.850553 0.573554
vt 0.644891 0.516436
vt 0.613821 0.720926
vt 0.689344 0.729914
vt 0.568222 0.483122
vt 0.610765 0.483108
vt 0.611052 0.495923
vt 0.568510 0.495983
vt 0.875094 0.601453
vt 0.906741 0.580218
vt 0.912018 0.601467
vt 0.610213 0.417618
vt 0.610388 0.442147
vt 0.567845 0.442163
vt 0.567671 0.417636
vt 0.567520 0.396459
vt 0.610062 0.396440
vt 0.894474 0.555511
vt 0.532316 0.604533
vt 0.567796 0.210207
vt 0.567968 0.189040
vt 0.610510 0.189062
vt 0.610338 0.210228
vt 0.778767 0.601418
vt 0.741151 0.601404
vt 0.744245 0.580156
vt 0.757451 0.555552
vt 0.685155 0.559260
vt 0.290600 0.873500
vt 0.317808 0.918448
vt 0.197645 0.918788
vt 0.223960 0.873940
vt 0.864333 0.771796
vt 0.904659 0.771322
vt 0.907080 0.808003
vt 0.871124 0.808321
vt 0.291021 0.022130
vt 0.289039 0.009673
vt 0.224600 0.009673
vt 0.226732 0.022066
vt 0.913974 0.862909
vt 0.883646 0.863375
vt 0.248165 0.010877
vt 0.854618 0.737141
vt 0.895064 0.897554
vt 0.895615 0.736451
vt 0.924238 0.896909
vt 0.908843 0.935751
vt 0.641570 0.631694
vt 0.626928 0.623410
vt 0.607520 0.624320
vt 0.589327 0.632172
vt 0.583798 0.693498
vt 0.548212 0.649978
vt 0.540743 0.624208
vt 0.567093 0.296936
vt 0.567425 0.255923
vt 0.609968 0.255945
vt 0.609635 0.296957
vt 0.919338 0.961967
vt 0.933638 0.988921
vt 0.958158 0.960510
vt 0.979312 0.987066
vt 0.495619 0.961843
vt 0.479609 0.988401
vt 0.546835 0.737967
vt 0.532919 0.772829
vt 0.531706 0.809640
vt 0.526124 0.864396
vt 0.516786 0.898238
vt 0.505605 0.936078
vt 0.694723 0.625343
vt 0.798167 0.629302
vt 0.850226 0.629335
vt 0.851622 0.687543
vt 0.799465 0.687504
vt 0.635504 0.693877
vt 0.940499 0.934822
vt 0.536164 0.728692
vt 0.566989 0.309796
vt 0.609532 0.309773
vt 0.906492 0.622712
vt 0.609912 0.375263
vt 0.567369 0.375282
vt 0.567195 0.350755
vt 0.609737 0.350733
vt 0.893936 0.647410
vt 0.610167 0.231394
vt 0.567624 0.231373
vt 0.743996 0.622655
vt 0.756913 0.647268
vt 0.681009 0.651110
vn 0.992300 0.083000 -0.091600
vn 0.972600 0.193700 -0.128400
vn -0.000000 1.000000 0.006800
vn -0.000000 0.017600 0.999800
vn 0.000000 0.013900 -0.999900
vn 0.772400 -0.012900 -0.635000
vn 0.781600 -0.002600 -0.623800
vn 0.804700 -0.004200 0.593600
vn 0.799900 -0.013800 0.600000
vn -0.000000 0.082900 0.996600
vn 0.000000 0.292000 0.956400
vn 0.681600 0.456900 0.571500
vn 0.953300 0.300000 -0.033200
vn -0.000000 0.080700 -0.996700
vn 0.579400 0.347500 -0.737200
vn 0.000000 0.220800 -0.975300
vn 0.793600 -0.022600 -0.608000
vn 0.812100 -0.023200 0.583100
vn -0.000000 -0.795000 -0.606600
vn 0.000000 -0.009400 -1.000000
vn 0.750400 -0.342200 -0.565500
vn -0.000000 0.004000 -1.000000
vn -0.000000 -0.004200 -1.000000
vn 0.000000 -0.015100 -0.999900
vn 0.800800 -0.030500 -0.598200
vn 0.778500 -0.341500 0.526600
vn 0.816900 -0.030800 0.575900
vn 0.000000 -0.026700 -0.999600
vn 0.800400 -0.040000 -0.598100
vn 0.222300 0.948700 -0.225000
vn 0.000000 0.786500 -0.617600
vn 0.000000 0.827500 0.561500
vn 0.190300 0.965000 0.180700
vn 0.634000 0.582900 0.508200
vn 0.042600 0.665500 0.745200
vn 0.109700 0.659700 0.743500
vn 0.635100 0.584000 -0.505500
vn 0.663200 -0.543900 -0.514200
vn 0.142200 -0.449700 -0.881800
vn 0.115500 0.663500 -0.739200
vn -0.000000 -0.027800 -0.999600
vn 0.000000 -0.389300 -0.921100
vn 0.415500 -0.702600 -0.577700
vn 0.783400 -0.056900 -0.618900
vn 0.430600 -0.706100 0.562100
vn 0.799400 -0.059600 0.597800
vn -0.000000 -0.395800 0.918300
vn 0.000000 -0.034400 0.999400
vn 0.000000 -0.011400 0.999900
vn 0.000000 -0.781900 0.623400
vn -0.000000 0.001400 1.000000
vn 0.000000 -0.017000 0.999900
vn 0.000000 -0.006700 1.000000
vn 0.816200 -0.041600 0.576200
vn 0.000000 -0.031100 0.999500
vn 0.033900 0.664500 -0.746500
vn 0.000000 0.671700 -0.740800
vn 0.661500 -0.544900 0.515300
vn 0.084500 -0.399000 0.913000
vn 0.000000 -0.366000 0.930600
vn 0.133900 -0.462200 0.876600
vn 0.000000 0.661100 0.750300
vn 0.067800 -0.393700 -0.916700
vn 0.000000 -0.369200 -0.929400
vn -0.992300 0.083000 -0.091600
vn -0.972600 0.193700 -0.128400
vn -0.772400 -0.012900 -0.635000
vn -0.799900 -0.013800 0.600000
vn -0.804700 -0.004200 0.593600
vn -0.781600 -0.002600 -0.623800
vn -0.953300 0.300000 -0.033200
vn -0.681600 0.456900 0.571500
vn -0.579400 0.347500 -0.737200
vn -0.812100 -0.023200 0.583100
vn -0.793600 -0.022600 -0.608000
vn -0.750400 -0.342200 -0.565500
vn -0.800800 -0.030500 -0.598200
vn -0.778500 -0.341500 0.526600
vn -0.816900 -0.030800 0.575900
vn -0.800400 -0.040000 -0.598100
vn -0.222300 0.948700 -0.225000
vn -0.190300 0.965000 0.180700
vn -0.634000 0.582900 0.508200
vn -0.109700 0.659700 0.743500
vn -0.042600 0.665500 0.745200
vn -0.635100 0.584000 -0.505500
vn -0.115500 0.663500 -0.739200
vn -0.142200 -0.449700 -0.881800
vn -0.663200 -0.543900 -0.514200
vn -0.783400 -0.056900 -0.618900
vn -0.415500 -0.702600 -0.577700
vn -0.799400 -0.059600 0.597800
vn -0.430600 -0.706100 0.562100
vn -0.816200 -0.041600 0.576200
vn -0.033900 0.664500 -0.746500
vn -0.661500 -0.544900 0.515300
vn -0.084500 -0.399000 0.913000
vn -0.133900 -0.462200 0.876600
vn -0.067800 -0.393700 -0.916700
usemtl Material.002
s 1
f 1/1/1 2/2/2 3/3/3 4/4/4
f 2/5/2 1/6/1 5/7/5 3/8/3
f 6/9/6 7/10/7 8/11/8 9/12/9
f 10/13/10 11/14/11 12/15/12 13/16/13
f 14/17/14 13/18/13 15/19/15 16/20/16
f 7/10/7 17/21/17 18/22/18 8/11/8
f 12/23/12 15/19/15 13/18/13
f 1/6/1 13/18/13 14/17/14 5/7/5
f 19/24/19 20/25/20 6/9/6 21/26/21
f 22/27/22 23/28/23 17/21/17 7/10/7
f 20/25/20 22/27/22 7/10/7 6/9/6
f 23/28/23 24/29/24 25/30/25 17/21/17
f 13/16/13 1/1/1 4/4/4 10/13/10
f 21/26/21 6/9/6 9/12/9 26/31/26
f 17/21/17 25/30/25 27/32/27 18/22/18
f 24/29/24 28/33/28 29/34/29 25/30/25
f 16/35/16 15/36/15 30/37/30 31/38/31
f 12/39/12 11/40/11 32/41/32 33/42/33
f 15/36/15 12/39/12 33/42/33 30/37/30
f 34/43/34 33/42/33 35/44/35 36/45/36
f 37/46/37 38/47/38 39/48/39 40/49/40
f 41/50/41 42/51/42 43/52/43 44/53/44
f 44/53/44 43/52/43 45/54/45 46/55/46
f 46/55/46 45/54/45 47/56/47 48/57/48
f 26/31/26 9/12/9 49/58/49 50/59/50
f 9/12/9 8/11/8 51/60/51 49/58/49
f 18/22/18 27/32/27 52/61/52 53/62/53
f 8/11/8 18/22/18 53/62/53 51/60/51
f 27/32/27 54/63/54 55/64/55 52/61/52
f 31/38/31 30/37/30 56/65/56 57/66/57
f 43/67/43 38/68/38 58/69/58 45/70/45
f 33/42/33 34/43/34 37/71/37 30/37/30
f 54/63/54 46/55/46 48/57/48 55/64/55
f 29/34/29 44/53/44 46/55/46 54/63/54
f 28/33/28 41/50/41 44/53/44 29/34/29
f 27/32/27 25/30/25 29/34/29 54/63/54
f 26/31/26 50/59/50 19/72/19 21/73/21
f 34/74/34 58/75/58 38/76/38 37/77/37
f 47/78/47 45/70/45 59/79/59 60/80/60
f 59/81/59 61/82/61 36/83/36 35/84/35
f 35/84/35 62/85/62 60/86/60 59/81/59
f 58/75/58 34/74/34 36/83/36 61/82/61
f 45/70/45 58/69/58 61/87/61 59/79/59
f 33/42/33 32/41/32 62/88/62 35/44/35
f 57/89/57 56/90/56 63/91/63 64/92/64
f 56/90/56 40/49/40 39/48/39 63/91/63
f 43/67/43 42/93/42 64/94/64 63/95/63
f 38/68/38 43/67/43 63/95/63 39/96/39
f 30/37/30 37/71/37 40/97/40 56/65/56
f 65/98/65 4/4/4 3/3/3 66/99/66
f 66/100/66 3/8/3 5/7/5 65/101/65
f 67/102/67 68/103/68 69/104/69 70/105/70
f 10/13/10 71/106/71 72/107/72 11/14/11
f 14/17/14 16/20/16 73/108/73 71/109/71
f 70/105/70 69/104/69 74/110/74 75/111/75
f 72/112/72 71/109/71 73/108/73
f 65/101/65 5/7/5 14/17/14 71/109/71
f 19/24/19 76/113/76 67/102/67 20/25/20
f 22/27/22 70/105/70 75/111/75 23/28/23
f 20/25/20 67/102/67 70/105/70 22/27/22
f 23/28/23 75/111/75 77/114/77 24/29/24
f 71/106/71 10/13/10 4/4/4 65/98/65
f 76/113/76 78/115/78 68/103/68 67/102/67
f 75/111/75 74/110/74 79/116/79 77/114/77
f 24/29/24 77/114/77 80/117/80 28/33/28
f 16/35/16 31/38/31 81/118/81 73/119/73
f 72/120/72 82/121/82 32/41/32 11/40/11
f 73/119/73 81/118/81 82/121/82 72/120/72
f 83/122/83 84/123/84 85/124/85 82/121/82
f 86/125/86 87/126/87 88/127/88 89/128/89
f 41/50/41 90/129/90 91/130/91 42/51/42
f 90/129/90 92/131/92 93/132/93 91/130/91
f 92/133/92 48/57/48 47/56/47 93/134/93
f 78/135/78 50/59/50 49/58/49 68/136/68
f 68/136/68 49/58/49 51/60/51 69/137/69
f 74/138/74 53/62/53 52/61/52 79/139/79
f 69/137/69 51/60/51 53/62/53 74/138/74
f 79/139/79 52/61/52 55/64/55 94/140/94
f 31/38/31 57/66/57 95/141/95 81/118/81
f 91/142/91 93/143/93 96/144/96 89/145/89
f 82/121/82 81/118/81 86/146/86 83/122/83
f 94/140/94 55/64/55 48/57/48 92/133/92
f 80/117/80 94/147/94 92/131/92 90/129/90
f 28/33/28 80/117/80 90/129/90 41/50/41
f 79/116/79 94/147/94 80/117/80 77/114/77
f 78/135/78 76/148/76 19/72/19 50/59/50
f 83/149/83 86/125/86 89/128/89 96/150/96
f 47/78/47 60/80/60 97/151/97 93/143/93
f 97/152/97 85/153/85 84/154/84 98/155/98
f 85/153/85 97/152/97 60/86/60 62/85/62
f 96/150/96 98/155/98 84/154/84 83/149/83
f 93/143/93 97/151/97 98/156/98 96/144/96
f 82/121/82 85/124/85 62/88/62 32/41/32
f 57/89/57 64/92/64 99/157/99 95/158/95
f 95/158/95 99/157/99 88/127/88 87/126/87
f 91/142/91 99/159/99 64/94/64 42/93/42
f 89/145/89 88/160/88 99/159/99 91/142/91
f 81/118/81 95/141/95 87/161/87 86/146/86
