# This file uses centimeters as units for non-parametric coordinates.

mtllib wall_down1.mtl
g default
v 0.000000 -1.025878 0.000000
v 0.000000 1.659484 0.000000
v 0.000000 0.894730 1.201267
v 0.000000 0.236683 1.642783
v 0.000000 -1.025878 2.034613
v 0.000000 0.236683 2.034613
v 8.000000 -1.025878 0.000000
v 8.000000 1.659484 0.000000
v 8.000000 0.894730 1.201267
v 8.000000 0.247586 1.642783
v 8.000000 -1.025878 2.046684
v 8.000000 0.247586 2.046684
v 0.000000 1.757181 0.628886
v 0.000000 1.666500 0.823653
v 8.000000 1.666500 0.823653
v 8.000000 1.757181 0.628886
vt 0.118509 0.911932
vt 0.110419 0.927394
vt 0.106416 0.929128
vt 0.093703 0.926801
vt 0.127830 0.898810
vt 0.095164 0.872288
vt 0.136468 0.873389
vt 0.135786 0.899021
vt 0.065874 0.911156
vt 0.090277 0.926676
vt 0.077506 0.928666
vt 0.073550 0.926827
vt 0.056903 0.898017
vt 0.090254 0.872141
vt 0.048700 0.898021
vt 0.048689 0.872159
vt 0.330295 0.930056
vt 0.330295 0.942982
vt 0.167827 0.942822
vt 0.167827 0.929859
vt 0.330295 0.908244
vt 0.330295 0.925693
vt 0.167827 0.925483
vt 0.167827 0.907983
vt 0.330295 0.892334
vt 0.167827 0.891842
vt 0.330295 0.884132
vt 0.167827 0.883861
vt 0.330295 0.858269
vt 0.167827 0.858145
vt 0.330295 0.816705
vt 0.167827 0.816705
vt 0.330295 0.997517
vt 0.167827 0.997517
vn -0.314313 0.473260 0.822941
vn -0.067441 0.551709 0.831305
vn -0.087717 0.996109 -0.008485
vn -0.075067 0.219790 -0.972655
vn -0.504161 0.681881 0.529962
vn -0.314313 0.473260 0.822941
vn -0.075067 0.219790 -0.972655
vn -0.075999 -0.603291 -0.793892
vn -0.075999 -0.603291 -0.793892
vn -0.080177 -0.846870 0.525721
vn -0.144271 0.296273 0.944144
vn -0.504161 0.681881 0.529962
vn 0.314039 0.473306 0.823020
vn 0.074886 0.219793 -0.972668
vn 0.087717 0.996109 -0.008485
vn 0.067441 0.551709 0.831305
vn 0.504936 0.681349 0.529909
vn 0.076213 -0.603281 -0.793879
vn 0.074886 0.219793 -0.972668
vn 0.314039 0.473306 0.823020
vn 0.076213 -0.603281 -0.793879
vn 0.504936 0.681349 0.529909
vn 0.143544 0.296254 0.944261
vn 0.080184 -0.846417 0.526450
vn 0.087717 0.996109 -0.008485
vn 0.074886 0.219793 -0.972668
vn -0.075067 0.219790 -0.972655
vn -0.087717 0.996109 -0.008485
vn 0.314039 0.473306 0.823020
vn 0.067441 0.551709 0.831305
vn -0.067441 0.551709 0.831305
vn -0.314313 0.473260 0.822941
vn 0.504936 0.681349 0.529909
vn 0.314039 0.473306 0.823020
vn -0.314313 0.473260 0.822941
vn -0.504161 0.681881 0.529962
vn 0.143544 0.296254 0.944261
vn 0.504936 0.681349 0.529909
vn -0.504161 0.681881 0.529962
vn -0.144271 0.296273 0.944144
vn 0.080184 -0.846417 0.526450
vn 0.143544 0.296254 0.944261
vn -0.144271 0.296273 0.944144
vn -0.080177 -0.846870 0.525721
vn 0.076213 -0.603281 -0.793879
vn 0.080184 -0.846417 0.526450
vn -0.080177 -0.846870 0.525721
vn -0.075999 -0.603291 -0.793892
vn 0.074886 0.219793 -0.972668
vn 0.076213 -0.603281 -0.793879
vn -0.075999 -0.603291 -0.793892
vn -0.075067 0.219790 -0.972655
vn -0.067441 0.551709 0.831305
vn 0.067441 0.551709 0.831305
vn 0.087717 0.996109 -0.008485
vn -0.087717 0.996109 -0.008485
s off
g wall_down1
usemtl blinn10SG
f 3/1/1 14/2/2 13/3/3 2/4/4
f 4/5/5 3/1/6 2/4/7 1/6/8
f 1/6/9 5/7/10 6/8/11 4/5/12
f 9/9/13 8/10/14 16/11/15 15/12/16
f 10/13/17 7/14/18 8/10/19 9/9/20
f 7/14/21 10/13/22 12/15/23 11/16/24
f 16/17/25 8/18/26 2/19/27 13/20/28
f 9/21/29 15/22/30 14/23/31 3/24/32
f 10/25/33 9/21/34 3/24/35 4/26/36
f 12/27/37 10/25/38 4/26/39 6/28/40
f 11/29/41 12/27/42 6/28/43 5/30/44
f 7/31/45 11/29/46 5/30/47 1/32/48
f 8/18/49 7/33/50 1/34/51 2/19/52
f 14/23/53 15/22/54 16/17/55 13/20/56
