# This file uses centimeters as units for non-parametric coordinates.

mtllib wall_down3.mtl
g default
v 0.000004 0.039187 2.055864
v 0.000004 0.067599 1.612879
v 0.000000 -1.183221 0.000000
v 0.000004 -1.136338 2.039173
v 0.000004 0.815341 1.118105
v 0.000000 1.449265 0.000000
v 1.934204 0.040356 4.000000
v 2.425224 0.068768 4.000000
v 4.000004 -1.182052 4.000000
v 1.950897 -1.135169 4.000000
v 2.883881 0.816510 4.000000
v 4.000004 1.450435 4.000000
v 1.184620 0.069111 1.695326
v 1.061047 0.040650 2.170155
v 1.064480 -1.134873 2.153952
v 1.456718 -1.181619 0.162573
v 1.457813 1.450867 0.170113
v 1.284786 0.816861 1.215559
v 1.935490 0.068764 2.088989
v 1.581150 0.040352 2.506107
v 1.592308 -1.135173 2.494640
v 2.989117 -1.182058 0.995411
v 2.986923 1.450427 1.002695
v 2.250538 0.816508 1.731270
v 2.336880 0.068420 2.834694
v 1.809834 0.040056 2.956516
v 1.825924 -1.135470 2.953875
v 3.852448 -1.182493 2.517292
v 3.846375 1.449993 2.520859
v 2.778744 0.816155 2.694405
v 0.000004 1.327613 0.932564
v 0.000004 1.451882 0.751919
v 1.368614 1.328691 1.040077
v 1.399765 1.453308 0.862566
v 2.398949 1.327786 1.637447
v 2.514973 1.452796 1.510586
v 2.967354 1.327828 2.740652
v 3.131062 1.452533 2.707548
v 3.240635 1.453051 4.000000
v 3.074219 1.328782 4.000000
vt 0.887365 0.894712
vt 0.891559 0.908870
vt 0.864448 0.909790
vt 0.859329 0.901732
vt 0.890201 0.940098
vt 0.863771 0.933337
vt 0.863464 0.770929
vt 0.868360 0.836971
vt 0.832894 0.843583
vt 0.825090 0.775674
vt 0.873084 0.854634
vt 0.841120 0.863584
vt 0.844550 0.869080
vt 0.875509 0.859653
vt 0.881572 0.872531
vt 0.850293 0.882284
vt 0.955925 0.903179
vt 0.951196 0.909899
vt 0.923687 0.908748
vt 0.927546 0.895540
vt 0.951857 0.933389
vt 0.924998 0.940348
vt 0.993615 0.778196
vt 0.984011 0.845727
vt 0.949052 0.838559
vt 0.956080 0.772552
vt 0.975353 0.865134
vt 0.941201 0.854213
vt 0.938417 0.859474
vt 0.971673 0.870732
vt 0.965596 0.883665
vt 0.935122 0.873246
vt 0.906158 0.908666
vt 0.907485 0.892941
vt 0.906094 0.941443
vt 0.908767 0.834636
vt 0.909939 0.768752
vt 0.907867 0.851024
vt 0.907595 0.856089
vt 0.908446 0.869693
vt 0.727254 0.936722
vt 0.715373 0.956088
vt 0.687607 0.973109
vt 0.685325 0.906445
vt 0.737005 0.905864
vt 0.738448 0.935618
vt 0.711117 0.969222
vt 0.706650 0.972525
vt 0.793330 0.961064
vt 0.782194 0.941826
vt 0.822894 0.911161
vt 0.821193 0.977842
vt 0.801957 0.977418
vt 0.797822 0.974164
vt 0.769774 0.940786
vt 0.770960 0.911020
vt 0.947519 0.987864
vt 0.907914 0.994741
vt 0.867936 0.988733
vt 0.979396 0.973076
vt 0.835770 0.973058
vn -0.664237 0.726274 0.176959
vn -0.860636 0.466209 0.204828
vn -0.569029 0.267718 0.777517
vn -0.188809 0.216158 0.957929
vn -0.860636 0.466209 0.204828
vn -0.328578 -0.941127 0.079473
vn -0.363731 -0.794849 0.485711
vn -0.569029 0.267718 0.777517
vn 0.844027 -0.454196 -0.285175
vn 0.925472 0.214846 -0.311997
vn 0.925527 0.230302 0.300601
vn 0.797514 -0.505665 0.329051
vn 0.925472 0.214846 -0.311997
vn -0.096429 0.994980 0.026755
vn -0.107765 0.939860 0.324115
vn 0.925527 0.230302 0.300601
vn -0.762244 0.430735 0.483168
vn -0.838839 0.496577 0.223069
vn -0.862096 0.442363 0.247194
vn -0.345425 0.174721 0.922038
vn -0.862096 0.442363 0.247194
vn -0.664237 0.726274 0.176959
vn -0.188809 0.216158 0.957929
vn -0.345425 0.174721 0.922038
vn -0.956669 0.219475 0.191351
vn -0.770342 0.246600 0.588015
vn -0.246283 0.442951 0.862055
vn -0.174779 0.732583 0.657857
vn -0.770342 0.246600 0.588015
vn -0.479878 -0.792593 0.376183
vn -0.095142 -0.938608 0.331606
vn -0.246283 0.442951 0.862055
vn -0.328970 -0.503394 -0.798983
vn -0.301904 0.232157 -0.924639
vn 0.309931 0.212267 -0.926761
vn 0.281350 -0.463625 -0.840175
vn -0.301904 0.232157 -0.924639
vn -0.323522 0.939307 0.114173
vn -0.027320 0.994886 0.097235
vn 0.309931 0.212267 -0.926761
vn -0.242855 0.519556 0.819197
vn -0.458012 0.451444 0.765783
vn -0.922627 0.179906 0.341164
vn -0.226714 0.459976 0.858500
vn -0.922627 0.179906 0.341164
vn -0.956669 0.219475 0.191351
vn -0.174779 0.732583 0.657857
vn -0.226714 0.459976 0.858500
vn -0.174779 0.732583 0.657857
vn -0.246283 0.442951 0.862055
vn -0.617023 0.523475 0.587585
vn -0.499090 0.707959 0.499703
vn -0.246283 0.442951 0.862055
vn -0.095142 -0.938608 0.331606
vn -0.185015 -0.966829 0.176099
vn -0.617023 0.523475 0.587585
vn 0.281350 -0.463625 -0.840175
vn 0.309931 0.212267 -0.926761
vn 0.688636 0.189807 -0.699824
vn 0.644955 -0.391685 -0.656214
vn 0.309931 0.212267 -0.926761
vn -0.027320 0.994886 0.097235
vn -0.064441 0.995969 0.062390
vn 0.688636 0.189807 -0.699824
vn -0.625644 0.510339 0.590020
vn -0.242855 0.519556 0.819197
vn -0.226714 0.459976 0.858500
vn -0.630229 0.443516 0.637264
vn -0.226714 0.459976 0.858500
vn -0.174779 0.732583 0.657857
vn -0.499090 0.707959 0.499703
vn -0.630229 0.443516 0.637264
vn -0.499090 0.707959 0.499703
vn -0.617023 0.523475 0.587585
vn -0.860636 0.466209 0.204828
vn -0.664237 0.726274 0.176959
vn -0.617023 0.523475 0.587585
vn -0.185015 -0.966829 0.176099
vn -0.328578 -0.941127 0.079473
vn -0.860636 0.466209 0.204828
vn 0.688636 0.189807 -0.699824
vn -0.064441 0.995969 0.062390
vn -0.096429 0.994980 0.026755
vn 0.925472 0.214846 -0.311997
vn -0.838839 0.496577 0.223069
vn -0.625644 0.510339 0.590020
vn -0.630229 0.443516 0.637264
vn -0.862096 0.442363 0.247194
vn -0.630229 0.443516 0.637264
vn -0.499090 0.707959 0.499703
vn -0.664237 0.726274 0.176959
vn -0.862096 0.442363 0.247194
vn 0.925472 0.214846 -0.311997
vn 0.844027 -0.454196 -0.285175
vn 0.644955 -0.391685 -0.656214
vn 0.688636 0.189807 -0.699824
vn -0.323522 0.939307 0.114173
vn -0.458012 0.451444 0.765783
vn -0.242855 0.519556 0.819197
vn -0.027320 0.994886 0.097235
vn -0.027320 0.994886 0.097235
vn -0.242855 0.519556 0.819197
vn -0.625644 0.510339 0.590020
vn -0.064441 0.995969 0.062390
vn -0.064441 0.995969 0.062390
vn -0.625644 0.510339 0.590020
vn -0.838839 0.496577 0.223069
vn -0.096429 0.994980 0.026755
vn -0.096429 0.994980 0.026755
vn -0.838839 0.496577 0.223069
vn -0.762244 0.430735 0.483168
vn -0.107765 0.939860 0.324115
vn -0.956669 0.219475 0.191351
vn -0.922627 0.179906 0.341164
vn -0.301904 0.232157 -0.924639
vn -0.328970 -0.503394 -0.798983
vn -0.956669 0.219475 0.191351
vn -0.328970 -0.503394 -0.798983
vn -0.479878 -0.792593 0.376183
vn -0.770342 0.246600 0.588015
vn -0.301904 0.232157 -0.924639
vn -0.922627 0.179906 0.341164
vn -0.458012 0.451444 0.765783
vn -0.323522 0.939307 0.114173
vn -0.345425 0.174721 0.922038
vn -0.188809 0.216158 0.957929
vn 0.797514 -0.505665 0.329051
vn 0.925527 0.230302 0.300601
vn -0.345425 0.174721 0.922038
vn 0.925527 0.230302 0.300601
vn -0.107765 0.939860 0.324115
vn -0.762244 0.430735 0.483168
vn 0.797514 -0.505665 0.329051
vn -0.188809 0.216158 0.957929
vn -0.569029 0.267718 0.777517
vn -0.363731 -0.794849 0.485711
vn -0.185015 -0.966829 0.176099
vn -0.095142 -0.938608 0.331606
vn 0.281350 -0.463625 -0.840175
vn 0.644955 -0.391685 -0.656214
vn -0.328578 -0.941127 0.079473
vn -0.185015 -0.966829 0.176099
vn 0.644955 -0.391685 -0.656214
vn 0.844027 -0.454196 -0.285175
vn -0.095142 -0.938608 0.331606
vn -0.479878 -0.792593 0.376183
vn -0.328970 -0.503394 -0.798983
vn 0.281350 -0.463625 -0.840175
vn -0.363731 -0.794849 0.485711
vn -0.328578 -0.941127 0.079473
vn 0.844027 -0.454196 -0.285175
vn 0.797514 -0.505665 0.329051
s off
g wall_down3
usemtl blinn10SG
f 25/1/1 26/2/2 7/3/3 8/4/4
f 26/2/5 27/5/6 10/6/7 7/3/8
f 28/7/9 29/8/10 12/9/11 9/10/12
f 29/8/13 38/11/14 39/12/15 12/9/16
f 40/13/17 37/14/18 30/15/19 11/16/20
f 30/15/21 25/1/22 8/4/23 11/16/24
f 2/17/25 1/18/26 14/19/27 13/20/28
f 1/18/29 4/21/30 15/22/31 14/19/32
f 3/23/33 6/24/34 17/25/35 16/26/36
f 6/24/37 32/27/38 34/28/39 17/25/40
f 33/29/41 31/30/42 5/31/43 18/32/44
f 5/31/45 2/17/46 13/20/47 18/32/48
f 13/20/49 14/19/50 20/33/51 19/34/52
f 14/19/53 15/22/54 21/35/55 20/33/56
f 16/26/57 17/25/58 23/36/59 22/37/60
f 17/25/61 34/28/62 36/38/63 23/36/64
f 35/39/65 33/29/66 18/32/67 24/40/68
f 18/32/69 13/20/70 19/34/71 24/40/72
f 19/34/73 20/33/74 26/2/75 25/1/76
f 20/33/77 21/35/78 27/5/79 26/2/80
f 23/36/81 36/38/82 38/11/83 29/8/84
f 37/14/85 35/39/86 24/40/87 30/15/88
f 24/40/89 19/34/90 25/1/91 30/15/92
f 29/8/93 28/7/94 22/37/95 23/36/96
f 32/27/97 31/30/98 33/29/99 34/28/100
f 34/28/101 33/29/102 35/39/103 36/38/104
f 36/38/105 35/39/106 37/14/107 38/11/108
f 38/11/109 37/14/110 40/13/111 39/12/112
f 2/41/113 5/42/114 6/43/115 3/44/116
f 2/41/117 3/44/118 4/45/119 1/46/120
f 6/43/121 5/42/122 31/47/123 32/48/124
f 11/49/125 8/50/126 9/51/127 12/52/128
f 11/49/129 12/52/130 39/53/131 40/54/132
f 9/51/133 8/50/134 7/55/135 10/56/136
f 21/35/137 15/22/138 16/57/139 22/58/140
f 27/5/141 21/35/142 22/58/143 28/59/144
f 15/22/145 4/21/146 3/60/147 16/57/148
f 10/6/149 27/5/150 28/59/151 9/61/152
