# This file uses centimeters as units for non-parametric coordinates.

mtllib wall_up2.mtl
g default
v 4.000000 0.000000 -4.000000
v 4.185631 3.441230 -4.000000
v 5.037899 3.472682 -4.000000
v 5.428734 3.201057 -4.000000
v 4.000000 3.096176 -4.000000
v 5.424381 2.754511 -4.000000
v 4.992443 2.366271 -4.000000
v 4.767818 1.770719 -4.000000
v 4.684746 1.164053 -4.000000
v 0.000000 0.000000 0.000000
v 0.000000 3.441230 0.175586
v 0.000000 3.472682 1.027855
v 0.000000 3.201057 1.418692
v 0.000000 3.096176 0.000000
v 0.000000 2.754511 1.414337
v 0.000000 2.366271 0.982399
v 0.000000 1.770719 0.757775
v 0.000000 1.164053 0.674704
v 4.681904 1.105406 -2.645477
v 4.712288 1.770719 -2.652157
v 4.957779 2.307423 -2.620253
v 5.405006 2.735376 -2.594688
v 5.369438 3.201057 -2.603305
v 4.980827 3.472682 -2.632195
v 4.133415 3.441230 -2.695191
v 3.961391 3.096176 -2.707980
v 3.943783 0.000000 -2.707980
v 4.351032 1.133289 -1.357531
v 4.388958 1.770719 -1.367069
v 4.635765 2.321166 -1.255222
v 5.071789 2.709303 -1.093505
v 5.034180 3.222133 -1.114095
v 4.638447 3.472682 -1.273158
v 3.851162 3.441230 -1.569509
v 3.691349 3.096176 -1.629668
v 3.691349 0.000000 -1.629668
v 3.631840 1.164053 -0.376950
v 3.689419 1.770719 -0.319323
v 3.845116 2.366271 -0.163499
v 4.180939 2.728438 0.172462
v 4.182220 3.222133 0.162319
v 3.876621 3.472682 -0.131967
v 3.285889 3.441230 -0.723188
v 3.165970 3.096176 -0.843207
v 3.165970 0.000000 -0.843207
v 2.612091 1.164053 0.302705
v 2.640936 1.770719 0.379461
v 2.712946 2.342453 0.595140
v 2.905348 2.728438 1.022429
v 2.885149 3.231876 1.048593
v 2.734715 3.472682 0.629007
v 2.438787 3.441230 -0.158463
v 2.378714 3.096176 -0.318320
v 2.378714 0.000000 -0.318320
v 1.349293 1.164053 0.619735
v 1.355421 1.770719 0.702335
v 1.359192 2.311235 0.922372
v 1.403873 2.754511 1.355168
v 1.418919 3.231876 1.417963
v 1.375351 3.472682 0.970881
v 1.312462 3.441230 0.123453
v 1.299694 3.096176 -0.048576
v 1.299694 0.000000 -0.061909
v 4.508724 -0.127844 -3.973409
v 4.885727 0.284056 -4.000000
v 4.455524 -0.127844 -2.606013
v 4.893234 0.208058 -2.623845
v 4.156704 -0.127844 -1.428572
v 4.591042 0.197988 -1.275980
v 3.524502 -0.127844 -0.484313
v 3.800587 0.274136 -0.207064
v 2.579544 -0.127844 0.147230
v 2.679264 0.290509 0.444785
v 1.401651 -0.127844 0.445642
v 1.364122 0.284134 0.819558
v 0.000000 0.284056 0.875685
v 0.048618 -0.127844 0.498756
vt 0.646876 0.787588
vt 0.642973 0.794571
vt 0.625564 0.794933
vt 0.617674 0.789259
vt 0.617911 0.780142
vt 0.626859 0.772358
vt 0.631644 0.760273
vt 0.633545 0.747914
vt 0.647916 0.724381
vt 0.629739 0.729881
vt 0.561807 0.720333
vt 0.572003 0.717774
vt 0.579657 0.726222
vt 0.561485 0.783547
vt 0.590439 0.785847
vt 0.582429 0.791349
vt 0.565032 0.790612
vt 0.590399 0.776727
vt 0.581622 0.768751
vt 0.577098 0.756566
vt 0.575464 0.744170
vt 0.334902 0.707939
vt 0.334902 0.689653
vt 0.362114 0.690053
vt 0.362105 0.708386
vt 0.361588 0.720868
vt 0.334902 0.720237
vt 0.360316 0.732791
vt 0.334902 0.733321
vt 0.359336 0.745545
vt 0.334902 0.745841
vt 0.359602 0.755474
vt 0.334902 0.756051
vt 0.361001 0.765850
vt 0.334902 0.766769
vt 0.364131 0.782957
vt 0.334902 0.784337
vt 0.365146 0.790738
vt 0.334902 0.791613
vt 0.365917 0.853832
vt 0.334902 0.853832
vt 0.364484 0.668235
vt 0.364590 0.679011
vt 0.334902 0.678296
vt 0.334902 0.668235
vt 0.465507 0.708121
vt 0.465282 0.689546
vt 0.492646 0.690111
vt 0.492646 0.708555
vt 0.492646 0.720768
vt 0.466045 0.721571
vt 0.492646 0.733711
vt 0.466841 0.733607
vt 0.492646 0.746114
vt 0.468193 0.746306
vt 0.492646 0.756170
vt 0.468170 0.756015
vt 0.492646 0.766757
vt 0.466642 0.765769
vt 0.492646 0.784264
vt 0.463536 0.782919
vt 0.492646 0.791607
vt 0.462535 0.790720
vt 0.492646 0.853832
vt 0.461766 0.853832
vt 0.492646 0.668235
vt 0.492646 0.678580
vt 0.463164 0.678758
vt 0.463276 0.668235
vt 0.438452 0.709044
vt 0.438850 0.689702
vt 0.439231 0.721843
vt 0.439673 0.734045
vt 0.440745 0.745740
vt 0.440723 0.755635
vt 0.439768 0.765203
vt 0.437485 0.782080
vt 0.436738 0.790170
vt 0.436214 0.853832
vt 0.437633 0.678752
vt 0.437239 0.668235
vt 0.413567 0.709369
vt 0.413818 0.690653
vt 0.413643 0.721709
vt 0.413623 0.734331
vt 0.413739 0.745900
vt 0.413912 0.755367
vt 0.413798 0.764863
vt 0.413823 0.781738
vt 0.413835 0.789963
vt 0.413853 0.853832
vt 0.413717 0.679251
vt 0.413715 0.668235
vt 0.388569 0.708768
vt 0.388962 0.690412
vt 0.388192 0.721276
vt 0.387290 0.733636
vt 0.386962 0.745507
vt 0.386450 0.755273
vt 0.387849 0.765138
vt 0.390172 0.782061
vt 0.390934 0.790167
vt 0.391490 0.853832
vt 0.389945 0.679441
vt 0.390340 0.668235
vt 0.637575 0.721600
vn -0.969776 0.053570 -0.238045
vn -0.311479 0.895208 -0.318723
vn 0.192284 0.930490 -0.311794
vn 0.823110 0.449714 -0.346766
vn -0.969776 0.053570 -0.238045
vn 0.823110 0.449714 -0.346766
vn 0.848383 -0.409797 -0.335132
vn -0.969776 0.053570 -0.238045
vn 0.848383 -0.409797 -0.335132
vn 0.728756 -0.514544 -0.451839
vn 0.572896 -0.140272 -0.807535
vn 0.631019 0.059737 -0.773464
vn -0.967865 -0.155838 -0.197364
vn -0.969776 0.053570 -0.238045
vn -0.969776 0.053570 -0.238045
vn 0.728756 -0.514544 -0.451839
vn 0.572896 -0.140272 -0.807535
vn -0.967865 -0.155838 -0.197364
vn 0.631019 0.059737 -0.773464
vn 0.955808 -0.132242 -0.262569
vn -0.199332 -0.150417 -0.968319
vn -0.110359 -0.940456 0.321503
vn -0.231846 -0.117065 0.965683
vn -0.240562 0.051592 -0.969262
vn -0.357460 0.433722 0.827108
vn -0.310352 0.933959 0.177209
vn -0.315307 0.895765 -0.313348
vn -0.240562 0.051592 -0.969262
vn -0.317242 -0.438742 0.840752
vn -0.357460 0.433722 0.827108
vn -0.240562 0.051592 -0.969262
vn -0.439610 -0.505326 0.742556
vn -0.317242 -0.438742 0.840752
vn -0.807011 -0.149128 0.571397
vn -0.240562 0.051592 -0.969262
vn -0.199332 -0.150417 -0.968319
vn -0.769208 0.050756 0.636980
vn -0.240562 0.051592 -0.969262
vn -0.807011 -0.149128 0.571397
vn -0.439610 -0.505326 0.742556
vn -0.769208 0.050756 0.636980
vn -0.231846 -0.117065 0.965683
vn 0.143653 -0.119095 0.982436
vn 0.146745 0.072809 0.986491
vn 0.146745 0.072809 0.986491
vn 0.136633 -0.255771 0.957033
vn -0.807011 -0.149128 0.571397
vn -0.769208 0.050756 0.636980
vn 0.136633 -0.255771 0.957033
vn 0.109292 -0.569674 0.814572
vn -0.439610 -0.505326 0.742556
vn -0.807011 -0.149128 0.571397
vn 0.109292 -0.569674 0.814572
vn 0.115666 -0.459427 0.880652
vn -0.317242 -0.438742 0.840752
vn -0.439610 -0.505326 0.742556
vn 0.115666 -0.459427 0.880652
vn 0.116156 0.456275 0.882225
vn -0.357460 0.433722 0.827108
vn -0.317242 -0.438742 0.840752
vn 0.116156 0.456275 0.882225
vn 0.024196 0.981063 0.192170
vn -0.310352 0.933959 0.177209
vn -0.357460 0.433722 0.827108
vn 0.024196 0.981063 0.192170
vn -0.041374 0.950645 -0.307509
vn -0.315307 0.895765 -0.313348
vn -0.310352 0.933959 0.177209
vn -0.041374 0.950645 -0.307509
vn -0.132769 0.053948 -0.989678
vn -0.240562 0.051592 -0.969262
vn -0.315307 0.895765 -0.313348
vn -0.132769 0.053948 -0.989678
vn -0.130760 -0.167802 -0.977110
vn -0.199332 -0.150417 -0.968319
vn -0.240562 0.051592 -0.969262
vn -0.130760 -0.167802 -0.977110
vn 0.061471 -0.931418 0.358724
vn -0.110359 -0.940456 0.321503
vn -0.199332 -0.150417 -0.968319
vn 0.984785 0.118361 0.127240
vn 0.982095 -0.150762 0.112961
vn 0.955808 -0.132242 -0.262569
vn 0.631019 0.059737 -0.773464
vn 0.631019 0.059737 -0.773464
vn 0.572896 -0.140272 -0.807535
vn 0.962115 -0.240691 0.128076
vn 0.984785 0.118361 0.127240
vn 0.572896 -0.140272 -0.807535
vn 0.728756 -0.514544 -0.451839
vn 0.798603 -0.593880 0.097669
vn 0.962115 -0.240691 0.128076
vn 0.728756 -0.514544 -0.451839
vn 0.848383 -0.409797 -0.335132
vn 0.903403 -0.414695 0.109042
vn 0.798603 -0.593880 0.097669
vn 0.848383 -0.409797 -0.335132
vn 0.823110 0.449714 -0.346766
vn 0.869866 0.479763 0.114717
vn 0.903403 -0.414695 0.109042
vn 0.823110 0.449714 -0.346766
vn 0.192284 0.930490 -0.311794
vn 0.213358 0.976537 0.029226
vn 0.869866 0.479763 0.114717
vn 0.192284 0.930490 -0.311794
vn -0.311479 0.895208 -0.318723
vn -0.306742 0.950915 -0.040874
vn 0.213358 0.976537 0.029226
vn -0.311479 0.895208 -0.318723
vn -0.969776 0.053570 -0.238045
vn -0.990035 0.055439 -0.129451
vn -0.306742 0.950915 -0.040874
vn -0.969776 0.053570 -0.238045
vn -0.967865 -0.155838 -0.197364
vn -0.977278 -0.169453 -0.127331
vn -0.990035 0.055439 -0.129451
vn -0.967865 -0.155838 -0.197364
vn 0.273417 -0.952277 -0.135688
vn 0.273773 -0.961443 0.025983
vn -0.977278 -0.169453 -0.127331
vn 0.902989 0.130020 0.409519
vn 0.904993 -0.130272 0.404991
vn 0.982095 -0.150762 0.112961
vn 0.984785 0.118361 0.127240
vn 0.984785 0.118361 0.127240
vn 0.962115 -0.240691 0.128076
vn 0.883804 -0.247853 0.396811
vn 0.902989 0.130020 0.409519
vn 0.962115 -0.240691 0.128076
vn 0.798603 -0.593880 0.097669
vn 0.710797 -0.623335 0.325914
vn 0.883804 -0.247853 0.396811
vn 0.798603 -0.593880 0.097669
vn 0.903403 -0.414695 0.109042
vn 0.835131 -0.408743 0.368084
vn 0.710797 -0.623335 0.325914
vn 0.903403 -0.414695 0.109042
vn 0.869866 0.479763 0.114717
vn 0.806581 0.476807 0.349402
vn 0.835131 -0.408743 0.368084
vn 0.869866 0.479763 0.114717
vn 0.213358 0.976537 0.029226
vn 0.209171 0.973775 0.089502
vn 0.806581 0.476807 0.349402
vn 0.213358 0.976537 0.029226
vn -0.306742 0.950915 -0.040874
vn -0.260566 0.959029 -0.111212
vn 0.209171 0.973775 0.089502
vn -0.306742 0.950915 -0.040874
vn -0.990035 0.055439 -0.129451
vn -0.919680 0.054395 -0.388883
vn -0.260566 0.959029 -0.111212
vn -0.990035 0.055439 -0.129451
vn -0.977278 -0.169453 -0.127331
vn -0.905686 -0.183160 -0.382342
vn -0.919680 0.054395 -0.388883
vn -0.977278 -0.169453 -0.127331
vn 0.273773 -0.961443 0.025983
vn 0.269854 -0.953078 0.137189
vn -0.905686 -0.183160 -0.382342
vn 0.687780 0.102552 0.718639
vn 0.680463 -0.097000 0.726334
vn 0.904993 -0.130272 0.404991
vn 0.902989 0.130020 0.409519
vn 0.902989 0.130020 0.409519
vn 0.883804 -0.247853 0.396811
vn 0.676090 -0.252230 0.692302
vn 0.687780 0.102552 0.718639
vn 0.883804 -0.247853 0.396811
vn 0.710797 -0.623335 0.325914
vn 0.544981 -0.618870 0.565682
vn 0.676090 -0.252230 0.692302
vn 0.710797 -0.623335 0.325914
vn 0.835131 -0.408743 0.368084
vn 0.632411 -0.425797 0.647112
vn 0.544981 -0.618870 0.565682
vn 0.835131 -0.408743 0.368084
vn 0.806581 0.476807 0.349402
vn 0.627037 0.464243 0.625543
vn 0.632411 -0.425797 0.647112
vn 0.806581 0.476807 0.349402
vn 0.209171 0.973775 0.089502
vn 0.162992 0.973333 0.161421
vn 0.627037 0.464243 0.625543
vn 0.209171 0.973775 0.089502
vn -0.260566 0.959029 -0.111212
vn -0.192416 0.962228 -0.192598
vn 0.162992 0.973333 0.161421
vn -0.260566 0.959029 -0.111212
vn -0.919680 0.054395 -0.388883
vn -0.705752 0.053396 -0.706443
vn -0.192416 0.962228 -0.192598
vn -0.919680 0.054395 -0.388883
vn -0.905686 -0.183160 -0.382342
vn -0.693996 -0.189199 -0.694675
vn -0.705752 0.053396 -0.706443
vn -0.905686 -0.183160 -0.382342
vn 0.269854 -0.953078 0.137189
vn 0.246067 -0.925745 0.287135
vn -0.693996 -0.189199 -0.694675
vn 0.396204 0.072504 0.915295
vn 0.391285 -0.101348 0.914672
vn 0.680463 -0.097000 0.726334
vn 0.687780 0.102552 0.718639
vn 0.687780 0.102552 0.718639
vn 0.676090 -0.252230 0.692302
vn 0.392238 -0.256012 0.883520
vn 0.396204 0.072504 0.915295
vn 0.676090 -0.252230 0.692302
vn 0.544981 -0.618870 0.565682
vn 0.319149 -0.600622 0.733074
vn 0.392238 -0.256012 0.883520
vn 0.544981 -0.618870 0.565682
vn 0.632411 -0.425797 0.647112
vn 0.360546 -0.450398 0.816792
vn 0.319149 -0.600622 0.733074
vn 0.632411 -0.425797 0.647112
vn 0.627037 0.464243 0.625543
vn 0.356378 0.453182 0.817081
vn 0.360546 -0.450398 0.816792
vn 0.627037 0.464243 0.625543
vn 0.162992 0.973333 0.161421
vn 0.089552 0.977188 0.192575
vn 0.356378 0.453182 0.817081
vn 0.162992 0.973333 0.161421
vn -0.192416 0.962228 -0.192598
vn -0.111076 0.959007 -0.260707
vn 0.089552 0.977188 0.192575
vn -0.192416 0.962228 -0.192598
vn -0.705752 0.053396 -0.706443
vn -0.389092 0.054045 -0.919612
vn -0.111076 0.959007 -0.260707
vn -0.705752 0.053396 -0.706443
vn -0.693996 -0.189199 -0.694675
vn -0.382662 -0.182869 -0.905610
vn -0.389092 0.054045 -0.919612
vn -0.693996 -0.189199 -0.694675
vn 0.246067 -0.925745 0.287135
vn 0.161320 -0.913921 0.372458
vn -0.382662 -0.182869 -0.905610
vn 0.146745 0.072809 0.986491
vn 0.143653 -0.119095 0.982436
vn 0.391285 -0.101348 0.914672
vn 0.396204 0.072504 0.915295
vn 0.396204 0.072504 0.915295
vn 0.392238 -0.256012 0.883520
vn 0.136633 -0.255771 0.957033
vn 0.146745 0.072809 0.986491
vn 0.392238 -0.256012 0.883520
vn 0.319149 -0.600622 0.733074
vn 0.109292 -0.569674 0.814572
vn 0.136633 -0.255771 0.957033
vn 0.319149 -0.600622 0.733074
vn 0.360546 -0.450398 0.816792
vn 0.115666 -0.459427 0.880652
vn 0.109292 -0.569674 0.814572
vn 0.360546 -0.450398 0.816792
vn 0.356378 0.453182 0.817081
vn 0.116156 0.456275 0.882225
vn 0.115666 -0.459427 0.880652
vn 0.356378 0.453182 0.817081
vn 0.089552 0.977188 0.192575
vn 0.024196 0.981063 0.192170
vn 0.116156 0.456275 0.882225
vn 0.089552 0.977188 0.192575
vn -0.111076 0.959007 -0.260707
vn -0.041374 0.950645 -0.307509
vn 0.024196 0.981063 0.192170
vn -0.111076 0.959007 -0.260707
vn -0.389092 0.054045 -0.919612
vn -0.132769 0.053948 -0.989678
vn -0.041374 0.950645 -0.307509
vn -0.389092 0.054045 -0.919612
vn -0.382662 -0.182869 -0.905610
vn -0.130760 -0.167802 -0.977110
vn -0.132769 0.053948 -0.989678
vn -0.382662 -0.182869 -0.905610
vn 0.161320 -0.913921 0.372458
vn 0.061471 -0.931418 0.358724
vn -0.130760 -0.167802 -0.977110
vn 0.273417 -0.952277 -0.135688
vn 0.955808 -0.132242 -0.262569
vn 0.982095 -0.150762 0.112961
vn 0.273773 -0.961443 0.025983
vn 0.273773 -0.961443 0.025983
vn 0.982095 -0.150762 0.112961
vn 0.904993 -0.130272 0.404991
vn 0.269854 -0.953078 0.137189
vn 0.269854 -0.953078 0.137189
vn 0.904993 -0.130272 0.404991
vn 0.680463 -0.097000 0.726334
vn 0.246067 -0.925745 0.287135
vn 0.246067 -0.925745 0.287135
vn 0.680463 -0.097000 0.726334
vn 0.391285 -0.101348 0.914672
vn 0.161320 -0.913921 0.372458
vn 0.161320 -0.913921 0.372458
vn 0.391285 -0.101348 0.914672
vn 0.143653 -0.119095 0.982436
vn 0.061471 -0.931418 0.358724
vn 0.061471 -0.931418 0.358724
vn 0.143653 -0.119095 0.982436
vn -0.231846 -0.117065 0.965683
vn -0.110359 -0.940456 0.321503
vn -0.199332 -0.150417 -0.968319
vn -0.231846 -0.117065 0.965683
vn -0.769208 0.050756 0.636980
vn -0.967865 -0.155838 -0.197364
vn 0.955808 -0.132242 -0.262569
vn 0.273417 -0.952277 -0.135688
s off
g wall_up2
usemtl blinn10SG
f 5/1/1 2/2/2 3/3/3 4/4/4
f 5/1/5 4/4/6 6/5/7
f 5/1/8 6/5/9 7/6/10
f 8/7/11 9/8/12 1/9/13 5/1/14
f 5/1/15 7/6/16 8/7/17
f 1/9/18 9/8/19 65/10/20
f 10/11/21 77/12/22 76/13/23
f 14/14/24 13/15/25 12/16/26 11/17/27
f 14/14/28 15/18/29 13/15/30
f 14/14/31 16/19/32 15/18/33
f 17/20/34 14/14/35 10/11/36 18/21/37
f 14/14/38 17/20/39 16/19/40
f 18/22/41 76/23/42 75/24/43 55/25/44
f 55/25/45 56/26/46 17/27/47 18/22/48
f 56/26/49 57/28/50 16/29/51 17/27/52
f 57/28/53 58/30/54 15/31/55 16/29/56
f 58/30/57 59/32/58 13/33/59 15/31/60
f 59/32/61 60/34/62 12/35/63 13/33/64
f 60/34/65 61/36/66 11/37/67 12/35/68
f 61/36/69 62/38/70 14/39/71 11/37/72
f 62/38/73 63/40/74 10/41/75 14/39/76
f 63/42/77 74/43/78 77/44/79 10/45/80
f 19/46/81 67/47/82 65/48/83 9/49/84
f 9/49/85 8/50/86 20/51/87 19/46/88
f 8/50/89 7/52/90 21/53/91 20/51/92
f 7/52/93 6/54/94 22/55/95 21/53/96
f 6/54/97 4/56/98 23/57/99 22/55/100
f 4/56/101 3/58/102 24/59/103 23/57/104
f 3/58/105 2/60/106 25/61/107 24/59/108
f 2/60/109 5/62/110 26/63/111 25/61/112
f 5/62/113 1/64/114 27/65/115 26/63/116
f 1/66/117 64/67/118 66/68/119 27/69/120
f 28/70/121 69/71/122 67/47/123 19/46/124
f 19/46/125 20/51/126 29/72/127 28/70/128
f 20/51/129 21/53/130 30/73/131 29/72/132
f 21/53/133 22/55/134 31/74/135 30/73/136
f 22/55/137 23/57/138 32/75/139 31/74/140
f 23/57/141 24/59/142 33/76/143 32/75/144
f 24/59/145 25/61/146 34/77/147 33/76/148
f 25/61/149 26/63/150 35/78/151 34/77/152
f 26/63/153 27/65/154 36/79/155 35/78/156
f 27/69/157 66/68/158 68/80/159 36/81/160
f 37/82/161 71/83/162 69/71/163 28/70/164
f 28/70/165 29/72/166 38/84/167 37/82/168
f 29/72/169 30/73/170 39/85/171 38/84/172
f 30/73/173 31/74/174 40/86/175 39/85/176
f 31/74/177 32/75/178 41/87/179 40/86/180
f 32/75/181 33/76/182 42/88/183 41/87/184
f 33/76/185 34/77/186 43/89/187 42/88/188
f 34/77/189 35/78/190 44/90/191 43/89/192
f 35/78/193 36/79/194 45/91/195 44/90/196
f 36/81/197 68/80/198 70/92/199 45/93/200
f 46/94/201 73/95/202 71/83/203 37/82/204
f 37/82/205 38/84/206 47/96/207 46/94/208
f 38/84/209 39/85/210 48/97/211 47/96/212
f 39/85/213 40/86/214 49/98/215 48/97/216
f 40/86/217 41/87/218 50/99/219 49/98/220
f 41/87/221 42/88/222 51/100/223 50/99/224
f 42/88/225 43/89/226 52/101/227 51/100/228
f 43/89/229 44/90/230 53/102/231 52/101/232
f 44/90/233 45/91/234 54/103/235 53/102/236
f 45/93/237 70/92/238 72/104/239 54/105/240
f 55/25/241 75/24/242 73/95/243 46/94/244
f 46/94/245 47/96/246 56/26/247 55/25/248
f 47/96/249 48/97/250 57/28/251 56/26/252
f 48/97/253 49/98/254 58/30/255 57/28/256
f 49/98/257 50/99/258 59/32/259 58/30/260
f 50/99/261 51/100/262 60/34/263 59/32/264
f 51/100/265 52/101/266 61/36/267 60/34/268
f 52/101/269 53/102/270 62/38/271 61/36/272
f 53/102/273 54/103/274 63/40/275 62/38/276
f 54/105/277 72/104/278 74/43/279 63/42/280
f 64/67/281 65/48/282 67/47/283 66/68/284
f 66/68/285 67/47/286 69/71/287 68/80/288
f 68/80/289 69/71/290 71/83/291 70/92/292
f 70/92/293 71/83/294 73/95/295 72/104/296
f 72/104/297 73/95/298 75/24/299 74/43/300
f 74/43/301 75/24/302 76/23/303 77/44/304
f 10/11/305 76/13/306 18/21/307
f 1/9/308 65/10/309 64/106/310
