# Blender v2.75 (sub 0) OBJ File: 'Greataxe.blend'
# www.blender.org
mtllib Greataxe.mtl
o Cube
v 1.042253 -0.519907 -0.047109
v 1.075772 -0.519907 -0.047109
v 1.075772 -0.493199 0.037327
v 1.042253 -0.493199 0.037327
v 1.042253 -0.414247 -0.029915
v 1.075772 -0.414247 -0.029915
v 1.075772 -0.412301 0.003547
v 1.042253 -0.412301 0.003547
v 1.052260 -0.546041 -0.004960
v 1.065765 -0.546041 -0.004960
v 1.065765 -0.526424 0.024842
v 1.052260 -0.526424 0.024842
v 1.042253 0.537211 -0.036395
v 1.075772 0.537211 -0.036395
v 1.075772 0.537211 -0.002876
v 1.042253 0.537211 -0.002876
v 1.059012 0.440218 0.249615
v 1.059012 1.094286 0.268449
v 1.057210 1.035029 -0.028306
v 1.034387 -0.046131 -0.044261
v 1.042253 0.961183 0.093137
v 1.043433 0.974661 0.180879
v 1.047040 1.029115 0.270055
v 1.070984 1.029115 0.269174
v 1.074592 0.974661 0.180879
v 1.075772 0.961183 0.093137
v 1.075772 0.573890 0.096883
v 1.074592 0.559733 0.180879
v 1.070984 0.510370 0.264405
v 1.047040 0.510370 0.264405
v 1.043433 0.559733 0.180879
v 1.042253 0.573890 0.096883
v 1.042253 0.626615 -0.036395
v 1.042253 0.727515 -0.036395
v 1.042253 0.826266 -0.036395
v 1.075772 0.626615 -0.036395
v 1.075772 0.727515 -0.036395
v 1.075772 0.826266 -0.036395
v 1.075772 0.652017 -0.002876
v 1.075772 0.745469 -0.002876
v 1.075772 0.833984 -0.002876
v 1.042253 0.677870 -0.002876
v 1.042253 0.761760 -0.002876
v 1.042253 0.846025 -0.002876
v 1.059012 0.612188 0.407363
v 1.059012 0.761760 0.436823
v 1.059012 0.905729 0.419007
v 1.060815 1.035029 -0.028306
v 1.057210 1.035029 -0.010893
v 1.060815 1.035029 -0.010893
v 1.075772 0.835796 0.066040
v 1.075772 0.761659 0.065305
v 1.075772 0.687851 0.063102
v 1.074592 0.836854 0.180879
v 1.074592 0.761489 0.180879
v 1.074592 0.686459 0.180879
v 1.070984 0.870311 0.312917
v 1.070984 0.763443 0.318851
v 1.070984 0.661398 0.301200
v 1.042253 0.687851 0.063102
v 1.042253 0.761659 0.065305
v 1.042253 0.835796 0.066040
v 1.043433 0.686459 0.180879
v 1.043433 0.761489 0.180879
v 1.043433 0.836854 0.180879
v 1.047040 0.661398 0.301200
v 1.047040 0.763443 0.318851
v 1.047040 0.870311 0.312917
v 1.083638 -0.046131 -0.044261
v 1.083638 -0.046131 0.004990
v 1.034387 -0.046131 0.004990
v 1.042253 0.929044 -0.036395
v 1.075772 0.929044 -0.036395
v 1.075772 0.929120 -0.002876
v 1.042253 0.929120 -0.002876
v 1.059012 1.022063 0.363033
v 1.042253 0.911209 0.058508
v 1.043433 0.913844 0.180879
v 1.047040 0.969356 0.290104
v 1.075772 0.911209 0.058508
v 1.074592 0.913844 0.180879
v 1.070984 0.969356 0.290104
v 1.075772 0.624404 0.061878
v 1.074592 0.620388 0.180879
v 1.070984 0.582709 0.270693
v 1.075772 0.624028 -0.002876
v 1.042253 0.624028 -0.002876
v 1.059012 0.506266 0.347713
v 1.042253 0.624404 0.061878
v 1.043433 0.620388 0.180879
v 1.047040 0.582709 0.270693
v 1.059013 1.038018 -0.019599
v 1.059013 1.052059 0.003278
v 1.059013 1.051548 -0.041441
v 1.045223 0.957379 0.075630
v 1.072802 0.957379 0.075630
v 1.066572 0.941723 -0.009366
v 1.051453 0.941723 -0.009366
v 1.045223 0.923843 0.052800
v 1.072802 0.923843 0.052800
v 1.051453 0.941723 -0.029905
v 1.066572 0.941723 -0.029905
v 1.068401 1.010749 0.054820
v 1.049623 1.010749 0.054820
v 1.051287 0.989875 0.050709
v 1.066738 0.989875 0.050709
v 1.064743 0.985248 0.006253
v 1.053282 0.985248 0.006253
v 1.054298 0.980410 0.016030
v 1.063727 0.980410 0.016030
v 1.059013 0.950696 0.017133
v 1.042253 0.611890 -0.036395
v 1.075772 0.611890 -0.036395
v 1.075772 0.611890 -0.002876
v 1.042253 0.611890 -0.002876
v 1.069929 0.612748 0.054837
v 1.069929 0.581610 0.079545
v 1.048096 0.581610 0.079545
v 1.052379 0.550675 0.054008
v 1.048828 0.532571 0.055948
v 1.065646 0.550626 0.053845
v 1.069197 0.532571 0.055948
v 1.048096 0.612748 0.054837
v 1.055138 0.564907 0.022379
v 1.053064 0.561629 0.010703
v 1.062887 0.564907 0.022379
v 1.064961 0.561629 0.010703
v 1.059012 0.593331 0.026496
v 1.075772 -0.070012 -0.002457
v 1.075772 -0.070139 -0.035972
v 1.042253 -0.070139 -0.035972
v 1.042253 -0.070012 -0.002457
v 1.083441 -0.325861 0.006741
v 1.075772 -0.241157 0.000545
v 1.092394 -0.174027 0.025455
v 1.095282 -0.329088 -0.065704
v 1.075772 -0.242193 -0.032944
v 1.105852 -0.137724 -0.060869
v 1.022743 -0.329088 -0.065704
v 1.042253 -0.242193 -0.032944
v 1.012172 -0.137724 -0.060869
v 1.034583 -0.325861 0.006741
v 1.042253 -0.241157 0.000545
v 1.025631 -0.174027 0.025455
v 1.059013 0.657935 -0.059842
v 1.059013 0.698783 -0.059842
v 1.059013 0.854725 -0.059842
v 1.059013 0.895187 -0.059842
v 1.059013 0.756375 -0.059842
v 1.059013 0.797406 -0.059842
v 1.063311 0.989247 -0.029007
v 1.054714 0.989247 -0.029007
v 1.054714 0.989247 -0.010264
v 1.063311 0.989247 -0.010264
vt 0.527310 0.090716
vt 0.518672 0.120156
vt 0.513997 0.119428
vt 0.517298 0.090246
vt 0.535805 0.062642
vt 0.517969 0.061946
vt 0.126159 0.049997
vt 0.099595 0.042166
vt 0.145691 0.029455
vt 0.154776 0.034814
vt 0.548718 0.091974
vt 0.527161 0.090213
vt 0.535893 0.062723
vt 0.559336 0.064808
vt 0.549694 0.092534
vt 0.540637 0.120156
vt 0.781820 0.918645
vt 0.814461 0.859353
vt 0.941578 0.883637
vt 0.868213 0.952507
vt 0.119499 0.099439
vt 0.175020 0.060372
vt 0.159207 0.098953
vt 0.101254 0.142370
vt 0.157679 0.145718
vt 0.194081 0.060221
vt 0.199652 0.100344
vt 0.266363 0.041175
vt 0.236798 0.101419
vt 0.083749 0.094754
vt 0.174010 0.017453
vt 0.183095 0.022813
vt 0.176384 0.046859
vt 0.189188 0.045756
vt 0.209973 0.030869
vt 0.065046 0.706580
vt 0.082302 0.655336
vt 0.125365 0.657068
vt 0.117849 0.720691
vt 0.207383 0.313632
vt 0.168546 0.657375
vt 0.155134 0.313056
vt 0.265713 0.311134
vt 0.213257 0.656109
vt 0.099899 0.310821
vt 0.040360 0.652893
vt 0.037201 0.305877
vt 0.250874 0.295010
vt 0.205022 0.298513
vt 0.103707 0.291703
vt 0.053845 0.288352
vt 0.474193 0.592697
vt 0.499562 0.628833
vt 0.498816 0.668885
vt 0.385145 0.624794
vt 0.755169 0.557968
vt 0.712763 0.588072
vt 0.606427 0.595894
vt 0.606661 0.558997
vt 0.525293 0.702064
vt 0.571091 0.672905
vt 0.673279 0.667336
vt 0.669155 0.703967
vt 0.777259 0.640221
vt 0.780311 0.684094
vt 0.616554 0.011873
vt 0.616554 0.032325
vt 0.512606 0.031605
vt 0.512606 0.012593
vt 0.394207 0.029404
vt 0.394207 0.014794
vt 0.971207 0.013485
vt 0.971207 0.033937
vt 0.862878 0.033217
vt 0.862878 0.014205
vt 0.735370 0.031018
vt 0.736286 0.016406
vt 0.652339 0.882346
vt 0.655986 0.835648
vt 0.659916 0.789757
vt 0.827492 0.794863
vt 0.664575 0.744036
vt 0.812174 0.732622
vt 0.504419 0.878121
vt 0.515755 0.832333
vt 0.517466 0.786678
vt 0.520168 0.740410
vt 0.430032 0.888389
vt 0.431288 0.837863
vt 0.430173 0.785262
vt 0.438899 0.730080
vt 0.603096 0.380515
vt 0.604535 0.420501
vt 0.458310 0.406340
vt 0.493836 0.358555
vt 0.605968 0.466095
vt 0.438266 0.468121
vt 0.606689 0.512113
vt 0.446292 0.532786
vt 0.746602 0.381498
vt 0.747657 0.419698
vt 0.748041 0.464980
vt 0.748522 0.511331
vt 0.823822 0.379773
vt 0.825287 0.396518
vt 0.831888 0.452995
vt 0.838330 0.510689
vt 0.328689 0.377317
vt 0.398765 0.312954
vt 0.294981 0.467684
vt 0.317400 0.554528
vt 0.944187 0.706091
vt 0.970876 0.797206
vt 0.156440 0.296453
vt 0.765895 0.596687
vt 0.879051 0.640290
vt 0.389433 0.888129
vt 0.390516 0.825823
vt 0.386012 0.760971
vt 0.408818 0.696190
vt 0.863924 0.380377
vt 0.870138 0.440666
vt 0.884380 0.505911
vt 0.056370 0.716469
vt 0.013064 0.708889
vt 0.019724 0.699376
vt 0.338426 0.759506
vt 0.357943 0.735737
vt 0.354177 0.809053
vt 0.352154 0.784199
vt 0.656326 0.022439
vt 0.306716 0.022099
vt 0.336189 0.110029
vt 0.356030 0.108552
vt 0.363029 0.142129
vt 0.337076 0.145037
vt 0.544094 0.909057
vt 0.649496 0.919146
vt 0.754612 0.954250
vt 0.828249 0.571305
vt 0.751078 0.994276
vt 0.869764 0.573122
vt 0.100045 0.726897
vt 0.448360 0.697596
vt 0.500290 0.314864
vt 0.515007 0.271667
vt 0.703291 0.351515
vt 0.601867 0.343927
vt 0.530470 0.122188
vt 0.502555 0.132881
vt 0.512702 0.119562
vt 0.517500 0.120297
vt 0.502146 0.133028
vt 0.529948 0.122353
vt 0.347004 0.077176
vt 0.359967 0.078384
vt 0.397844 0.049907
vt 0.410739 0.078773
vt 0.397555 0.079450
vt 0.387675 0.047061
vt 0.398153 0.109723
vt 0.377331 0.046432
vt 0.366287 0.048760
vt 0.417622 0.112145
vt 0.407471 0.146015
vt 0.381190 0.142089
vt 0.389383 0.169014
vt 0.380617 0.167302
vt 0.660474 0.082276
vt 0.671701 0.073585
vt 0.694887 0.090434
vt 0.674720 0.092587
vt 0.642025 0.082276
vt 0.630798 0.073585
vt 0.540747 0.120096
vt 0.627780 0.092587
vt 0.607612 0.090434
vt 0.458823 0.118947
vt 0.425864 0.150577
vt 0.397611 0.171530
vt 0.367726 0.168168
vt 0.359362 0.170801
vt 0.377999 0.182314
vt 0.088814 0.848320
vt 0.103667 0.780904
vt 0.130101 0.780780
vt 0.126485 0.837981
vt 0.194858 0.836826
vt 0.181795 0.899788
vt 0.151096 0.900243
vt 0.234522 0.844923
vt 0.224232 0.903250
vt 0.180580 0.717854
vt 0.227161 0.703564
vt 0.174740 0.779060
vt 0.106319 0.904346
vt 0.202047 0.777806
vt 0.198408 0.723251
vt 0.026890 0.857367
vt 0.070437 0.909319
vt 0.148822 0.946208
vt 0.129898 0.949800
vt 0.109869 0.953626
vt 0.168490 0.947347
vt 0.186359 0.954264
vt 0.148960 0.974607
vt 0.559336 0.130389
vt 0.517114 0.089682
vt 0.556495 0.129642
vt 0.200783 0.233875
vt 0.155223 0.235289
vt 0.099169 0.247819
vt 0.013064 0.248874
vt 0.284389 0.248747
vt 0.277623 0.146560
vt 0.201438 0.146581
vt 0.234066 0.193391
vt 0.195405 0.197238
vt 0.037634 0.139794
vt 0.105652 0.191434
vt 0.064388 0.188967
vt 0.150126 0.195030
vt 0.900295 0.398203
vt 0.902811 0.422611
vt 0.916131 0.530236
vt 0.907997 0.555204
vt 0.932557 0.505689
vt 0.369313 0.711137
vt 0.901011 0.372740
vt 0.354845 0.867453
vt 0.355272 0.842924
vt 0.909332 0.456237
vt 0.915094 0.481252
vt 0.350729 0.894329
vt 0.238410 0.711917
vt 0.518401 0.061922
vt 0.559946 0.064625
vt 0.768742 0.079134
vt 0.727839 0.079134
vt 0.739066 0.070485
vt 0.757515 0.070485
vn -0.000000 0.013700 0.999900
vn -0.000000 0.018900 0.999800
vn -0.619600 -0.366300 -0.694200
vn 0.619600 -0.366300 -0.694200
vn 0.494700 -0.868200 0.038400
vn -0.494700 -0.868200 0.038400
vn -0.704400 0.055000 0.707600
vn -0.704200 0.055500 -0.707800
vn -0.607800 0.439400 -0.661400
vn -0.859600 0.510100 0.029500
vn 0.704200 0.055500 -0.707800
vn 0.825800 -0.049200 -0.561800
vn 0.828900 -0.054400 0.556600
vn 0.704400 0.055000 0.707600
vn -0.996200 0.039100 0.077900
vn -0.997400 0.013700 0.070200
vn 0.000000 0.232000 0.972700
vn 0.000300 0.533600 0.845700
vn -0.768700 -0.145100 -0.622900
vn -0.651500 -0.027800 0.758100
vn -0.730400 0.066100 0.679800
vn -0.711400 -0.014400 -0.702600
vn -0.674800 0.015600 0.737800
vn 0.651500 -0.027800 0.758100
vn 0.730400 0.066100 0.679800
vn 0.768700 -0.145100 -0.622900
vn 0.519200 -0.577600 0.629900
vn -0.519200 -0.577600 0.629900
vn -0.707100 0.000000 -0.707100
vn -0.707100 0.009600 -0.707100
vn -0.707100 0.009600 0.707100
vn -0.880600 -0.352900 0.316200
vn 0.696200 -0.184400 0.693800
vn 0.707100 0.009600 0.707100
vn -0.696200 -0.184400 0.693800
vn 0.692700 -0.192500 -0.695000
vn 0.707100 0.009600 -0.707100
vn -0.692700 -0.192500 -0.695000
vn 0.740100 -0.004800 -0.672500
vn 0.677300 -0.041800 0.734500
vn -0.740100 -0.004800 -0.672500
vn 0.996200 0.039300 0.077900
vn 0.849100 0.360300 -0.386400
vn -0.001000 0.872900 -0.487900
vn 0.995900 0.088800 -0.016000
vn 0.849600 0.515000 0.113700
vn 0.757800 0.619200 -0.205600
vn 0.999800 0.001400 0.020400
vn -0.993700 -0.095300 -0.059300
vn -0.841200 -0.538600 0.046800
vn -0.756400 -0.621700 -0.203100
vn -0.999700 -0.001500 0.023200
vn -0.873600 -0.304200 -0.379800
vn -0.997000 -0.031700 0.069900
vn 0.841200 -0.538700 0.047100
vn 0.756400 -0.621700 -0.203100
vn 0.873600 -0.304200 -0.379800
vn -0.849600 0.515000 0.113700
vn -0.759800 0.617000 -0.204900
vn -0.862900 0.343100 -0.370900
vn -0.999800 0.001400 0.020400
vn -0.999800 0.001100 0.018700
vn -0.999800 -0.000500 0.018600
vn -0.997700 -0.003100 0.068000
vn -0.999800 -0.002300 0.019800
vn -0.997600 -0.019200 0.067100
vn -0.995900 0.088800 -0.016000
vn -1.000000 0.000100 0.005200
vn -1.000000 -0.000000 0.005100
vn -1.000000 -0.000000 0.005000
vn -0.970000 0.213500 -0.116100
vn -1.000000 0.000000 0.000000
vn 0.999700 -0.001500 0.023200
vn 0.999800 -0.002300 0.019800
vn 0.997600 -0.019200 0.067100
vn 0.997000 -0.031700 0.069900
vn 0.999800 -0.000500 0.018600
vn 0.997700 -0.003100 0.068000
vn 0.999800 0.001100 0.018700
vn 0.997400 0.013700 0.070200
vn 0.993700 -0.095300 -0.059300
vn 1.000000 -0.000000 0.005000
vn 1.000000 -0.000000 0.005100
vn 1.000000 0.000100 0.005200
vn 0.997900 -0.063600 0.012300
vn 1.000000 0.000000 0.000000
vn 0.000000 -0.324300 0.945900
vn 0.000000 -0.543200 0.839600
vn 0.000000 -0.042100 0.999100
vn -0.677300 -0.041800 0.734500
vn 0.000000 -0.648000 -0.761600
vn -0.728600 0.428300 -0.534500
vn -0.854400 -0.000800 -0.519500
vn -0.854000 0.000200 -0.520200
vn -0.778700 -0.145200 -0.610300
vn 0.778700 -0.145200 -0.610300
vn 0.854000 0.000200 -0.520200
vn 0.854400 -0.000800 -0.519500
vn 0.707100 0.000000 -0.707100
vn 0.000000 0.156100 -0.987700
vn 0.000000 0.155200 -0.987900
vn 0.000000 -0.155200 -0.987900
vn 0.788900 0.062000 -0.611300
vn 0.807000 -0.515500 -0.287900
vn 0.602200 0.784600 0.147000
vn 0.970000 0.213500 -0.116100
vn 0.728600 0.428300 -0.534500
vn -0.997900 -0.063600 0.012300
vn 0.000000 1.000000 0.000500
vn 0.000000 0.694300 0.719600
vn -0.825800 -0.049200 -0.561800
vn 0.000000 0.705900 -0.708300
vn 0.727800 0.656800 -0.197300
vn -0.727800 0.656800 -0.197300
vn -0.788900 0.062000 -0.611300
vn 0.859600 0.510200 0.029500
vn -0.602200 0.784600 0.147000
vn -0.807000 -0.515500 -0.287900
vn -0.609400 0.278100 -0.742500
vn -0.844800 -0.406800 0.347600
vn 0.607800 0.439400 -0.661400
vn -0.828900 -0.054400 0.556600
vn 0.609400 0.278100 -0.742500
vn 0.844800 -0.406800 0.347500
vn 0.000000 -0.985400 0.170200
vn -0.662700 -0.671000 -0.332400
vn -0.718700 -0.092700 -0.689000
vn 0.718400 -0.092900 -0.689400
vn 0.774900 0.590000 -0.226700
vn -0.773600 0.589400 -0.232700
vn 0.636900 -0.768900 0.056100
vn 0.880600 -0.352900 0.316200
vn 0.662700 -0.671000 -0.332400
vn -0.637100 -0.768600 0.056600
vn -0.797100 0.388000 0.462800
vn -0.630300 -0.175400 -0.756200
vn 0.630400 -0.175200 -0.756200
vn 0.797900 0.387200 0.462000
vn 0.000000 0.952800 0.303700
vn 0.655300 -0.074000 0.751700
vn -0.655300 -0.074000 0.751700
vn -0.751600 0.077500 -0.655000
vn 0.751600 0.077500 -0.655000
vn 0.711400 -0.014400 -0.702600
vn 0.674800 0.015600 0.737800
vn 0.753800 -0.009300 -0.657000
vn 0.687700 -0.156600 0.708900
vn -0.753800 -0.009300 -0.657000
vn -0.687700 -0.156600 0.708900
vn 0.000000 -0.139800 -0.990200
vn 0.000000 -0.157900 -0.987400
vn 0.000000 0.125800 -0.992000
vn 0.000000 -0.457800 -0.889000
usemtl Material
s off
f 154/1/1 50/2/1 49/3/1 153/4/1
f 97/5/2 154/1/2 153/4/2 98/6/2
s 1
f 1/7/3 2/8/4 10/9/5 9/10/6
f 153/11/7 152/12/8 101/13/9 98/14/10
f 151/15/11 48/16/12 50/2/13 154/1/14
f 79/17/15 68/18/16 47/19/17 76/20/18
f 5/21/19 1/7/3 4/22/20 8/23/21
f 139/24/22 5/21/19 8/23/21 142/25/23
f 3/26/24 7/27/25 8/23/21 4/22/20
f 2/28/4 6/29/26 7/27/25 3/26/24
f 1/7/3 5/21/19 6/30/26 2/8/4
f 9/10/6 10/9/5 11/31/27 12/32/28
f 3/26/24 4/22/20 12/33/28 11/34/27
f 2/28/4 3/26/24 11/34/27 10/35/5
f 4/22/20 1/7/3 9/10/6 12/33/28
f 112/36/29 13/37/30 16/38/31 115/39/32
f 70/40/33 15/41/34 16/38/31 71/42/35
f 69/43/36 14/44/37 15/41/34 70/40/33
f 20/45/38 13/37/30 14/46/37 69/47/36
f 130/48/39 69/43/36 70/40/33 129/49/40
f 131/50/41 20/45/38 69/47/36 130/51/39
f 82/52/42 24/53/43 18/54/44 76/55/18
f 80/56/45 26/57/46 25/58/47 81/59/48
f 81/59/48 25/58/47 24/53/43 82/52/42
f 89/60/49 32/61/50 31/62/51 90/63/52
f 90/63/52 31/62/51 30/64/53 91/65/54
f 32/66/50 27/67/55 28/68/56 31/69/51
f 31/69/51 28/68/56 29/70/57 30/71/53
f 26/72/46 21/73/58 22/74/59 25/75/47
f 25/75/47 22/74/59 23/76/60 24/77/43
f 78/78/61 65/79/62 68/18/16 79/17/15
f 65/79/62 64/80/63 67/81/64 68/18/16
f 64/80/63 63/82/65 66/83/66 67/81/64
f 77/84/67 62/85/68 65/79/62 78/78/61
f 62/85/68 61/86/69 64/80/63 65/79/62
f 61/86/69 60/87/70 63/82/65 64/80/63
f 75/88/71 44/89/72 62/85/68 77/84/67
f 44/89/72 43/90/72 61/86/69 62/85/68
f 43/90/72 42/91/72 60/87/70 61/86/69
f 84/92/73 56/93/74 59/94/75 85/95/76
f 56/93/74 55/96/77 58/97/78 59/94/75
f 55/96/77 54/98/79 57/99/80 58/97/78
f 83/100/81 53/101/82 56/93/74 84/92/73
f 53/101/82 52/102/83 55/96/77 56/93/74
f 52/102/83 51/103/84 54/98/79 55/96/77
f 86/104/85 39/105/86 53/101/82 83/100/81
f 39/105/86 40/106/86 52/102/83 53/101/82
f 40/106/86 41/107/86 51/103/84 52/102/83
f 85/95/76 59/94/75 45/108/87 88/109/88
f 59/94/75 58/97/78 46/110/89 45/108/87
f 58/97/78 57/99/80 47/111/17 46/110/89
f 67/81/64 66/83/66 45/112/87 46/113/89
f 129/49/40 70/40/33 71/42/35 132/114/90
f 91/65/54 30/64/53 17/115/91 88/116/88
f 72/117/92 35/118/93 44/89/72 75/88/71
f 35/118/93 34/119/94 43/90/72 44/89/72
f 34/119/94 33/120/95 42/91/72 43/90/72
f 36/121/96 37/122/97 40/106/86 39/105/86
f 37/122/97 38/123/98 41/107/86 40/106/86
f 112/36/29 33/124/95 36/125/96 113/126/99
f 34/119/94 37/127/97 146/128/100
f 34/119/94 35/118/93 150/129/101 149/130/102
f 24/77/43 23/76/60 18/131/44
f 30/71/53 29/70/57 17/132/91
f 68/18/16 67/81/64 46/113/89 47/19/17
f 13/37/30 20/45/38 71/42/35 16/38/31
f 26/133/46 96/134/103 106/135/104 103/136/105
f 21/137/58 77/84/67 78/78/61 22/138/59
f 22/138/59 78/78/61 79/17/15 23/139/60
f 54/98/79 81/59/48 82/52/42 57/99/80
f 51/103/84 80/56/45 81/59/48 54/98/79
f 41/107/86 74/140/106 80/56/45 51/103/84
f 57/99/80 82/52/42 76/55/18 47/111/17
f 23/139/60 79/17/15 76/20/18 18/141/44
f 38/123/98 73/142/107 74/140/106 41/107/86
f 33/124/95 112/36/29 115/39/32 87/143/108
f 33/120/95 87/144/108 42/91/72
f 66/83/66 91/65/54 88/116/88 45/112/87
f 29/145/57 85/95/76 88/109/88 17/146/91
f 27/147/55 83/100/81 84/92/73 28/148/56
f 28/148/56 84/92/73 85/95/76 29/145/57
f 63/82/65 90/63/52 91/65/54 66/83/66
f 60/87/70 89/60/49 90/63/52 63/82/65
f 42/91/72 87/144/108 89/60/49 60/87/70
f 50/2/13 92/149/109 93/150/110
f 48/151/12 19/152/111 94/153/112
f 19/152/111 92/154/109 94/153/112
f 26/133/46 80/155/45 100/156/113 96/134/103
f 75/157/71 77/158/67 99/159/114 98/160/10
f 99/159/114 95/161/115 96/134/103 100/156/113
f 99/159/114 100/156/113 97/162/116 98/160/10
f 80/155/45 74/163/106 97/162/116 100/156/113
f 95/161/115 21/164/58 104/165/117 105/166/118
f 77/158/67 21/164/58 95/161/115 99/159/114
f 105/166/118 104/165/117 108/167/119 109/168/120
f 101/169/9 72/170/92 75/171/71 98/172/10
f 72/170/92 101/169/9 102/173/121 73/174/107
f 19/152/111 49/175/122 92/154/109
f 73/174/107 102/173/121 97/176/116 74/177/106
f 21/164/58 26/178/46 103/179/105 104/165/117
f 96/134/103 95/161/115 105/166/118 106/135/104
f 104/165/117 103/179/105 107/180/123 108/167/119
f 103/136/105 106/135/104 110/181/124 107/182/123
f 106/135/104 105/166/118 109/168/120 110/181/124
f 110/181/124 109/168/120 111/183/125
f 109/168/120 108/167/119 111/183/125
f 108/167/119 107/180/123 111/183/125
f 107/182/123 110/181/124 111/183/125
f 32/184/50 89/185/49 123/186/126 118/187/127
f 118/187/127 117/188/128 121/189/129 119/190/130
f 117/188/128 27/191/55 122/192/131 121/189/129
f 16/38/31 15/41/34 114/193/132 115/39/32
f 14/44/37 113/194/99 114/193/132 15/41/34
f 13/37/30 112/36/29 113/126/99 14/46/37
f 116/195/133 117/188/128 118/187/127 123/186/126
f 89/185/49 87/143/108 115/39/32 123/186/126
f 32/184/50 118/187/127 119/190/130 120/196/134
f 83/197/81 27/191/55 117/188/128 116/195/133
f 86/198/85 83/197/81 116/195/133 114/193/132
f 116/195/133 123/186/126 115/39/32 114/193/132
f 27/199/55 32/184/50 120/196/134 122/200/131
f 120/196/134 119/190/130 124/201/135 125/202/136
f 122/200/131 120/196/134 125/202/136 127/203/137
f 119/190/130 121/189/129 126/204/138 124/201/135
f 121/189/129 122/192/131 127/205/137 126/204/138
f 127/203/137 125/202/136 128/206/139
f 125/202/136 124/201/135 128/206/139
f 124/201/135 126/204/138 128/206/139
f 126/204/138 127/205/137 128/206/139
f 49/3/122 50/2/13 93/150/110
f 92/154/109 49/175/122 93/207/110
f 152/12/8 19/152/111 48/151/12 151/208/11
f 50/2/13 48/16/12 92/149/109
f 92/149/109 48/16/12 94/209/112
f 135/210/140 129/49/40 132/114/90 144/211/141
f 141/212/142 131/50/41 130/51/39 138/213/143
f 138/214/143 130/48/39 129/49/40 135/210/140
f 20/45/38 131/50/41 132/114/90 71/42/35
f 6/29/26 136/215/144 133/216/145 7/27/25
f 136/215/144 137/217/146 134/218/147 133/216/145
f 137/217/146 138/214/143 135/210/140 134/218/147
f 5/21/19 139/24/22 136/219/144 6/30/26
f 139/24/22 140/220/148 137/221/146 136/219/144
f 140/220/148 141/212/142 138/213/143 137/221/146
f 7/27/25 133/216/145 142/25/23 8/23/21
f 133/216/145 134/218/147 143/222/149 142/25/23
f 134/218/147 135/210/140 144/211/141 143/222/149
f 131/50/41 141/212/142 144/211/141 132/114/90
f 141/212/142 140/220/148 143/222/149 144/211/141
f 140/220/148 139/24/22 142/25/23 143/222/149
f 37/122/97 36/121/96 145/223/150 146/224/100
f 73/142/107 38/123/98 147/225/151 148/226/152
f 38/123/98 35/227/93 147/225/151
f 33/120/95 34/119/94 146/128/100 145/228/150
f 36/121/96 33/229/95 145/223/150
f 35/118/93 72/117/92 148/230/152 147/231/151
f 37/127/97 34/119/94 149/130/102
f 38/123/98 37/122/97 149/232/102 150/233/101
f 35/227/93 38/123/98 150/233/101
f 72/117/92 73/234/107 148/230/152
f 36/121/96 39/105/86 86/104/85
f 113/194/99 36/235/96 86/198/85 114/193/132
f 101/13/9 152/12/8 151/208/11 102/236/121
f 102/237/121 151/15/11 154/1/14 97/5/116
f 49/175/122 19/152/111 152/12/8 153/11/7
usemtl Material_NONE
s off
f 74/238/153 75/239/153 98/240/153 97/241/153
