# Blender v2.77 (sub 0) OBJ File: ''
# www.blender.org
mtllib ThrowingNeedle.mtl
o Cube.013
v 0.000000 -0.080275 -0.003056
v 0.001877 -0.077224 -0.000000
v 0.010940 -0.083327 -0.000000
v 0.007310 -0.085119 -0.002613
v 0.000000 -0.080275 0.003056
v -0.006961 -0.085170 0.002613
v -0.006961 -0.085170 -0.002613
v 0.007310 -0.085119 0.002613
v -0.001877 -0.077224 -0.000000
v -0.010709 -0.083380 -0.000000
v 0.003951 -0.007542 -0.000000
v 0.000000 -0.007542 -0.003951
v 0.003951 0.038735 0.000000
v 0.006414 0.035120 -0.000878
v -0.000992 0.034326 -0.006551
v 0.000000 0.038735 -0.003951
v 0.003951 0.023253 0.000000
v 0.000000 0.023253 -0.003951
v 0.007407 0.019778 -0.000027
v 0.000000 0.018984 -0.005700
v 0.003951 0.007856 0.000000
v 0.000000 0.007856 -0.003951
v 0.008399 0.004436 0.000825
v 0.000992 0.003642 -0.004848
v -0.003951 -0.007542 -0.000000
v -0.006414 0.003481 0.000878
v -0.003951 0.007856 0.000000
v -0.007407 0.018823 0.000027
v -0.003951 0.023253 0.000000
v -0.008399 0.034165 -0.000825
v 0.000000 -0.007542 0.003951
v 0.000992 0.004275 0.006551
v 0.000000 0.007856 0.003951
v 0.000000 0.019617 0.005700
v 0.000000 0.023253 0.003951
v -0.000992 0.034959 0.004848
v 0.002721 0.065471 0.000000
v 0.000000 0.065471 -0.002721
v -0.003951 0.038735 0.000000
v 0.000000 0.038735 0.003951
v -0.002721 0.065471 0.000000
v 0.000000 0.065471 0.002721
v 0.000000 0.098379 0.000000
v 0.006692 -0.093332 0.002813
v 0.010991 -0.096555 -0.000000
v 0.006692 -0.093332 -0.002813
v -0.006912 -0.093001 -0.002613
v -0.010550 -0.096735 -0.000000
v -0.006912 -0.093001 0.002613
v 0.000012 -0.101664 -0.000000
v 0.000034 -0.096551 0.002713
v 0.000034 -0.096551 -0.002713
v 0.002853 -0.067381 0.000051
v 0.003577 -0.065657 0.001159
v 0.007142 -0.068457 -0.001170
v 0.005344 -0.069141 -0.001347
v 0.004300 -0.067381 0.002266
v 0.001946 -0.069160 0.003576
v 0.000708 -0.069160 0.001681
v 0.006581 -0.069141 0.000547
v -0.004055 -0.041183 -0.001853
v -0.007078 -0.041183 0.001208
v -0.009968 -0.044076 -0.002084
v -0.007383 -0.044076 -0.004702
v -0.005566 -0.038380 -0.000322
v -0.000640 -0.042932 0.004543
v -0.000977 -0.044044 0.001625
v 0.006428 -0.072275 0.000751
v 0.007158 -0.073505 -0.001181
v 0.005096 -0.072275 -0.001288
v 0.000109 -0.068477 0.003424
v 0.000724 -0.072149 0.001671
v 0.000161 -0.073574 0.003390
v 0.001962 -0.072149 0.003565
v 0.003592 -0.075455 0.001149
v 0.004242 -0.073504 0.002127
v 0.002957 -0.073504 0.000161
v -0.003562 -0.044044 0.004242
v -0.003938 -0.049140 0.004068
v -0.000618 -0.051140 0.004565
v -0.001156 -0.049140 0.001251
v -0.010358 -0.042965 -0.005054
v -0.007361 -0.048935 -0.004680
v -0.010286 -0.051252 -0.004984
v -0.009946 -0.048935 -0.002062
v -0.005545 -0.054310 -0.000302
v -0.006877 -0.051138 0.001067
v -0.004194 -0.051138 -0.001651
v 0.005686 -0.017746 -0.003022
v 0.009106 -0.017746 0.000774
v 0.005003 -0.021181 0.003972
v 0.002079 -0.021181 0.000726
v 0.007396 -0.014417 -0.001124
v 0.013505 -0.019823 -0.006628
v 0.010022 -0.021144 -0.006431
v 0.012947 -0.021144 -0.003184
v 0.012714 -0.027196 -0.002750
v 0.013533 -0.029571 -0.006653
v 0.009567 -0.027196 -0.006244
v 0.001454 -0.019862 0.004228
v 0.002106 -0.026952 0.000701
v 0.001543 -0.029703 0.004149
v 0.005030 -0.026952 0.003947
v 0.007422 -0.033336 -0.001148
v 0.008952 -0.029568 0.000526
v 0.005917 -0.029568 -0.002844
vt 0.706976 0.087258
vt 0.656765 0.099526
vt 0.543692 0.073120
vt 0.607775 0.067431
vt 0.214016 0.338757
vt 0.210643 0.361717
vt 0.100882 0.340356
vt 0.157480 0.333090
vt 0.263744 0.330210
vt 0.331893 0.338446
vt 0.162590 0.374919
vt 0.037345 0.348158
vt 0.602611 0.337515
vt 0.678978 0.338586
vt 0.599936 0.493267
vt 0.579804 0.481190
vt 0.684662 0.476782
vt 0.673231 0.491735
vt 0.598720 0.443053
vt 0.675334 0.441649
vt 0.559473 0.429864
vt 0.675289 0.426774
vt 0.597546 0.390754
vt 0.675329 0.390185
vt 0.543693 0.377345
vt 0.665095 0.375498
vt 0.754417 0.100226
vt 0.755657 0.338579
vt 0.788883 0.375755
vt 0.753137 0.390732
vt 0.792020 0.426992
vt 0.752644 0.443012
vt 0.792592 0.478744
vt 0.192827 0.623690
vt 0.114702 0.622851
vt 0.189996 0.661748
vt 0.077605 0.662437
vt 0.192644 0.676927
vt 0.110330 0.677449
vt 0.194089 0.716862
vt 0.075500 0.713990
vt 0.190656 0.729747
vt 0.112949 0.730958
vt 0.182064 0.768373
vt 0.066281 0.765179
vt 0.261255 0.375744
vt 0.274048 0.622439
vt 0.308965 0.662483
vt 0.273602 0.680235
vt 0.312145 0.720896
vt 0.266705 0.733520
vt 0.299361 0.772049
vt 0.617319 0.578593
vt 0.665123 0.578580
vt 0.744527 0.496076
vt 0.189070 0.780771
vt 0.116643 0.781645
vt 0.261171 0.783265
vt 0.806197 0.068637
vt 0.870974 0.075282
vt 0.710845 0.579703
vt 0.174549 0.867161
vt 0.125793 0.867221
vt 0.222401 0.868236
vt 0.407415 0.346524
vt 0.157044 0.970873
vt 0.645700 0.679072
vt 0.317423 0.302710
vt 0.397883 0.284384
vt 0.250243 0.317348
vt 0.807003 0.041814
vt 0.867218 0.027359
vt 0.555522 0.026338
vt 0.621977 0.039588
vt 0.100394 0.312002
vt 0.151427 0.318777
vt 0.030232 0.299095
vt 0.176992 0.270827
vt 0.193680 0.293961
vt 0.202749 0.311946
vt 0.713831 0.029325
vt 0.714524 0.008739
vt 0.841701 0.890935
vt 0.841534 0.898384
vt 0.781104 0.888614
vt 0.805905 0.885502
vt 0.831978 0.717681
vt 0.828467 0.725902
vt 0.787500 0.718768
vt 0.812803 0.715686
vt 0.849961 0.715348
vt 0.877991 0.719831
vt 0.790771 0.814615
vt 0.787925 0.828039
vt 0.718934 0.817345
vt 0.758946 0.811792
vt 0.525875 0.763250
vt 0.525603 0.775361
vt 0.427350 0.759477
vt 0.467673 0.754416
vt 0.826099 0.735075
vt 0.907656 0.724196
vt 0.878955 0.705221
vt 0.916849 0.698470
vt 0.846898 0.710870
vt 0.900942 0.888803
vt 0.876004 0.885579
vt 0.877508 0.876081
vt 0.901638 0.870591
vt 0.781104 0.870501
vt 0.808412 0.875369
vt 0.789563 0.707340
vt 0.811585 0.710656
vt 0.760407 0.721826
vt 0.760407 0.701529
vt 0.825913 0.690573
vt 0.829586 0.700574
vt 0.830829 0.708568
vt 0.842830 0.871441
vt 0.842632 0.863398
vt 0.819158 0.810437
vt 0.866223 0.817107
vt 0.787266 0.842982
vt 0.915903 0.823551
vt 0.862714 0.793365
vt 0.921894 0.781583
vt 0.812629 0.803233
vt 0.622193 0.759783
vt 0.581646 0.754541
vt 0.584091 0.739098
vt 0.623325 0.730173
vt 0.427348 0.730026
vt 0.471748 0.737941
vt 0.718315 0.798747
vt 0.755221 0.803651
vt 0.676010 0.822899
vt 0.668960 0.789944
vt 0.771509 0.770735
vt 0.780946 0.786893
vt 0.785741 0.799844
vt 0.527708 0.731555
vt 0.527386 0.718477
vt 0.473968 0.884973
vt 0.472196 0.900931
vt 0.389010 0.888751
vt 0.435847 0.881860
vt 0.738703 0.972511
vt 0.738380 0.986894
vt 0.621696 0.968029
vt 0.669585 0.962019
vt 0.507169 0.879801
vt 0.563844 0.887368
vt 0.473201 0.918677
vt 0.623596 0.894646
vt 0.556837 0.859207
vt 0.625687 0.844776
vt 0.498557 0.871297
vt 0.853090 0.968393
vt 0.804937 0.962168
vt 0.807842 0.943828
vt 0.854435 0.933229
vt 0.621696 0.933054
vt 0.674425 0.942453
vt 0.386050 0.866676
vt 0.430452 0.872222
vt 0.338714 0.895666
vt 0.326401 0.856594
vt 0.445850 0.833022
vt 0.458987 0.852134
vt 0.466229 0.867475
vt 0.740882 0.934870
vt 0.740500 0.919338
vn 0.003800 -0.258800 -0.965900
vn 0.952200 0.305600 0.000000
vn 0.885100 0.465400 0.000000
vn -0.183000 -0.064100 -0.981000
vn 0.003800 -0.258800 0.965900
vn 0.193800 -0.099600 0.976000
vn 0.193800 -0.099600 -0.976000
vn -0.183000 -0.064100 0.981000
vn -0.955400 0.295200 -0.000000
vn -0.892900 0.450200 0.000000
vn 0.986500 -0.162700 -0.019600
vn -0.019000 -0.081200 -0.996500
vn 0.968900 0.238400 0.066500
vn 0.990200 0.127500 -0.057600
vn -0.046900 0.157800 -0.986400
vn 0.043300 0.381500 -0.923400
vn 0.952500 0.304400 0.011500
vn 0.011000 0.141500 -0.989900
vn 0.985600 0.169100 -0.005400
vn -0.006000 0.136200 -0.990700
vn 0.930000 0.356800 -0.088500
vn -0.061800 0.064900 -0.996000
vn 0.979700 0.197800 0.030900
vn 0.046800 0.104300 -0.993400
vn -0.996300 -0.083500 -0.018900
vn -0.994200 0.096400 0.047900
vn -0.994000 0.085900 -0.068100
vn -0.992500 0.122000 0.000500
vn -0.985300 0.170000 0.015500
vn -0.990200 0.135700 -0.034300
vn -0.016800 -0.160500 0.986900
vn 0.038000 0.208200 0.977300
vn -0.077900 0.297000 0.951700
vn -0.004300 0.172300 0.985000
vn 0.009000 0.249400 0.968300
vn -0.058700 0.125700 0.990300
vn 0.998000 0.063700 0.000000
vn 0.000000 0.063700 -0.998000
vn -0.907600 0.416600 0.052100
vn 0.058800 0.203100 0.977400
vn -0.998000 0.063700 -0.000000
vn 0.000000 0.063700 0.998000
vn 0.000000 1.000000 -0.000000
vn -0.181800 0.167400 0.969000
vn 0.835600 -0.549400 -0.000000
vn -0.181800 0.167400 -0.969000
vn 0.165500 0.169300 -0.971600
vn -0.814400 -0.580400 -0.000000
vn 0.165500 0.169300 0.971600
vn -0.004900 -1.000000 -0.000000
vn 0.003700 0.290500 0.956900
vn 0.003700 0.290500 -0.956900
vn -0.539100 -0.137100 -0.831000
vn -0.005500 1.000000 0.003400
vn 0.739300 0.469400 -0.482800
vn -0.663400 -0.048200 -0.746700
vn 0.544300 -0.137300 0.827600
vn 0.670900 -0.084700 0.736700
vn -0.405100 -0.084600 -0.910400
vn 0.417100 -0.048400 0.907600
vn 0.698200 -0.137200 -0.702600
vn -0.693800 -0.137200 0.706900
vn -0.578200 -0.084800 0.811500
vn 0.804100 -0.084600 -0.588400
vn -0.004600 1.000000 -0.004400
vn 0.628200 0.469400 0.620500
vn 0.589600 -0.048300 -0.806300
vn 0.403100 0.151000 0.902600
vn 0.698900 -0.550500 -0.456600
vn -0.664700 0.151000 -0.731700
vn -0.745400 0.455300 0.487000
vn -0.419300 0.155000 -0.894500
vn -0.682000 -0.580100 0.445500
vn 0.650700 0.154700 0.743400
vn -0.004600 -1.000000 0.003000
vn 0.530400 0.263000 0.805900
vn -0.524900 0.263000 -0.809500
vn -0.798900 -0.048300 0.599500
vn -0.797100 0.151000 0.584700
vn 0.593900 -0.550600 0.586600
vn 0.574800 0.151000 -0.804200
vn -0.633500 0.455300 -0.625600
vn 0.785600 0.154700 -0.599100
vn -0.579500 -0.580100 -0.572400
vn -0.589200 0.154600 0.793100
vn -0.003800 -1.000000 -0.003900
vn -0.675600 0.263000 0.688700
vn 0.680300 0.263100 -0.684100
vn -0.660700 -0.137200 -0.738000
vn 0.665300 -0.137200 0.733900
vn 0.776300 -0.084700 0.624600
vn -0.540400 -0.084800 -0.837100
vn -0.004800 1.000000 0.004300
vn 0.656000 0.469400 -0.591000
vn -0.770500 -0.048200 -0.635600
vn 0.552000 -0.048200 0.832400
vn 0.537300 0.151000 0.829800
vn 0.620200 -0.550500 -0.558800
vn -0.769400 0.151000 -0.620700
vn -0.661500 0.455300 0.595900
vn -0.552200 0.154700 -0.819300
vn -0.605200 -0.580000 0.545300
vn 0.757400 0.154700 0.634400
vn -0.004100 -1.000000 0.003600
vn 0.648300 0.262600 0.714700
vn -0.643300 0.263100 -0.719000
usemtl Material.030
s 1
f 1/1/1 2/2/2 3/3/3 4/4/4
f 1/5/1 5/6/5 6/7/6 7/8/7
f 5/6/5 1/5/1 4/9/4 8/10/8
f 5/6/5 9/11/9 10/12/10 6/7/6
f 11/13/11 2/2/2 1/1/1 12/14/12
f 13/15/13 14/16/14 15/17/15 16/18/16
f 14/16/14 17/19/17 18/20/18 15/17/15
f 17/19/17 19/21/19 20/22/20 18/20/18
f 19/21/19 21/23/21 22/24/22 20/22/20
f 21/23/21 23/25/23 24/26/24 22/24/22
f 23/25/23 11/13/11 12/14/12 24/26/24
f 9/27/9 25/28/25 12/14/12 1/1/1
f 25/28/25 26/29/26 24/26/24 12/14/12
f 26/29/26 27/30/27 22/24/22 24/26/24
f 27/30/27 28/31/28 20/22/20 22/24/22
f 28/31/28 29/32/29 18/20/18 20/22/20
f 29/32/29 30/33/30 15/17/15 18/20/18
f 5/6/5 31/34/31 25/35/25 9/11/9
f 31/34/31 32/36/32 26/37/26 25/35/25
f 32/36/32 33/38/33 27/39/27 26/37/26
f 33/38/33 34/40/34 28/41/28 27/39/27
f 34/40/34 35/42/35 29/43/29 28/41/28
f 35/42/35 36/44/36 30/45/30 29/43/29
f 2/46/2 11/47/11 31/34/31 5/6/5
f 11/47/11 23/48/23 32/36/32 31/34/31
f 23/48/23 21/49/21 33/38/33 32/36/32
f 21/49/21 19/50/19 34/40/34 33/38/33
f 19/50/19 17/51/17 35/42/35 34/40/34
f 17/51/17 14/52/14 36/44/36 35/42/35
f 37/53/37 13/15/13 16/18/16 38/54/38
f 30/33/30 39/55/39 16/18/16 15/17/15
f 36/44/36 40/56/40 39/57/39 30/45/30
f 14/52/14 13/58/13 40/56/40 36/44/36
f 9/27/9 1/1/1 7/59/7 10/60/10
f 39/55/39 41/61/41 38/54/38 16/18/16
f 40/56/40 42/62/42 41/63/41 39/57/39
f 13/58/13 37/64/37 42/62/42 40/56/40
f 2/46/2 5/6/5 8/10/8 3/65/3
f 37/64/37 43/66/43 42/62/42
f 42/62/42 43/66/43 41/63/41
f 41/61/41 43/67/43 38/54/38
f 43/67/43 37/53/37 38/54/38
f 3/65/3 8/10/8 44/68/44 45/69/45
f 8/10/8 4/9/4 46/70/46 44/68/44
f 10/60/10 7/59/7 47/71/47 48/72/48
f 4/4/4 3/3/3 45/73/45 46/74/46
f 7/8/7 6/7/6 49/75/49 47/76/47
f 6/7/6 10/12/10 48/77/48 49/75/49
f 50/78/50 45/69/45 44/68/44 51/79/51
f 51/79/51 44/68/44 46/70/46 52/80/52
f 52/81/52 46/74/46 45/73/45 50/82/50
f 47/71/47 52/81/52 50/82/50 48/72/48
f 49/75/49 51/79/51 52/80/52 47/76/47
f 48/77/48 50/78/50 51/79/51 49/75/49
f 53/83/53 54/84/54 55/85/55 56/86/56
f 53/87/53 57/88/57 58/89/58 59/90/59
f 57/88/57 53/87/53 56/91/56 60/92/60
f 61/93/61 62/94/62 63/95/63 64/96/64
f 61/97/61 65/98/65 66/99/66 67/100/67
f 54/101/54 57/88/57 60/92/60 55/102/55
f 55/102/55 60/92/60 68/103/68 69/104/69
f 60/92/60 56/91/56 70/105/70 68/103/68
f 71/106/71 59/107/59 72/108/72 73/109/73
f 56/86/56 55/85/55 69/110/69 70/111/70
f 59/90/59 58/89/58 74/112/74 72/113/72
f 58/89/58 71/114/71 73/115/73 74/112/74
f 75/116/75 69/104/69 68/103/68 76/117/76
f 76/117/76 68/103/68 70/105/70 77/118/77
f 77/119/77 70/111/70 69/110/69 75/120/75
f 72/108/72 77/119/77 75/120/75 73/109/73
f 74/112/74 76/117/76 77/118/77 72/113/72
f 73/115/73 75/116/75 76/117/76 74/112/74
f 57/88/57 54/101/54 71/114/71 58/89/58
f 54/84/54 53/83/53 59/107/59 71/106/71
f 62/94/62 61/93/61 67/121/67 78/122/78
f 65/123/65 62/94/62 78/122/78 66/124/66
f 66/124/66 78/122/78 79/125/79 80/126/80
f 78/122/78 67/121/67 81/127/81 79/125/79
f 82/128/82 64/129/64 83/130/83 84/131/84
f 67/100/67 66/99/66 80/132/80 81/133/81
f 64/96/64 63/95/63 85/134/85 83/135/83
f 63/95/63 82/136/82 84/137/84 85/134/85
f 86/138/86 80/126/80 79/125/79 87/139/87
f 87/139/87 79/125/79 81/127/81 88/140/88
f 88/141/88 81/133/81 80/132/80 86/142/86
f 83/130/83 88/141/88 86/142/86 84/131/84
f 85/134/85 87/139/87 88/140/88 83/135/83
f 84/137/84 86/138/86 87/139/87 85/134/85
f 62/94/62 65/123/65 82/136/82 63/95/63
f 65/98/65 61/97/61 64/129/64 82/128/82
f 89/143/89 90/144/90 91/145/91 92/146/92
f 89/147/89 93/148/93 94/149/94 95/150/95
f 90/144/90 89/143/89 95/151/95 96/152/96
f 93/153/93 90/144/90 96/152/96 94/154/94
f 94/154/94 96/152/96 97/155/97 98/156/98
f 96/152/96 95/151/95 99/157/99 97/155/97
f 100/158/100 92/159/92 101/160/101 102/161/102
f 95/150/95 94/149/94 98/162/98 99/163/99
f 92/146/92 91/145/91 103/164/103 101/165/101
f 91/145/91 100/166/100 102/167/102 103/164/103
f 104/168/104 98/156/98 97/155/97 105/169/105
f 105/169/105 97/155/97 99/157/99 106/170/106
f 106/171/106 99/163/99 98/162/98 104/172/104
f 101/160/101 106/171/106 104/172/104 102/161/102
f 103/164/103 105/169/105 106/170/106 101/165/101
f 102/167/102 104/168/104 105/169/105 103/164/103
f 90/144/90 93/153/93 100/166/100 91/145/91
f 93/148/93 89/147/89 92/159/92 100/158/100
