# Blender v2.75 (sub 0) OBJ File: 'Axe.blend'
# www.blender.org
mtllib Axe.mtl
o Cube
v 0.015467 0.359186 -0.009449
v 0.015467 0.551087 -0.009449
v 0.015467 0.359186 0.012998
v 0.015467 0.551087 0.017310
v 0.010758 0.239146 -0.008175
v 0.010758 0.239146 0.006285
v 0.016015 -0.193136 -0.011762
v 0.016015 -0.193136 0.010244
v 0.010758 -0.042767 -0.008175
v 0.010758 -0.042767 0.006285
v 0.009879 -0.226270 -0.003357
v 0.009879 -0.226270 0.005463
v 0.016015 -0.209703 -0.011150
v 0.016015 -0.209703 0.009632
v 0.015467 0.380064 0.065847
v 0.012143 0.375838 0.094563
v 0.007883 0.363681 0.132560
v 0.015467 0.530209 0.065847
v 0.012143 0.534435 0.094563
v 0.007883 0.546592 0.132560
v 0.015467 0.374110 0.037108
v 0.015467 0.536163 0.037108
v 0.008197 0.561862 -0.007980
v 0.008197 0.561862 0.010936
v 0.005578 0.373514 0.154914
v 0.005578 0.536759 0.154914
v 0.004213 0.522567 0.172038
v 0.004213 0.387706 0.172038
v 0.002845 0.501215 0.189801
v 0.002845 0.409058 0.189801
v 0.002460 0.439670 0.202902
v 0.002460 0.470603 0.202902
v -0.015467 0.359186 -0.009449
v -0.015467 0.551087 -0.009449
v -0.015467 0.359186 0.012998
v -0.015467 0.551087 0.017310
v -0.010758 0.239146 -0.008175
v -0.010758 0.239146 0.006285
v -0.016015 -0.193136 -0.011762
v -0.016015 -0.193136 0.010244
v -0.010758 -0.042767 -0.008175
v -0.010758 -0.042767 0.006285
v -0.009879 -0.226270 -0.003357
v -0.009879 -0.226270 0.005463
v -0.016015 -0.209703 -0.011150
v -0.016015 -0.209703 0.009632
v -0.015467 0.380064 0.065847
v -0.012143 0.375838 0.094563
v -0.007883 0.363681 0.132560
v -0.015467 0.530209 0.065847
v -0.012143 0.534435 0.094563
v -0.007883 0.546592 0.132560
v -0.015467 0.374110 0.037108
v -0.015467 0.536163 0.037108
v -0.008197 0.561862 -0.007980
v -0.008197 0.561862 0.010936
v -0.005578 0.373514 0.154914
v -0.005578 0.536759 0.154914
v -0.004213 0.522567 0.172038
v -0.004213 0.387706 0.172038
v -0.002845 0.501215 0.189801
v -0.002845 0.409058 0.189801
v -0.002460 0.439670 0.202902
v -0.002460 0.470603 0.202902
v 0.000000 0.359186 -0.014013
v 0.000000 0.336371 0.154266
v 0.000000 0.551087 -0.014013
v 0.000000 0.573902 0.154266
v 0.000000 0.551087 0.017310
v 0.000000 0.359186 0.017310
v 0.000000 0.239146 -0.012739
v 0.000000 0.239146 0.011418
v 0.000000 -0.193136 -0.016326
v 0.000000 -0.193136 0.015005
v 0.000000 -0.042767 0.011418
v 0.000000 -0.042767 -0.012739
v 0.000000 -0.226270 -0.005434
v 0.000000 -0.226270 0.008677
v 0.000000 -0.209703 0.014393
v 0.000000 -0.209834 -0.013992
v 0.000000 0.530209 0.065847
v 0.000000 0.534435 0.094563
v 0.000000 0.546592 0.132219
v 0.000000 0.363681 0.132219
v 0.000000 0.375838 0.094563
v 0.000000 0.380064 0.065847
v 0.000000 0.374110 0.037108
v 0.000000 0.536163 0.037108
v 0.000000 0.357915 0.185572
v 0.000000 0.555906 0.184508
v 0.000000 0.390362 0.214810
v 0.000000 0.519911 0.214810
v 0.000000 0.433976 0.232079
v 0.000000 0.476297 0.232079
v 0.000000 0.561862 -0.007980
v 0.000000 0.561862 0.010936
vt 0.339439 0.728135
vt 0.374753 0.875930
vt 0.298122 0.873190
vt 0.257647 0.733636
vt 0.884245 0.876156
vt 0.854632 0.702190
vt 0.915617 0.703119
vt 0.941000 0.880334
vt 0.372198 0.883552
vt 0.295501 0.904851
vt 0.240612 0.701019
vt 0.332395 0.720771
vt 0.762022 0.700324
vt 0.791172 0.578735
vt 0.846768 0.578636
vt 0.908454 0.890571
vt 0.891338 0.885251
vt 0.807163 0.881198
vt 0.789876 0.306695
vt 0.744071 0.306944
vt 0.714187 0.163464
vt 0.778059 0.165978
vt 0.891570 0.578319
vt 0.708614 0.693067
vt 0.745426 0.578385
vt 0.788605 0.152349
vt 0.730797 0.145992
vt 0.784200 0.133418
vt 0.802912 0.140792
vt 0.845294 0.306660
vt 0.856074 0.165995
vt 0.890007 0.306884
vt 0.918889 0.163621
vt 0.825880 0.141655
vt 0.841395 0.133731
vt 0.845164 0.153281
vt 0.900451 0.146379
vt 0.236304 0.861544
vt 0.204078 0.747109
vt 0.672351 0.718386
vt 0.568179 0.727618
vt 0.554647 0.714899
vt 0.643053 0.705844
vt 0.463600 0.728737
vt 0.459184 0.718141
vt 0.728134 0.872411
vt 0.709945 0.886370
vt 0.611986 0.881404
vt 0.617033 0.867815
vt 0.510609 0.881844
vt 0.509323 0.870477
vt 0.793906 0.894792
vt 0.170920 0.844378
vt 0.148940 0.766578
vt 0.119456 0.819340
vt 0.112096 0.793280
vt 0.843626 0.896270
vt 0.840603 0.888949
vt 0.022493 0.825851
vt 0.012228 0.790302
vt 0.058827 0.752582
vt 0.145757 0.723016
vt 0.197316 0.890116
vt 0.090398 0.861403
vn 0.877000 -0.473000 -0.084100
vn 0.877000 0.472900 -0.084100
vn 0.992000 0.106200 0.067900
vn 0.991700 -0.107200 0.070900
vn 0.779400 0.276400 -0.562200
vn 0.809500 -0.017200 -0.586800
vn 0.000000 -0.008600 -0.999900
vn 0.000000 0.188200 -0.982100
vn 0.000000 0.957000 -0.289900
vn 0.000000 0.989800 0.142400
vn 0.000000 -0.989200 0.146800
vn 0.000000 -0.957000 -0.289900
vn 0.881300 -0.233100 0.411000
vn 0.834700 -0.028800 0.549900
vn 0.823100 -0.016900 -0.567600
vn 0.000000 0.834100 -0.551600
vn 0.417500 0.782200 -0.462400
vn 0.747900 0.527000 0.403400
vn 0.833600 0.019500 0.551900
vn 0.000000 0.016100 0.999800
vn 0.000000 -0.003000 1.000000
vn 0.807900 0.008700 0.589200
vn 0.000000 -0.008800 -0.999900
vn 0.000000 -0.534900 0.844900
vn 0.000000 -0.030500 0.999500
vn 0.791000 -0.202700 0.577100
vn 0.000000 -0.183100 0.983100
vn 0.000000 -0.764400 0.644700
vn 0.530800 -0.747900 0.398400
vn 0.823600 0.019300 -0.566800
vn 0.795600 -0.007700 -0.605800
vn 0.000000 0.015100 -0.999900
vn 0.000000 -0.029500 -0.999500
vn 0.509700 -0.777200 -0.369100
vn 0.000000 -0.827100 -0.562100
vn 0.746600 -0.262100 -0.611400
vn 0.000000 -0.279800 -0.960100
vn 0.994700 0.043900 0.092500
vn 0.994500 -0.045900 0.094400
vn 0.761500 -0.596900 0.252600
vn 0.757900 -0.648900 0.066200
vn 0.000000 -0.999600 0.029100
vn 0.000000 -0.920900 0.389700
vn 0.730300 -0.679400 -0.071000
vn 0.000000 -0.974000 -0.226400
vn 0.759900 0.592200 0.268100
vn 0.000000 0.911000 0.412400
vn 0.000000 0.999600 0.029100
vn 0.757900 0.648900 0.066200
vn 0.000000 0.974000 -0.226400
vn 0.730300 0.679400 -0.071000
vn 0.000000 0.666500 0.745500
vn 0.996300 0.024400 0.082300
vn 0.996300 -0.024900 0.082400
vn 0.998100 0.008300 0.060300
vn 0.998100 -0.008300 0.060300
vn 0.000000 0.868600 0.495400
vn 0.372800 0.837000 0.400500
vn 0.000000 0.172200 0.985000
vn 0.000000 -0.172200 0.985000
vn 0.000000 -0.453000 0.891500
vn 0.000000 -0.662700 0.748900
vn 0.000000 0.674500 0.738200
vn 0.000000 0.445500 0.895200
vn -0.877000 -0.473000 -0.084100
vn -0.991700 -0.107200 0.070900
vn -0.992000 0.106200 0.067900
vn -0.877000 0.472900 -0.084100
vn -0.779400 0.276400 -0.562200
vn -0.809500 -0.017200 -0.586800
vn -0.823100 -0.016900 -0.567600
vn -0.834700 -0.028800 0.549900
vn -0.881300 -0.233100 0.411000
vn -0.417500 0.782200 -0.462400
vn -0.747900 0.527000 0.403400
vn -0.833600 0.019500 0.551900
vn -0.807900 0.008700 0.589200
vn -0.791000 -0.202700 0.577100
vn -0.530800 -0.747900 0.398400
vn -0.823600 0.019300 -0.566800
vn -0.795600 -0.007700 -0.605800
vn -0.509700 -0.777200 -0.369100
vn -0.746600 -0.262100 -0.611400
vn -0.994500 -0.045900 0.094400
vn -0.994700 0.043900 0.092500
vn -0.761500 -0.596900 0.252600
vn -0.757900 -0.648900 0.066200
vn -0.730300 -0.679400 -0.071000
vn -0.759900 0.592200 0.268100
vn -0.757900 0.648900 0.066200
vn -0.730300 0.679400 -0.071000
vn -0.996300 -0.024900 0.082400
vn -0.996300 0.024400 0.082300
vn -0.998100 -0.008300 0.060300
vn -0.998100 0.008300 0.060300
vn -0.372800 0.837000 0.400500
usemtl Material
s 1
f 17/1/1 20/2/2 26/3/3 25/4/4
f 2/5/5 1/6/6 65/7/7 67/8/8
f 20/2/2 83/9/9 68/10/10 26/3/3
f 17/1/1 25/4/4 66/11/11 84/12/12
f 1/6/6 3/13/13 6/14/14 5/15/15
f 2/5/5 67/8/8 95/16/16 23/17/17
f 1/6/6 2/5/5 4/18/18 3/13/13
f 10/19/19 75/20/20 74/21/21 8/22/22
f 65/7/7 1/6/6 5/15/15 71/23/23
f 3/13/13 70/24/24 72/25/25 6/14/14
f 14/26/26 79/27/27 78/28/28 12/29/29
f 9/30/30 10/19/19 8/22/22 7/31/31
f 76/32/32 9/30/30 7/31/31 73/33/33
f 71/23/23 5/15/15 9/30/30 76/32/32
f 5/15/15 6/14/14 10/19/19 9/30/30
f 6/14/14 72/25/25 75/20/20 10/19/19
f 11/34/34 12/29/29 78/28/28 77/35/35
f 13/36/36 14/26/26 12/29/29 11/34/34
f 80/37/37 13/36/36 11/34/34 77/35/35
f 73/33/33 7/31/31 13/36/36 80/37/37
f 7/31/31 8/22/22 14/26/26 13/36/36
f 8/22/22 74/21/21 79/27/27 14/26/26
f 25/4/4 26/3/3 27/38/38 28/39/39
f 21/40/40 15/41/41 86/42/42 87/43/43
f 15/41/41 16/44/44 85/45/45 86/42/42
f 16/44/44 17/1/1 84/12/12 85/45/45
f 22/46/46 88/47/47 81/48/48 18/49/49
f 18/49/49 81/48/48 82/50/50 19/51/51
f 19/51/51 82/50/50 83/9/9 20/2/2
f 21/40/40 22/46/46 18/49/49 15/41/41
f 15/41/41 18/49/49 19/51/51 16/44/44
f 16/44/44 19/51/51 20/2/2 17/1/1
f 3/13/13 4/18/18 22/46/46 21/40/40
f 4/18/18 69/52/52 88/47/47 22/46/46
f 3/13/13 21/40/40 87/43/43 70/24/24
f 28/39/39 27/38/38 29/53/53 30/54/54
f 30/54/54 29/53/53 32/55/55 31/56/56
f 23/17/17 95/16/16 96/57/57 24/58/58
f 69/52/52 4/18/18 24/58/58 96/57/57
f 4/18/18 2/5/5 23/17/17 24/58/58
f 32/55/55 94/59/59 93/60/60 31/56/56
f 28/39/39 30/54/54 91/61/61 89/62/62
f 30/54/54 31/56/56 93/60/60 91/61/61
f 66/11/11 25/4/4 28/39/39 89/62/62
f 68/10/10 90/63/63 27/38/38 26/3/3
f 32/55/55 29/53/53 92/64/64 94/59/59
f 29/53/53 27/38/38 90/63/63 92/64/64
f 49/1/65 57/4/66 58/3/67 52/2/68
f 34/5/69 67/8/8 65/7/7 33/6/70
f 52/2/68 58/3/67 68/10/10 83/9/9
f 49/1/65 84/12/12 66/11/11 57/4/66
f 33/6/70 37/15/71 38/14/72 35/13/73
f 34/5/69 55/17/74 95/16/16 67/8/8
f 33/6/70 35/13/73 36/18/75 34/5/69
f 42/19/76 40/22/77 74/21/21 75/20/20
f 65/7/7 71/23/23 37/15/71 33/6/70
f 35/13/73 38/14/72 72/25/25 70/24/24
f 46/26/78 44/29/79 78/28/28 79/27/27
f 41/30/80 39/31/81 40/22/77 42/19/76
f 76/32/32 73/33/33 39/31/81 41/30/80
f 71/23/23 76/32/32 41/30/80 37/15/71
f 37/15/71 41/30/80 42/19/76 38/14/72
f 38/14/72 42/19/76 75/20/20 72/25/25
f 43/34/82 77/35/35 78/28/28 44/29/79
f 45/36/83 43/34/82 44/29/79 46/26/78
f 80/37/37 77/35/35 43/34/82 45/36/83
f 73/33/33 80/37/37 45/36/83 39/31/81
f 39/31/81 45/36/83 46/26/78 40/22/77
f 40/22/77 46/26/78 79/27/27 74/21/21
f 57/4/66 60/39/84 59/38/85 58/3/67
f 53/40/86 87/43/43 86/42/42 47/41/87
f 47/41/87 86/42/42 85/45/45 48/44/88
f 48/44/88 85/45/45 84/12/12 49/1/65
f 54/46/89 50/49/90 81/48/48 88/47/47
f 50/49/90 51/51/91 82/50/50 81/48/48
f 51/51/91 52/2/68 83/9/9 82/50/50
f 53/40/86 47/41/87 50/49/90 54/46/89
f 47/41/87 48/44/88 51/51/91 50/49/90
f 48/44/88 49/1/65 52/2/68 51/51/91
f 35/13/73 53/40/86 54/46/89 36/18/75
f 36/18/75 54/46/89 88/47/47 69/52/52
f 35/13/73 70/24/24 87/43/43 53/40/86
f 60/39/84 62/54/92 61/53/93 59/38/85
f 62/54/92 63/56/94 64/55/95 61/53/93
f 55/17/74 56/58/96 96/57/57 95/16/16
f 69/52/52 96/57/57 56/58/96 36/18/75
f 36/18/75 56/58/96 55/17/74 34/5/69
f 64/55/95 63/56/94 93/60/60 94/59/59
f 60/39/84 89/62/62 91/61/61 62/54/92
f 62/54/92 91/61/61 93/60/60 63/56/94
f 66/11/11 89/62/62 60/39/84 57/4/66
f 68/10/10 58/3/67 59/38/85 90/63/63
f 64/55/95 94/59/59 92/64/64 61/53/93
f 61/53/93 92/64/64 90/63/63 59/38/85
