# Blender v2.77 (sub 0) OBJ File: 'Light Armor Set_1.blend'
# www.blender.org
mtllib LAS_1_Foot_R.mtl
o Knight.028_proxy741.obj.028
v -0.102148 0.062503 0.087718
v -0.173296 0.078806 0.129911
v -0.232036 0.044231 0.060107
v -0.116464 0.046239 0.239021
v -0.162563 0.034009 0.265771
v -0.234495 0.035821 0.196112
v -0.180735 -0.003236 -0.065743
v -0.130929 -0.005547 -0.052223
v -0.102659 -0.004389 0.208206
v -0.114067 -0.001954 0.238333
v -0.220910 0.003565 0.034866
v -0.205318 -0.003123 0.001149
v -0.095982 0.007398 0.083566
v -0.108677 -0.000340 0.029599
v -0.125467 -0.005069 -0.001834
v -0.226893 -0.004587 0.206145
v -0.224344 -0.001573 0.102828
v -0.160796 -0.002360 0.267125
v -0.127280 0.045185 -0.069122
v -0.190530 0.045946 -0.077088
v -0.098963 0.033909 -0.020396
v -0.101941 0.040283 0.031197
v -0.221491 0.041336 -0.021770
v -0.188902 0.087779 -0.059027
v -0.180957 0.121795 0.081913
v -0.214256 0.083721 -0.006768
v -0.123156 0.121795 0.068772
v -0.213056 0.094268 0.037589
v -0.109235 0.093353 0.024793
v -0.112131 0.085791 -0.011324
v -0.139387 0.087364 -0.056189
v -0.176469 0.301568 0.084875
v -0.089775 0.300204 0.021342
v -0.215817 0.299304 -0.002270
v -0.105775 0.301193 0.070447
v -0.212418 0.300090 0.032169
v -0.187415 0.299882 -0.066762
v -0.120928 0.299015 -0.058357
v -0.089400 0.299381 -0.026831
v -0.215036 0.191513 -0.004519
v -0.114465 0.211494 0.069610
v -0.212737 0.197179 0.034879
v -0.188158 0.193831 -0.062894
v -0.130157 0.193190 -0.057273
v -0.178713 0.211682 0.083394
v -0.099505 0.196779 0.023067
v -0.100765 0.192586 -0.019077
v -0.228370 -0.002286 0.148623
v -0.096590 0.006312 0.120058
v -0.104914 0.054264 0.166516
v -0.233266 0.040026 0.160611
v -0.165382 0.056407 0.175407
v -0.179156 0.263776 0.093479
v -0.082807 0.262613 0.022871
v -0.222885 0.261845 -0.003371
v -0.100588 0.263456 0.077445
v -0.219107 0.262515 0.034903
v -0.191320 0.262338 -0.075044
v -0.117429 0.261598 -0.065703
v -0.082390 0.261910 -0.030667
vt 0.7948 0.1356
vt 0.8022 0.1192
vt 0.7941 0.1055
vt 0.7834 0.1143
vt 0.8692 0.0741
vt 0.8585 0.0643
vt 0.8506 0.0713
vt 0.8476 0.0859
vt 0.8198 0.0770
vt 0.8186 0.0888
vt 0.8321 0.0750
vt 0.8104 0.0881
vt 0.8045 0.0800
vt 0.7880 0.0924
vt 0.7942 0.0965
vt 0.7834 0.1052
vt 0.7517 0.0358
vt 0.7706 0.0553
vt 0.7690 0.0179
vt 0.7600 0.0215
vt 0.7957 0.0153
vt 0.7879 0.0553
vt 0.8017 0.0538
vt 0.8222 0.0522
vt 0.8232 0.0183
vt 0.8067 0.0149
vt 0.9036 0.0434
vt 0.8944 0.0318
vt 0.8862 0.0441
vt 0.8941 0.0557
vt 0.8329 0.0232
vt 0.8324 0.0473
vt 0.8525 0.0395
vt 0.8481 0.0245
vt 0.8092 0.1600
vt 0.7967 0.1611
vt 0.7946 0.1712
vt 0.8081 0.1759
vt 0.8753 0.0542
vt 0.8829 0.0656
vt 0.8114 0.1055
vt 0.9115 0.1020
vt 0.9244 0.0902
vt 0.9015 0.0664
vt 0.8893 0.0763
vt 0.7978 0.1453
vt 0.8150 0.1401
vt 0.9315 0.1231
vt 0.9247 0.1154
vt 0.9104 0.1293
vt 0.9178 0.1362
vt 0.8810 0.1429
vt 0.8933 0.1519
vt 0.9039 0.1371
vt 0.8889 0.1251
vt 0.9119 0.1434
vt 0.8705 0.1613
vt 0.8841 0.1695
vt 0.9022 0.1574
vt 0.8965 0.1148
vt 0.8270 0.1118
vt 0.8402 0.1459
vt 0.8516 0.1227
vt 0.8270 0.1619
vt 0.8234 0.1731
vt 0.9142 0.0563
vt 0.8735 0.0872
vt 0.8624 0.0988
vt 0.8600 0.1732
vt 0.9347 0.0806
vt 0.8539 0.1843
vt 0.8927 0.1744
vt 0.8772 0.1825
vt 0.8866 0.1869
vt 0.9389 0.1035
vt 0.8709 0.1959
vt 0.9493 0.0953
vt 0.8811 0.1991
vt 0.9551 0.1040
vt 0.9453 0.1113
vn 0.7795 -0.6262 0.0131
vn 0.7091 0.6784 0.1921
vn 0.5870 0.6322 0.5056
vn 0.7418 -0.6592 0.1229
vn -0.9452 -0.0509 -0.3223
vn -0.5450 -0.8333 -0.0926
vn -0.6604 -0.7486 -0.0590
vn -0.9866 0.1547 0.0522
vn -0.6509 -0.7570 -0.0569
vn -0.8603 0.4976 0.1109
vn -0.6133 -0.7891 -0.0321
vn -0.8098 0.4795 0.3380
vn -0.6693 -0.6669 0.3274
vn -0.0729 -0.5640 0.8225
vn -0.1213 0.5177 0.8469
vn 0.6079 -0.6040 0.5154
vn 0.6428 -0.7657 -0.0212
vn 0.7815 -0.6231 -0.0312
vn 0.9596 -0.1027 -0.2620
vn 0.4571 -0.8883 -0.0432
vn 0.4310 -0.7522 -0.4985
vn 0.5788 0.0291 -0.8149
vn -0.3003 -0.7167 -0.6294
vn 0.9979 0.0099 -0.0644
vn -0.4547 -0.0006 -0.8906
vn -0.1158 0.9719 0.2047
vn -0.5010 -0.0921 -0.8605
vn 0.4710 -0.1495 -0.8694
vn 0.5038 0.1681 -0.8473
vn -0.5172 0.1836 -0.8359
vn 0.8883 0.4147 0.1973
vn -0.4856 0.2367 -0.8415
vn -0.4834 0.0370 -0.8746
vn -0.9863 0.0380 -0.1606
vn -0.9700 0.1872 -0.1549
vn -0.3690 -0.0967 0.9243
vn -0.3595 0.0290 0.9326
vn -0.9399 0.0417 0.3389
vn -0.9413 -0.0475 0.3343
vn -0.9235 0.1885 0.3341
vn 0.6397 -0.1738 0.7487
vn 0.6685 -0.0150 0.7436
vn -0.3709 0.2318 0.8993
vn -0.9813 -0.0528 -0.1851
vn -0.1885 0.8880 0.4194
vn 0.7403 0.1986 0.6422
vn -0.4136 0.3134 0.8548
vn 0.9955 0.0833 0.0443
vn 0.9570 0.0952 -0.2741
vn -0.9621 0.1491 -0.2282
vn -0.9553 0.2022 0.2156
vn 0.9709 -0.1738 0.1649
vn 0.9275 -0.1884 -0.3229
vn 0.6526 0.2241 0.7237
vn 0.9856 -0.0358 0.1654
vn 0.9701 0.1861 0.1557
vn 0.4607 -0.0062 -0.8875
vn 0.9267 -0.0319 -0.3744
vn 0.9079 0.2070 -0.3644
vn 0.4303 0.2121 -0.8774
usemtl Light_Armor_Set_1
s 1
f 49/1/1 50/2/2 4/3/3 9/4/4
f 23/5/5 12/6/6 11/7/7 3/8/8
f 48/9/9 51/10/10 3/8/8 17/11/11
f 6/12/12 16/13/13 18/14/14 5/15/15
f 5/15/15 18/14/14 10/16/16 4/3/3
f 18/17/14 16/18/13 9/19/4 10/20/16
f 49/21/1 9/19/4 16/18/13 48/22/9
f 17/23/11 11/24/7 14/25/17 13/26/18
f 21/27/19 15/28/20 8/29/21 19/30/22
f 15/31/20 14/25/17 11/24/7 12/32/6
f 7/33/23 8/34/21 15/31/20 12/32/6
f 22/35/24 14/36/17 15/37/20 21/38/19
f 19/30/22 8/29/21 7/39/23 20/40/25
f 9/4/4 4/3/3 10/16/16
f 5/15/15 4/3/3 50/2/2 52/41/26
f 43/42/27 44/43/28 31/44/29 24/45/30
f 13/46/18 14/36/17 22/35/24 1/47/31
f 37/48/32 58/49/33 55/50/34 34/51/35
f 45/52/36 53/53/37 57/54/38 42/55/39
f 34/51/35 55/50/34 57/54/38 36/56/40
f 53/53/37 45/52/36 41/57/41 56/58/42
f 36/56/40 57/54/38 53/53/37 32/59/43
f 40/60/44 42/55/39 57/54/38 55/50/34
f 11/7/7 17/11/11 3/8/8
f 20/40/25 7/39/23 12/6/6 23/5/5
f 3/8/8 51/10/10 52/41/26 2/61/45
f 52/41/26 50/2/2 1/47/31 2/61/45
f 2/61/45 1/47/31 27/62/46 25/63/47
f 1/47/31 22/35/24 29/64/48 27/62/46
f 22/35/24 21/38/19 30/65/49 29/64/48
f 21/27/19 19/30/22 31/44/29 30/66/49
f 19/30/22 20/40/25 24/45/30 31/44/29
f 20/40/25 23/5/5 26/67/50 24/45/30
f 23/5/5 3/8/8 28/68/51 26/67/50
f 3/8/8 2/61/45 25/63/47 28/68/51
f 26/67/50 40/60/44 43/42/27 24/45/30
f 28/68/51 42/55/39 40/60/44 26/67/50
f 27/62/46 41/57/41 45/52/36 25/63/47
f 25/63/47 45/52/36 42/55/39 28/68/51
f 29/64/48 46/69/52 41/57/41 27/62/46
f 31/44/29 44/43/28 47/70/53 30/66/49
f 30/65/49 47/71/53 46/69/52 29/64/48
f 35/72/54 56/58/42 54/73/55 33/74/56
f 51/10/10 6/12/12 5/15/15 52/41/26
f 13/26/18 49/21/1 48/22/9 17/23/11
f 16/13/13 6/12/12 51/10/10 48/9/9
f 13/46/18 1/47/31 50/2/2 49/1/1
f 58/49/33 59/75/57 44/43/28 43/42/27
f 47/71/53 60/76/58 54/73/55 46/69/52
f 44/43/28 59/75/57 60/77/58 47/70/53
f 46/69/52 54/73/55 56/58/42 41/57/41
f 32/59/43 53/53/37 56/58/42 35/72/54
f 33/74/56 54/73/55 60/76/58 39/78/59
f 39/79/59 60/77/58 59/75/57 38/80/60
f 38/80/60 59/75/57 58/49/33 37/48/32
f 43/42/27 40/60/44 55/50/34 58/49/33
