# Blender v2.77 (sub 0) OBJ File: 'Light Armor Set_1.blend'
# www.blender.org
mtllib LAS_1_Hand_L.mtl
o Knight.020_proxy741.obj.018
v 0.763053 1.578817 0.143477
v 0.761756 1.604198 0.103284
v 0.763772 1.591501 0.052222
v 0.762008 1.536692 0.122761
v 0.764077 1.526601 0.077948
v 0.764200 1.548755 0.042781
v 0.778813 1.547297 0.156985
v 0.795927 1.568723 0.173826
v 0.822704 1.554022 0.198288
v 0.814712 1.527353 0.188485
v 0.842408 1.514319 0.213580
v 0.856569 1.538384 0.214784
v 0.848989 1.509418 0.195108
v 0.864880 1.533870 0.195919
v 0.848788 1.547423 0.173330
v 0.830516 1.524825 0.169818
v 0.807193 1.532546 0.138813
v 0.835665 1.558408 0.157427
v 0.829644 1.597497 0.137538
v 0.801188 1.603111 0.124821
v 0.792724 1.596298 0.063918
v 0.789899 1.536298 0.106484
v 0.791224 1.569248 0.040225
v 0.832572 1.593346 0.073144
v 0.833744 1.553835 0.036851
v 0.792515 1.533830 0.051215
v 0.833087 1.526864 0.049278
v 0.830621 1.544670 0.101867
v 0.866262 1.531485 0.044853
v 0.867666 1.537245 0.106153
v 0.870709 1.586605 0.088238
v 0.869416 1.558580 0.036695
v 0.858981 1.590214 0.148983
v 0.903408 1.576691 0.167776
v 0.916769 1.575564 0.101666
v 0.857583 1.560814 0.156032
v 0.916158 1.531453 0.034869
v 0.911907 1.508424 0.042524
v 0.904871 1.536683 0.113161
v 0.903685 1.544007 0.168367
v 0.957185 1.513932 0.066949
v 0.960195 1.517117 0.121426
v 0.967668 1.531344 0.065540
v 0.943828 1.532133 0.179741
v 0.951632 1.549656 0.181064
v 0.978562 1.538887 0.120106
v 0.690785 1.582867 0.145942
v 0.689194 1.614011 0.096623
v 0.691667 1.598430 0.033967
v 0.689503 1.531176 0.120523
v 0.692042 1.518793 0.065534
v 0.692192 1.545979 0.022382
vt 0.0781 0.0941
vt 0.0550 0.0917
vt 0.0656 0.0796
vt 0.0761 0.0706
vt 0.0704 0.0548
vt 0.0590 0.0589
vt 0.0555 0.0425
vt 0.0667 0.0385
vt 0.2410 0.1018
vt 0.2361 0.1109
vt 0.2305 0.1070
vt 0.2341 0.0982
vt 0.2218 0.0952
vt 0.2190 0.1072
vt 0.2006 0.1092
vt 0.2124 0.0935
vt 0.0831 0.0466
vt 0.0882 0.0552
vt 0.2225 0.1170
vt 0.0753 0.0361
vt 0.2024 0.1262
vt 0.1019 0.0690
vt 0.1007 0.0832
vt 0.1247 0.0978
vt 0.1262 0.1127
vt 0.1014 0.1043
vt 0.1857 0.1256
vt 0.1830 0.1117
vt 0.1406 0.1019
vt 0.1477 0.1167
vt 0.1272 0.0802
vt 0.1497 0.0837
vt 0.1581 0.1039
vt 0.1672 0.1196
vt 0.1622 0.0856
vt 0.1864 0.0924
vt 0.1622 0.0702
vt 0.1904 0.0750
vt 0.1279 0.0636
vt 0.1497 0.0690
vt 0.1051 0.0558
vt 0.1109 0.0383
vt 0.1307 0.0470
vt 0.0948 0.0484
vt 0.2134 0.0840
vt 0.1569 0.0501
vt 0.1657 0.0479
vt 0.1966 0.0597
vt 0.2205 0.0638
vt 0.1033 0.0283
vt 0.1809 0.0321
vt 0.2038 0.0350
vt 0.1486 0.0333
vt 0.1552 0.0303
vt 0.2275 0.0468
vt 0.1168 0.0189
vt 0.1190 0.0246
vt 0.1357 0.0263
vt 0.1393 0.0154
vt 0.1187 0.1470
vt 0.0925 0.1379
vt 0.0689 0.1287
vt 0.0438 0.1224
vt 0.0356 0.0846
vt 0.0200 0.1137
vt 0.1414 0.1519
vt 0.1632 0.1519
vn -0.3365 0.4205 0.8426
vn -0.1068 -0.8647 0.4908
vn -0.6725 -0.5431 0.5027
vn -0.3603 0.5033 0.7854
vn -0.1893 0.6514 0.7347
vn -0.6648 -0.5915 0.4562
vn -0.0823 -0.6830 0.7257
vn 0.4414 0.3125 0.8411
vn 0.3618 -0.9171 -0.1675
vn 0.9913 0.1083 -0.0748
vn 0.8198 0.4052 -0.4046
vn 0.1789 -0.8445 -0.5048
vn 0.1260 -0.9893 -0.0725
vn 0.7367 0.0814 0.6713
vn 0.1559 0.8920 0.4242
vn 0.0180 0.9617 0.2736
vn 0.0948 0.8659 -0.4911
vn 0.1157 0.7217 -0.6825
vn 0.0215 0.9903 0.1369
vn 0.1335 -0.9824 0.1307
vn -0.0024 0.2024 -0.9793
vn 0.0968 -0.3672 -0.9250
vn 0.1847 0.8995 -0.3959
vn 0.0304 0.1441 -0.9891
vn -0.0457 -0.8419 -0.5376
vn 0.1390 -0.9816 -0.1305
vn -0.0577 -0.8936 -0.4451
vn 0.0936 -0.9796 0.1774
vn -0.1759 -0.8113 -0.5575
vn -0.1758 -0.9518 0.2514
vn 0.2689 0.9222 -0.2777
vn 0.1468 0.4099 -0.9002
vn 0.0262 0.8036 0.5946
vn 0.0797 0.7137 0.6959
vn 0.4007 0.8948 -0.1969
vn -0.2657 -0.4326 0.8615
vn 0.3100 0.1938 -0.9308
vn -0.0398 -0.8620 -0.5054
vn -0.2685 -0.9397 0.2120
vn -0.3679 -0.5727 0.7325
vn 0.4220 -0.8574 -0.2945
vn 0.3643 -0.9053 0.2184
vn 0.8328 0.1252 -0.5392
vn 0.1001 -0.6780 0.7282
vn 0.5484 0.2768 0.7891
vn 0.9805 0.1940 0.0302
vn 0.2427 0.6652 -0.7060
vn 0.1206 0.9835 0.1350
vn 0.0489 0.2910 0.9554
vn 0.0416 -0.7935 0.6071
vn 0.1386 -0.9713 -0.1931
vn 0.2679 -0.3486 -0.8981
usemtl Light_Armor_Set_1
s 1
f 1/1/1 4/2/2 7/3/3 8/4/4
f 9/5/5 10/6/6 11/7/7 12/8/8
f 12/9/8 11/10/7 13/11/9 14/12/10
f 15/13/11 16/14/12 17/15/13 18/16/14
f 9/5/5 15/17/11 18/18/14 8/4/4
f 10/19/6 16/14/12 13/11/9 11/10/7
f 8/4/4 7/3/3 10/6/6 9/5/5
f 14/12/10 13/11/9 16/14/12 15/13/11
f 12/8/8 14/20/10 15/17/11 9/5/5
f 7/21/3 17/15/13 16/14/12 10/19/6
f 8/4/4 18/18/14 19/22/15 20/23/16
f 21/24/17 3/25/18 2/26/19 20/23/16
f 1/1/1 8/4/4 20/23/16 2/26/19
f 4/27/2 22/28/20 17/15/13 7/21/3
f 3/25/18 21/24/17 23/29/21 6/30/22
f 23/29/21 21/24/17 24/31/23 25/32/24
f 26/33/25 5/34/26 6/30/22 23/29/21
f 26/33/25 23/29/21 25/32/24 27/35/27
f 22/28/20 4/27/2 5/34/26 26/33/25
f 22/28/20 26/33/25 27/35/27 28/36/28
f 28/36/28 18/16/14 17/15/13 22/28/20
f 28/36/28 27/35/27 29/37/29 30/38/30
f 25/32/24 24/31/23 31/39/31 32/40/32
f 33/41/33 34/42/34 35/43/35 31/39/31
f 27/35/27 25/32/24 32/40/32 29/37/29
f 19/22/15 18/18/14 36/44/36 33/41/33
f 18/16/14 28/36/28 30/38/30 36/45/36
f 29/37/29 32/40/32 37/46/37 38/47/38
f 24/31/23 19/22/15 33/41/33 31/39/31
f 36/45/36 30/38/30 39/48/39 40/49/40
f 33/41/33 36/44/36 40/50/40 34/42/34
f 30/38/30 29/37/29 38/47/38 39/48/39
f 39/48/39 38/47/38 41/51/41 42/52/42
f 38/47/38 37/46/37 43/53/43 41/54/41
f 21/24/17 20/23/16 19/22/15 24/31/23
f 40/49/40 39/48/39 42/52/42 44/55/44
f 34/42/34 40/50/40 44/56/44 45/57/45
f 46/58/46 42/59/42 41/54/41 43/53/43
f 44/56/44 42/59/42 46/58/46 45/57/45
f 31/39/31 35/43/35 37/46/37 32/40/32
f 35/43/35 46/58/46 43/53/43 37/46/37
f 34/42/34 45/57/45 46/58/46 35/43/35
f 2/26/19 3/25/18 49/60/47 48/61/48
f 4/2/2 1/1/1 47/62/49 50/63/50
f 5/64/26 4/2/2 50/63/50 51/65/51
f 1/1/1 2/26/19 48/61/48 47/62/49
f 3/25/18 6/30/22 52/66/52 49/60/47
f 6/30/22 5/34/26 51/67/51 52/66/52
