# Blender v2.77 (sub 0) OBJ File: 'Light Armor Set_1.blend'
# www.blender.org
mtllib LAS_1_Head.mtl
o Knight.001_proxy741.obj.006
v 0.039443 1.870096 0.217132
v 0.077529 1.867423 0.155759
v 0.103543 1.774718 0.142349
v 0.112494 1.797625 0.092815
v 0.101299 1.817305 0.049635
v 0.054514 1.837066 0.003456
v 0.077679 1.882719 0.136428
v 0.123108 1.677327 0.129972
v 0.074446 1.702185 0.060188
v 0.057840 1.714064 0.028134
v 0.075255 1.685118 0.084991
v 0.078971 1.883803 0.111385
v 0.041191 1.918535 0.158497
v 0.045464 1.917695 0.089313
v 0.033355 1.718291 0.005455
v 0.020836 1.715650 -0.027155
v 0.097609 1.713076 0.006838
v 0.130283 1.700388 0.065700
v 0.082075 1.676863 0.185272
v 0.068654 1.755819 0.197385
v 0.040469 1.673297 0.126350
v 0.033871 1.826253 0.231152
v 0.089043 1.837375 0.155745
v 0.093018 1.851626 0.117337
v 0.089411 1.865960 0.085756
v 0.041680 1.791271 -0.016646
v 0.100846 1.766642 0.021927
v 0.129058 1.743496 0.070462
v 0.123585 1.714339 0.132864
v 0.082016 1.695617 0.191384
v 0.049927 1.897546 0.050370
v 0.079395 1.677153 0.057605
v 0.061645 1.689032 0.021464
v 0.079324 1.661287 0.088895
v 0.037159 1.693259 -0.001215
v 0.041812 1.647769 0.131511
v 0.091571 1.665457 0.056179
v 0.074332 1.676369 0.011971
v 0.087291 1.639183 0.094047
v 0.039926 1.672509 -0.014962
v 0.043412 1.626701 0.142853
v 0.105518 1.668362 0.110217
v 0.030788 1.685900 -0.016770
v 0.080053 1.695590 0.012503
v 0.108466 1.688816 0.060952
v 0.071337 1.667015 0.149295
v 0.053149 1.793236 0.207485
v 0.052220 1.867306 0.026913
v 0.103675 1.823786 0.103953
v 0.096991 1.805974 0.149989
v 0.096077 1.842396 0.066412
v -0.039443 1.870096 0.217132
v -0.077529 1.867423 0.155759
v -0.103543 1.774718 0.142349
v -0.112494 1.797625 0.092815
v -0.101299 1.817305 0.049635
v -0.054514 1.837066 0.003456
v -0.077679 1.882719 0.136428
v -0.123108 1.677327 0.129972
v -0.074446 1.702185 0.060188
v -0.057840 1.714064 0.028134
v -0.075255 1.685118 0.084991
v -0.078971 1.883803 0.111385
v -0.041191 1.918535 0.158497
v -0.045464 1.917695 0.089313
v -0.033355 1.718291 0.005455
v 0.000000 1.718755 0.002140
v 0.000000 1.845896 -0.012828
v 0.000000 1.874261 0.230913
v 0.000000 1.926449 0.163168
v 0.000000 1.931147 0.086137
v -0.020836 1.715650 -0.027155
v -0.000000 1.715797 -0.033577
v -0.097609 1.713076 0.006838
v -0.130283 1.700388 0.065700
v -0.082075 1.676863 0.185272
v -0.068654 1.755819 0.197385
v -0.040469 1.673297 0.126350
v -0.033871 1.826253 0.231152
v -0.089043 1.837375 0.155745
v -0.093018 1.851626 0.117337
v -0.089411 1.865960 0.085756
v -0.041680 1.791271 -0.016646
v 0.000000 1.799567 -0.032030
v -0.100846 1.766642 0.021927
v -0.129058 1.743496 0.070462
v -0.123585 1.714339 0.132864
v -0.082016 1.695617 0.191384
v 0.000000 1.825511 0.244122
v -0.049927 1.897546 0.050370
v 0.000000 1.916645 0.044695
v -0.079395 1.677153 0.057605
v -0.061645 1.689032 0.021464
v -0.079324 1.661287 0.088895
v -0.037159 1.693259 -0.001215
v 0.000000 1.693724 -0.004530
v -0.041812 1.647769 0.131511
v -0.091571 1.665457 0.056179
v -0.074332 1.676369 0.011971
v -0.087291 1.639183 0.094047
v -0.039926 1.672509 -0.014962
v 0.000000 1.674395 -0.023477
v -0.043412 1.626701 0.142853
v -0.105518 1.668362 0.110217
v -0.030788 1.685900 -0.016770
v 0.000000 1.682918 -0.022448
v -0.080053 1.695590 0.012503
v -0.108466 1.688816 0.060952
v -0.071337 1.667015 0.149295
v 0.000000 1.665040 0.146069
v 0.000000 1.638755 0.143627
v 0.000000 1.614994 0.148485
v -0.053149 1.793236 0.207485
v -0.052220 1.867306 0.026913
v 0.000000 1.881270 0.015933
v -0.103675 1.823786 0.103953
v -0.096991 1.805974 0.149989
v -0.096077 1.842396 0.066412
v 0.039443 1.870096 0.217132
v 0.077529 1.867423 0.155759
v 0.103543 1.774718 0.142349
v 0.112494 1.797625 0.092815
v 0.101299 1.817305 0.049635
v 0.054514 1.837066 0.003456
v 0.077679 1.882719 0.136428
v 0.123108 1.677327 0.129972
v 0.074446 1.702185 0.060188
v 0.057840 1.714064 0.028134
v 0.075255 1.685118 0.084991
v 0.078971 1.883803 0.111385
v 0.041191 1.918535 0.158497
v 0.045464 1.917695 0.089313
v 0.033355 1.718291 0.005455
v 0.020836 1.715650 -0.027155
v 0.097609 1.713076 0.006838
v 0.130283 1.700388 0.065700
v 0.082075 1.676863 0.185272
v 0.068654 1.755819 0.197385
v 0.040469 1.673297 0.126350
v 0.033871 1.826253 0.231152
v 0.089043 1.837375 0.155745
v 0.093018 1.851626 0.117337
v 0.089411 1.865960 0.085756
v 0.041680 1.791271 -0.016646
v 0.100846 1.766642 0.021927
v 0.129058 1.743496 0.070462
v 0.123585 1.714339 0.132864
v 0.082016 1.695617 0.191384
v 0.049927 1.897546 0.050370
v 0.105518 1.668362 0.110217
v 0.030788 1.685900 -0.016770
v 0.080053 1.695590 0.012503
v 0.108466 1.688816 0.060952
v 0.071337 1.667015 0.149295
v 0.053149 1.793236 0.207485
v 0.052220 1.867306 0.026913
v 0.103675 1.823786 0.103953
v 0.096991 1.805974 0.149989
v 0.096077 1.842396 0.066412
v -0.039443 1.870096 0.217132
v -0.077529 1.867423 0.155759
v -0.103543 1.774718 0.142349
v -0.112494 1.797625 0.092815
v -0.101299 1.817305 0.049635
v -0.054514 1.837066 0.003456
v -0.077679 1.882719 0.136428
v -0.123108 1.677327 0.129972
v -0.074446 1.702185 0.060188
v -0.057840 1.714064 0.028134
v -0.075255 1.685118 0.084991
v -0.078971 1.883803 0.111385
v -0.041191 1.918535 0.158497
v -0.045464 1.917695 0.089313
v -0.033355 1.718291 0.005455
v 0.000000 1.718755 0.002140
v 0.000000 1.845896 -0.012828
v 0.000000 1.874261 0.230913
v 0.000000 1.926449 0.163168
v 0.000000 1.931147 0.086137
v -0.020836 1.715650 -0.027155
v -0.000000 1.715797 -0.033577
v -0.097609 1.713076 0.006838
v -0.130283 1.700388 0.065700
v -0.082075 1.676863 0.185272
v -0.068654 1.755819 0.197385
v -0.040469 1.673297 0.126350
v -0.033871 1.826253 0.231152
v -0.089043 1.837375 0.155745
v -0.093018 1.851626 0.117337
v -0.089411 1.865960 0.085756
v -0.041680 1.791271 -0.016646
v 0.000000 1.799567 -0.032030
v -0.100846 1.766642 0.021927
v -0.129058 1.743496 0.070462
v -0.123585 1.714339 0.132864
v -0.082016 1.695617 0.191384
v 0.000000 1.825511 0.244122
v -0.049927 1.897546 0.050370
v 0.000000 1.916645 0.044695
v -0.105518 1.668362 0.110217
v -0.030788 1.685900 -0.016770
v 0.000000 1.682918 -0.022448
v -0.080053 1.695590 0.012503
v -0.108466 1.688816 0.060952
v -0.071337 1.667015 0.149295
v 0.000000 1.665040 0.146069
v -0.053149 1.793236 0.207485
v -0.052220 1.867306 0.026913
v 0.000000 1.881270 0.015933
v -0.103675 1.823786 0.103953
v -0.096991 1.805974 0.149989
v -0.096077 1.842396 0.066412
vt 0.1030 0.8063
vt 0.0343 0.8465
vt 0.0245 0.8232
vt 0.0837 0.7827
vt 0.1307 0.7607
vt 0.1766 0.7381
vt 0.1873 0.7748
vt 0.1498 0.7856
vt 0.2143 0.8489
vt 0.2122 0.8603
vt 0.1963 0.8479
vt 0.2084 0.8349
vt 0.1835 0.8712
vt 0.2048 0.8709
vt 0.2223 0.9149
vt 0.1962 0.9691
vt 0.1702 0.8199
vt 0.1381 0.8457
vt 0.2021 0.8212
vt 0.1824 0.8345
vt 0.1962 0.8067
vt 0.2279 0.7963
vt 0.2303 0.8129
vt 0.0282 0.7712
vt 0.0201 0.7237
vt 0.0877 0.7138
vt 0.0827 0.7597
vt 0.2343 0.8717
vt 0.2528 0.7943
vt 0.2527 0.8131
vt 0.2278 0.7026
vt 0.1764 0.7175
vt 0.1688 0.6811
vt 0.2083 0.6652
vt 0.2302 0.7711
vt 0.2373 0.7243
vt 0.2530 0.7231
vt 0.2528 0.7716
vt 0.2524 0.9252
vt 0.2526 0.8748
vt 0.2526 0.8451
vt 0.2354 0.8444
vt 0.2530 0.7024
vt 0.2532 0.6551
vt 0.1264 0.7398
vt 0.1244 0.6995
vt 0.2338 0.8279
vt 0.2527 0.8301
vt 0.1600 0.8619
vt 0.1437 0.9393
vt 0.0931 0.9091
vt 0.2522 0.9853
vt 0.6909 0.6230
vt 0.6602 0.6084
vt 0.6613 0.5922
vt 0.6948 0.6084
vt 0.7214 0.6774
vt 0.7111 0.6591
vt 0.7248 0.6492
vt 0.7361 0.6688
vt 0.6992 0.6392
vt 0.7089 0.6263
vt 0.7289 0.6973
vt 0.7443 0.6917
vt 0.7150 0.6174
vt 0.7345 0.6410
vt 0.7513 0.6629
vt 0.7610 0.6872
vt 0.6608 0.5773
vt 0.6986 0.5939
vt 0.6335 0.5854
vt 0.6339 0.5701
vt 0.6331 0.6017
vt 0.4025 0.8071
vt 0.4220 0.7837
vt 0.4809 0.8245
vt 0.4710 0.8477
vt 0.3750 0.7614
vt 0.3558 0.7862
vt 0.3183 0.7751
vt 0.3293 0.7386
vt 0.2909 0.8491
vt 0.2970 0.8352
vt 0.3090 0.8482
vt 0.2929 0.8605
vt 0.3216 0.8715
vt 0.3084 0.9695
vt 0.2826 0.9151
vt 0.3003 0.8711
vt 0.3672 0.8463
vt 0.3352 0.8204
vt 0.3033 0.8215
vt 0.3093 0.8070
vt 0.3229 0.8349
vt 0.2752 0.8130
vt 0.2777 0.7964
vt 0.4775 0.7724
vt 0.4230 0.7606
vt 0.4183 0.7147
vt 0.4859 0.7250
vt 0.2708 0.8718
vt 0.2782 0.7027
vt 0.2980 0.6654
vt 0.3374 0.6816
vt 0.3295 0.7179
vt 0.2755 0.7713
vt 0.2687 0.7244
vt 0.2699 0.8445
vt 0.3817 0.7003
vt 0.3794 0.7406
vt 0.2716 0.8280
vt 0.3451 0.8624
vt 0.3611 0.9399
vt 0.4118 0.9100
vt 0.5743 0.6201
vt 0.5712 0.6052
vt 0.6055 0.5908
vt 0.6057 0.6070
vt 0.5411 0.6728
vt 0.5268 0.6635
vt 0.5392 0.6445
vt 0.5523 0.6551
vt 0.5652 0.6358
vt 0.5562 0.6224
vt 0.5327 0.6923
vt 0.5175 0.6860
vt 0.5299 0.6358
vt 0.5506 0.6132
vt 0.5011 0.6806
vt 0.5120 0.6568
vt 0.5681 0.5906
vt 0.6067 0.5760
vt 0.1030 0.8063
vt 0.0837 0.7827
vt 0.0245 0.8232
vt 0.0343 0.8465
vt 0.1307 0.7607
vt 0.1498 0.7856
vt 0.1873 0.7748
vt 0.1766 0.7381
vt 0.2143 0.8489
vt 0.2084 0.8349
vt 0.1963 0.8479
vt 0.2122 0.8603
vt 0.1835 0.8712
vt 0.1962 0.9691
vt 0.2223 0.9149
vt 0.2048 0.8709
vt 0.1381 0.8457
vt 0.1702 0.8199
vt 0.2021 0.8212
vt 0.1962 0.8067
vt 0.1824 0.8345
vt 0.2303 0.8129
vt 0.2279 0.7963
vt 0.0282 0.7712
vt 0.0827 0.7597
vt 0.0877 0.7138
vt 0.0201 0.7237
vt 0.2343 0.8717
vt 0.2527 0.8131
vt 0.2528 0.7943
vt 0.2278 0.7026
vt 0.2083 0.6652
vt 0.1688 0.6811
vt 0.1764 0.7175
vt 0.2302 0.7711
vt 0.2528 0.7716
vt 0.2530 0.7231
vt 0.2373 0.7243
vt 0.2524 0.9252
vt 0.2526 0.8748
vt 0.2526 0.8451
vt 0.2354 0.8444
vt 0.2530 0.7024
vt 0.2532 0.6551
vt 0.1244 0.6995
vt 0.1264 0.7398
vt 0.2527 0.8301
vt 0.2338 0.8279
vt 0.1600 0.8619
vt 0.1437 0.9393
vt 0.0931 0.9091
vt 0.2522 0.9853
vt 0.4025 0.8071
vt 0.4710 0.8477
vt 0.4809 0.8245
vt 0.4220 0.7837
vt 0.3750 0.7614
vt 0.3293 0.7386
vt 0.3183 0.7751
vt 0.3558 0.7862
vt 0.2909 0.8491
vt 0.2929 0.8605
vt 0.3090 0.8482
vt 0.2970 0.8352
vt 0.3216 0.8715
vt 0.3003 0.8711
vt 0.2826 0.9151
vt 0.3084 0.9695
vt 0.3352 0.8204
vt 0.3672 0.8463
vt 0.3033 0.8215
vt 0.3229 0.8349
vt 0.3093 0.8070
vt 0.2777 0.7964
vt 0.2752 0.8130
vt 0.4775 0.7724
vt 0.4859 0.7250
vt 0.4183 0.7147
vt 0.4230 0.7606
vt 0.2708 0.8718
vt 0.2782 0.7027
vt 0.3295 0.7179
vt 0.3374 0.6816
vt 0.2980 0.6654
vt 0.2755 0.7713
vt 0.2687 0.7244
vt 0.2699 0.8445
vt 0.3794 0.7406
vt 0.3817 0.7003
vt 0.2716 0.8280
vt 0.3451 0.8624
vt 0.3611 0.9399
vt 0.4118 0.9100
vn 0.9278 0.0676 0.3668
vn 0.8116 0.0220 0.5837
vn 0.7261 -0.4562 0.5143
vn 0.7823 -0.5779 0.2327
vn 0.8916 -0.3650 -0.2678
vn 0.6556 -0.2414 -0.7154
vn 0.7651 0.1792 -0.6185
vn 0.9788 0.1556 -0.1328
vn 0.8114 0.5843 -0.0168
vn 0.8248 0.5274 0.2038
vn 0.9375 0.3240 0.1266
vn 0.8602 0.4797 -0.1732
vn 0.8874 0.1940 0.4181
vn 0.8404 0.3558 0.4087
vn 0.5635 0.4482 0.6940
vn 0.6148 0.1875 0.7660
vn 0.9669 0.2537 0.0263
vn 0.8926 0.1725 0.4165
vn 0.8677 0.4111 -0.2793
vn 0.9612 0.2608 0.0890
vn 0.8480 0.3392 -0.4073
vn 0.5355 0.4237 -0.7305
vn 0.5396 0.5563 -0.6319
vn 0.0878 -0.9960 -0.0163
vn 0.5654 -0.3548 0.7446
vn 0.6634 -0.7425 -0.0924
vn 0.2092 -0.9585 -0.1937
vn 0.4954 0.8107 0.3120
vn 0.0000 0.4952 -0.8687
vn 0.0000 0.6297 -0.7768
vn 0.1757 -0.9655 -0.1921
vn 0.1035 -0.9334 -0.3436
vn 0.4683 -0.8643 -0.1835
vn 0.2241 -0.9561 -0.1889
vn 0.4617 0.1836 -0.8678
vn 0.3592 -0.1295 -0.9242
vn 0.0000 -0.1292 -0.9916
vn 0.0000 0.2026 -0.9792
vn 0.0000 0.5344 0.8452
vn 0.0000 0.9352 0.3540
vn 0.0000 0.9841 -0.1775
vn 0.5113 0.8468 -0.1463
vn 0.0000 -0.9728 -0.2314
vn 0.0000 -0.9315 -0.3635
vn 0.2085 -0.9113 -0.3549
vn 0.4777 -0.8044 -0.3531
vn 0.5455 0.6804 -0.4893
vn 0.0000 0.8137 -0.5813
vn 0.8954 0.1466 0.4204
vn 0.7975 0.0774 0.5983
vn 0.7994 0.1250 0.5877
vn 0.0000 0.2619 0.9651
vn 0.4815 0.2658 0.8352
vn 0.7888 0.3620 0.4968
vn 0.7299 0.5018 -0.4642
vn 0.3830 0.4919 -0.7818
vn 0.8904 0.4552 -0.0002
vn 0.0000 0.4647 -0.8855
vn 0.7655 0.6164 0.1847
vn 0.6129 0.7121 -0.3425
vn 0.3041 0.6479 -0.6984
vn 0.0000 0.6378 -0.7702
vn 0.3189 0.3769 0.8696
vn 0.6901 0.4391 0.5753
vn 0.0000 0.2280 0.9736
vn 0.0000 0.3434 0.9392
vn 0.0000 0.0620 0.9980
vn -0.9278 0.0676 0.3668
vn -0.7823 -0.5779 0.2327
vn -0.7261 -0.4562 0.5143
vn -0.8116 0.0220 0.5837
vn -0.8916 -0.3650 -0.2678
vn -0.9788 0.1556 -0.1328
vn -0.7651 0.1792 -0.6185
vn -0.6556 -0.2414 -0.7154
vn -0.8114 0.5843 -0.0168
vn -0.8602 0.4797 -0.1732
vn -0.9375 0.3240 0.1266
vn -0.8248 0.5274 0.2038
vn -0.8874 0.1940 0.4181
vn -0.6148 0.1875 0.7660
vn -0.5635 0.4482 0.6940
vn -0.8404 0.3558 0.4087
vn -0.8926 0.1725 0.4165
vn -0.9669 0.2537 0.0263
vn -0.8677 0.4111 -0.2793
vn -0.8480 0.3392 -0.4073
vn -0.9612 0.2608 0.0890
vn -0.5396 0.5563 -0.6319
vn -0.5355 0.4237 -0.7305
vn -0.0878 -0.9960 -0.0163
vn -0.2092 -0.9585 -0.1937
vn -0.6634 -0.7425 -0.0924
vn -0.5654 -0.3548 0.7446
vn -0.4954 0.8107 0.3120
vn -0.1757 -0.9655 -0.1921
vn -0.2241 -0.9561 -0.1889
vn -0.4683 -0.8643 -0.1835
vn -0.1035 -0.9334 -0.3436
vn -0.4617 0.1836 -0.8678
vn -0.3592 -0.1295 -0.9242
vn -0.5113 0.8468 -0.1463
vn -0.4777 -0.8044 -0.3531
vn -0.2085 -0.9113 -0.3549
vn -0.5455 0.6804 -0.4893
vn -0.8954 0.1466 0.4204
vn -0.7975 0.0774 0.5983
vn -0.7994 0.1250 0.5877
vn -0.7888 0.3620 0.4968
vn -0.4815 0.2658 0.8352
vn -0.3830 0.4919 -0.7818
vn -0.7299 0.5018 -0.4642
vn -0.8904 0.4552 -0.0002
vn -0.6129 0.7121 -0.3425
vn -0.7655 0.6164 0.1847
vn -0.3041 0.6479 -0.6984
vn -0.6901 0.4391 0.5753
vn -0.3189 0.3769 0.8696
vn -0.9278 -0.0676 -0.3668
vn -0.7823 0.5779 -0.2327
vn -0.7261 0.4562 -0.5143
vn -0.8116 -0.0220 -0.5837
vn -0.8916 0.3650 0.2678
vn -0.9788 -0.1556 0.1328
vn -0.7651 -0.1792 0.6185
vn -0.6556 0.2414 0.7154
vn -0.8114 -0.5843 0.0168
vn -0.8602 -0.4797 0.1732
vn -0.9375 -0.3240 -0.1266
vn -0.8248 -0.5274 -0.2038
vn -0.8874 -0.1940 -0.4181
vn -0.6148 -0.1875 -0.7660
vn -0.5635 -0.4482 -0.6940
vn -0.8404 -0.3558 -0.4087
vn -0.8926 -0.1725 -0.4165
vn -0.9669 -0.2537 -0.0263
vn -0.8677 -0.4111 0.2793
vn -0.8480 -0.3392 0.4073
vn -0.9612 -0.2608 -0.0890
vn -0.5396 -0.5563 0.6319
vn -0.5355 -0.4237 0.7305
vn -0.0878 0.9960 0.0163
vn -0.2092 0.9585 0.1937
vn 0.1941 0.9034 0.3822
vn 0.1406 0.9507 0.2762
vn -0.4954 -0.8107 -0.3120
vn 0.0000 -0.6297 0.7768
vn 0.0000 -0.4952 0.8687
vn -0.1757 0.9655 0.1921
vn 0.2768 0.6167 -0.7368
vn 0.4646 0.7874 -0.4052
vn -0.1035 0.9334 0.3436
vn -0.4617 -0.1836 0.8678
vn 0.0000 -0.2026 0.9792
vn 0.0000 0.1292 0.9916
vn -0.3592 0.1295 0.9242
vn 0.0000 -0.5344 -0.8452
vn 0.0000 -0.9352 -0.3540
vn 0.0000 -0.9841 0.1775
vn -0.5113 -0.8468 0.1463
vn 0.0000 0.9728 0.2314
vn 0.0000 0.5633 -0.8262
vn 0.3978 0.9075 0.1350
vn -0.2085 0.9113 0.3549
vn 0.0000 -0.8137 0.5813
vn -0.5455 -0.6804 0.4893
vn -0.8954 -0.1466 -0.4204
vn -0.7975 -0.0774 -0.5983
vn -0.7994 -0.1250 -0.5877
vn 0.0000 -0.2619 -0.9651
vn 0.9278 -0.0676 -0.3668
vn 0.8116 -0.0220 -0.5837
vn 0.7261 0.4562 -0.5143
vn 0.7823 0.5779 -0.2327
vn 0.8916 0.3650 0.2678
vn 0.6556 0.2414 0.7154
vn 0.7651 -0.1792 0.6185
vn 0.9788 -0.1556 0.1328
vn 0.8114 -0.5843 0.0168
vn 0.8248 -0.5274 -0.2038
vn 0.9375 -0.3240 -0.1266
vn 0.8602 -0.4797 0.1732
vn 0.8874 -0.1940 -0.4181
vn 0.8404 -0.3558 -0.4087
vn 0.5635 -0.4482 -0.6940
vn 0.6148 -0.1875 -0.7660
vn 0.9669 -0.2537 -0.0263
vn 0.8926 -0.1725 -0.4165
vn 0.8677 -0.4111 0.2793
vn 0.9612 -0.2608 -0.0890
vn 0.8480 -0.3392 0.4073
vn 0.5355 -0.4237 0.7305
vn 0.5396 -0.5563 0.6319
vn 0.0878 0.9960 0.0163
vn -0.1406 0.9507 0.2762
vn -0.1941 0.9034 0.3822
vn 0.2092 0.9585 0.1937
vn 0.4954 -0.8107 -0.3120
vn 0.1757 0.9655 0.1921
vn 0.1035 0.9334 0.3436
vn -0.4646 0.7874 -0.4052
vn -0.2768 0.6167 -0.7368
vn 0.4617 -0.1836 0.8678
vn 0.3592 0.1295 0.9242
vn 0.5113 -0.8468 0.1463
vn 0.2085 0.9113 0.3549
vn -0.3978 0.9075 0.1350
vn 0.5455 -0.6804 0.4893
vn 0.8954 -0.1466 -0.4204
vn 0.7975 -0.0774 -0.5983
vn 0.7994 -0.1250 -0.5877
usemtl Light_Armor_Set_1
s 1
f 29/1/1 30/2/2 19/3/3 8/4/4
f 18/5/5 17/6/6 27/7/7 28/8/8
f 12/9/9 7/10/10 24/11/11 25/12/12
f 23/13/13 2/14/14 1/15/15 22/16/16
f 29/1/1 28/8/8 4/17/17 3/18/18
f 51/19/19 49/20/20 4/17/17 5/21/21
f 51/19/19 5/21/21 6/22/22 48/23/23
f 46/24/24 21/25/25 11/26/26 42/27/27
f 1/15/15 2/14/14 7/10/10 13/28/28
f 48/23/23 6/22/22 68/29/29 115/30/30
f 43/31/31 44/32/32 10/33/33 15/34/34
f 26/35/35 16/36/36 73/37/37 84/38/38
f 69/39/39 1/15/15 13/28/28 70/40/40
f 71/41/41 70/40/40 13/28/28 14/42/42
f 106/43/43 43/31/31 15/34/34 67/44/44
f 44/32/32 45/45/45 9/46/46 10/33/33
f 42/27/27 11/26/26 9/46/46 45/45/45
f 23/13/13 24/11/11 7/10/10 2/14/14
f 14/42/42 31/47/47 91/48/48 71/41/41
f 50/49/49 49/20/20 24/11/11 23/13/13
f 12/9/9 25/12/12 31/47/47 14/42/42
f 14/42/42 13/28/28 7/10/10 12/9/9
f 4/17/17 28/8/8 27/7/7 5/21/21
f 27/7/7 26/35/35 6/22/22 5/21/21
f 17/6/6 16/36/36 26/35/35 27/7/7
f 6/22/22 26/35/35 84/38/38 68/29/29
f 8/4/4 18/5/5 28/8/8 29/1/1
f 50/49/49 23/13/13 22/16/16 47/50/50
f 3/18/18 20/51/51 30/2/2 29/1/1
f 69/39/39 89/52/52 22/16/16 1/15/15
f 11/53/26 21/54/25 36/55/53 34/56/54
f 15/57/34 10/58/33 33/59/55 35/60/56
f 9/61/46 11/53/26 34/56/54 32/62/57
f 10/58/33 9/61/46 32/62/57 33/59/55
f 67/63/44 15/57/34 35/60/56 96/64/58
f 33/59/55 32/62/57 37/65/59 38/66/60
f 96/64/58 35/60/56 40/67/61 102/68/62
f 34/56/54 36/55/53 41/69/63 39/70/64
f 35/60/56 33/59/55 38/66/60 40/67/61
f 32/62/57 34/56/54 39/70/64 37/65/59
f 8/4/4 42/27/27 45/45/45 18/5/5
f 17/6/6 18/5/5 45/45/45 44/32/32
f 73/37/37 16/36/36 43/31/31 106/43/43
f 16/36/36 17/6/6 44/32/32 43/31/31
f 19/3/3 46/24/24 42/27/27 8/4/4
f 41/69/63 36/55/53 111/71/65 112/72/66
f 36/55/53 21/54/25 110/73/67 111/71/65
f 3/18/18 50/49/49 47/50/50 20/51/51
f 3/18/18 4/17/17 49/20/20 50/49/49
f 31/47/47 48/23/23 115/30/30 91/48/48
f 25/12/12 51/19/19 48/23/23 31/47/47
f 25/12/12 24/11/11 49/20/20 51/19/19
f 87/74/68 59/75/69 76/76/70 88/77/71
f 75/78/72 86/79/73 85/80/74 74/81/75
f 63/82/76 82/83/77 81/84/78 58/85/79
f 80/86/80 79/87/81 52/88/82 53/89/83
f 87/74/68 54/90/84 55/91/85 86/79/73
f 118/92/86 56/93/87 55/91/85 116/94/88
f 118/92/86 114/95/89 57/96/90 56/93/87
f 109/97/91 104/98/92 62/99/93 78/100/94
f 52/88/82 64/101/95 58/85/79 53/89/83
f 114/95/89 115/30/30 68/29/29 57/96/90
f 105/102/96 66/103/97 61/104/98 107/105/99
f 83/106/100 84/38/38 73/37/37 72/107/101
f 69/39/39 70/40/40 64/101/95 52/88/82
f 71/41/41 65/108/102 64/101/95 70/40/40
f 106/43/43 67/44/44 66/103/97 105/102/96
f 107/105/99 61/104/98 60/109/103 108/110/104
f 104/98/92 108/110/104 60/109/103 62/99/93
f 80/86/80 53/89/83 58/85/79 81/84/78
f 65/108/102 71/41/41 91/48/48 90/111/105
f 117/112/106 80/86/80 81/84/78 116/94/88
f 63/82/76 65/108/102 90/111/105 82/83/77
f 65/108/102 63/82/76 58/85/79 64/101/95
f 55/91/85 56/93/87 85/80/74 86/79/73
f 85/80/74 56/93/87 57/96/90 83/106/100
f 74/81/75 85/80/74 83/106/100 72/107/101
f 57/96/90 68/29/29 84/38/38 83/106/100
f 59/75/69 87/74/68 86/79/73 75/78/72
f 117/112/106 113/113/107 79/87/81 80/86/80
f 54/90/84 87/74/68 88/77/71 77/114/108
f 69/39/39 52/88/82 79/87/81 89/52/52
f 62/115/93 94/116/109 97/117/110 78/118/94
f 66/119/97 95/120/111 93/121/112 61/122/98
f 60/123/103 92/124/113 94/116/109 62/115/93
f 61/122/98 93/121/112 92/124/113 60/123/103
f 67/125/44 96/126/58 95/120/111 66/119/97
f 93/121/112 99/127/114 98/128/115 92/124/113
f 96/126/58 102/129/62 101/130/116 95/120/111
f 94/116/109 100/131/117 103/132/118 97/117/110
f 95/120/111 101/130/116 99/127/114 93/121/112
f 92/124/113 98/128/115 100/131/117 94/116/109
f 59/75/69 75/78/72 108/110/104 104/98/92
f 74/81/75 107/105/99 108/110/104 75/78/72
f 73/37/37 106/43/43 105/102/96 72/107/101
f 72/107/101 105/102/96 107/105/99 74/81/75
f 76/76/70 59/75/69 104/98/92 109/97/91
f 103/132/118 112/72/66 111/71/65 97/117/110
f 97/117/110 111/71/65 110/73/67 78/118/94
f 54/90/84 77/114/108 113/113/107 117/112/106
f 54/90/84 117/112/106 116/94/88 55/91/85
f 90/111/105 91/48/48 115/30/30 114/95/89
f 82/83/77 90/111/105 114/95/89 118/92/86
f 82/83/77 118/92/86 116/94/88 81/84/78
f 147/133/119 126/134/120 137/135/121 148/136/122
f 136/137/123 146/138/124 145/139/125 135/140/126
f 130/141/127 143/142/128 142/143/129 125/144/130
f 141/145/131 140/146/132 119/147/133 120/148/134
f 147/133/119 121/149/135 122/150/136 146/138/124
f 159/151/137 123/152/138 122/150/136 157/153/139
f 159/151/137 156/154/140 124/155/141 123/152/138
f 154/156/142 150/157/143 129/158/144 139/159/145
f 119/147/133 131/160/146 125/144/130 120/148/134
f 156/154/140 209/161/147 176/162/148 124/155/141
f 151/163/149 133/164/150 128/165/151 152/166/152
f 144/167/153 192/168/154 181/169/155 134/170/156
f 177/171/157 178/172/158 131/160/146 119/147/133
f 179/173/159 132/174/160 131/160/146 178/172/158
f 202/175/161 175/176/162 133/164/150 151/163/149
f 152/166/152 128/165/151 127/177/163 153/178/164
f 150/157/143 153/178/164 127/177/163 129/158/144
f 141/145/131 120/148/134 125/144/130 142/143/129
f 132/174/160 179/173/159 199/179/165 149/180/166
f 158/181/167 141/145/131 142/143/129 157/153/139
f 130/141/127 132/174/160 149/180/166 143/142/128
f 132/174/160 130/141/127 125/144/130 131/160/146
f 122/150/136 123/152/138 145/139/125 146/138/124
f 145/139/125 123/152/138 124/155/141 144/167/153
f 135/140/126 145/139/125 144/167/153 134/170/156
f 124/155/141 176/162/148 192/168/154 144/167/153
f 126/134/120 147/133/119 146/138/124 136/137/123
f 158/181/167 155/182/168 140/146/132 141/145/131
f 121/149/135 147/133/119 148/136/122 138/183/169
f 177/171/157 119/147/133 140/146/132 197/184/170
f 126/134/120 136/137/123 153/178/164 150/157/143
f 135/140/126 152/166/152 153/178/164 136/137/123
f 181/169/155 202/175/161 151/163/149 134/170/156
f 134/170/156 151/163/149 152/166/152 135/140/126
f 137/135/121 126/134/120 150/157/143 154/156/142
f 121/149/135 138/183/169 155/182/168 158/181/167
f 121/149/135 158/181/167 157/153/139 122/150/136
f 149/180/166 199/179/165 209/161/147 156/154/140
f 143/142/128 149/180/166 156/154/140 159/151/137
f 143/142/128 159/151/137 157/153/139 142/143/129
f 195/185/171 196/186/172 184/187/173 167/188/174
f 183/189/175 182/190/176 193/191/177 194/192/178
f 171/193/179 166/194/180 189/195/181 190/196/182
f 188/197/183 161/198/184 160/199/185 187/200/186
f 195/185/171 194/192/178 163/201/187 162/202/188
f 212/203/189 210/204/190 163/201/187 164/205/191
f 212/203/189 164/205/191 165/206/192 208/207/193
f 205/208/194 186/209/195 170/210/196 200/211/197
f 160/199/185 161/198/184 166/194/180 172/212/198
f 208/207/193 165/206/192 176/162/148 209/161/147
f 201/213/199 203/214/200 169/215/201 174/216/202
f 191/217/203 180/218/204 181/169/155 192/168/154
f 177/171/157 160/199/185 172/212/198 178/172/158
f 179/173/159 178/172/158 172/212/198 173/219/205
f 202/175/161 201/213/199 174/216/202 175/176/162
f 203/214/200 204/220/206 168/221/207 169/215/201
f 200/211/197 170/210/196 168/221/207 204/220/206
f 188/197/183 189/195/181 166/194/180 161/198/184
f 173/219/205 198/222/208 199/179/165 179/173/159
f 211/223/209 210/204/190 189/195/181 188/197/183
f 171/193/179 190/196/182 198/222/208 173/219/205
f 173/219/205 172/212/198 166/194/180 171/193/179
f 163/201/187 194/192/178 193/191/177 164/205/191
f 193/191/177 191/217/203 165/206/192 164/205/191
f 182/190/176 180/218/204 191/217/203 193/191/177
f 165/206/192 191/217/203 192/168/154 176/162/148
f 167/188/174 183/189/175 194/192/178 195/185/171
f 211/223/209 188/197/183 187/200/186 207/224/210
f 162/202/188 185/225/211 196/186/172 195/185/171
f 177/171/157 197/184/170 187/200/186 160/199/185
f 167/188/174 200/211/197 204/220/206 183/189/175
f 182/190/176 183/189/175 204/220/206 203/214/200
f 181/169/155 180/218/204 201/213/199 202/175/161
f 180/218/204 182/190/176 203/214/200 201/213/199
f 184/187/173 205/208/194 200/211/197 167/188/174
f 162/202/188 211/223/209 207/224/210 185/225/211
f 162/202/188 163/201/187 210/204/190 211/223/209
f 198/222/208 208/207/193 209/161/147 199/179/165
f 190/196/182 212/203/189 208/207/193 198/222/208
f 190/196/182 189/195/181 210/204/190 212/203/189
l 139 206
l 186 206
