# Blender v2.75 (sub 0) OBJ File: 'Claymore.blend'
# www.blender.org
mtllib Claymore.mtl
o Cube
v 0.099433 -0.435385 -0.005946
v 0.099433 -0.428813 0.005724
v 0.099433 -0.428813 -0.005724
v 0.034932 -0.428813 0.011655
v 0.015566 -0.450552 0.012108
v 0.034932 -0.428813 -0.011655
v 0.000000 -0.428307 0.005037
v 0.000000 -0.455396 0.010148
v 0.000000 -0.455396 -0.010148
v 0.000000 -0.428813 0.011655
v 0.000000 -0.428813 -0.011655
v -0.099433 -0.428813 0.005724
v -0.099433 -0.428813 -0.005724
v -0.034932 -0.428813 0.011655
v -0.015566 -0.450552 -0.012108
v 0.000000 -0.724320 0.009731
v 0.000000 -0.724320 -0.009731
v 0.000000 -0.737597 0.017373
v 0.003278 -0.750873 0.000000
v 0.017426 0.645779 0.000000
v 0.016621 -0.737597 0.000000
v 0.034331 -0.428307 0.000000
v 0.099433 -0.435385 0.005946
v 0.016469 -0.455396 0.000000
v 0.111432 -0.428307 0.000000
v 0.111432 -0.435113 0.000000
v 0.015566 -0.450552 -0.012108
v 0.011126 -0.724320 0.000000
v -0.003278 -0.750873 0.000000
v 0.000000 -0.750873 0.000000
v -0.017426 0.645779 0.000000
v 0.000000 0.750873 0.000000
v -0.016621 -0.737597 0.000000
v -0.034331 -0.428307 0.000000
v 0.000000 -0.428307 -0.005037
v -0.099433 -0.435385 0.005946
v 0.000000 -0.450552 -0.012108
v -0.099433 -0.435385 -0.005946
v 0.000000 -0.450552 0.012108
v -0.016469 -0.455396 0.000000
v -0.111432 -0.428307 0.000000
v -0.111432 -0.435113 0.000000
v -0.034932 -0.428813 -0.011655
v -0.015566 -0.450552 0.012108
v -0.011126 -0.724320 0.000000
v 0.000000 -0.737597 -0.017373
vt 0.741056 0.510146
vt 0.688487 0.510774
vt 0.688482 0.499924
vt 0.753900 0.498158
vt 0.843220 0.292717
vt 0.864069 0.235934
vt 0.884302 0.225372
vt 0.884302 0.293247
vt 0.843199 0.323466
vt 0.866570 0.323466
vt 0.660133 0.014153
vt 0.657074 0.001096
vt 0.683833 0.000959
vt 0.685993 0.014116
vt 0.749294 0.111957
vt 0.663787 0.112176
vt 0.662380 0.077833
vt 0.748667 0.096654
vt 0.893890 0.089349
vt 0.891823 0.000625
vt 0.915565 0.011488
vt 0.941620 0.089663
vt 0.749288 0.334578
vt 0.748661 0.349881
vt 0.662372 0.368701
vt 0.663781 0.334358
vt 0.660122 0.432382
vt 0.685982 0.432419
vt 0.683822 0.445576
vt 0.657062 0.445439
vt 0.860390 0.103771
vt 0.842167 0.103797
vt 0.846178 0.089802
vt 0.928059 0.103672
vt 0.946282 0.103646
vt 0.635915 0.510149
vt 0.623062 0.498161
vt 0.884302 0.353686
vt 0.843220 0.354215
vt 0.668165 0.210197
vt 0.694022 0.210101
vt 0.692941 0.223267
vt 0.666176 0.223267
vt 0.749920 0.127260
vt 0.665194 0.146518
vt 0.894559 0.118094
vt 0.942271 0.117641
vt 0.919861 0.195887
vt 0.896626 0.206818
vt 0.665190 0.300016
vt 0.749916 0.319274
vt 0.846830 0.117780
vt 0.668164 0.236337
vt 0.694021 0.236433
vt 0.872884 0.195955
vt 0.282329 0.012933
vt 0.225156 0.894006
vt 0.163294 0.987081
vt 0.164400 0.012931
vt 0.675908 0.485057
vt 0.623896 0.497795
vt 0.688588 0.499997
vt 0.688588 0.485081
vt 0.635992 0.509932
vt 0.619657 0.782538
vt 0.688581 0.782540
vt 0.688588 0.510742
vt 0.925383 0.354215
vt 0.904535 0.410998
vt 0.884302 0.421560
vt 0.864069 0.410998
vt 0.925406 0.323466
vt 0.902034 0.323466
vt 0.046016 0.012919
vt 0.101640 0.897426
vt 0.701269 0.485057
vt 0.753281 0.497795
vt 0.741185 0.509932
vt 0.757506 0.782538
vt 0.925384 0.292717
vt 0.904535 0.235934
vt 0.346353 0.012919
vt 0.464737 0.012923
vt 0.464604 0.987074
vt 0.402860 0.897423
vt 0.675427 0.485212
vt 0.688477 0.485087
vt 0.582666 0.012919
vt 0.526373 0.893995
vt 0.701526 0.485211
vt 0.868588 0.011556
vn -0.962700 0.270600 0.000000
vn 0.000000 0.235300 -0.971900
vn 0.000000 -0.153100 -0.988200
vn -0.985300 -0.170600 0.000000
vn -0.045800 0.669400 -0.741400
vn -0.197600 0.640600 -0.742000
vn -0.819700 0.572800 0.000000
vn -0.056600 0.998400 0.000000
vn 0.000000 0.694800 -0.719100
vn 0.000000 0.719900 -0.694100
vn -0.197600 0.640600 0.742000
vn -0.880400 -0.474200 0.000000
vn -0.268000 -0.501300 0.822700
vn 0.000000 -0.447800 0.894100
vn 0.000000 0.694800 0.719100
vn -0.045800 0.669400 0.741400
vn -0.122700 -0.510000 0.851400
vn -0.528300 -0.849000 0.000000
vn -0.268000 -0.501300 -0.822700
vn -0.122700 -0.510000 -0.851400
vn 0.000000 -0.447800 -0.894100
vn 0.000000 -0.533200 0.846000
vn 0.000000 -0.533200 -0.846000
vn 0.962700 0.270600 0.000000
vn 0.985300 -0.170600 0.000000
vn 0.056600 0.998400 0.000000
vn 0.045800 0.669400 -0.741400
vn 0.197600 0.640600 0.742000
vn 0.268000 -0.501300 0.822700
vn 0.880400 -0.474200 0.000000
vn 0.819700 0.572800 0.000000
vn 0.122700 -0.510000 0.851400
vn 0.045800 0.669400 0.741400
vn 0.528300 -0.849000 0.000000
vn 0.122700 -0.510000 -0.851400
vn 0.268000 -0.501300 -0.822700
vn 0.197600 0.640600 -0.742000
vn 0.999600 0.029100 0.000000
vn 0.000000 1.000000 0.000000
vn 0.000000 0.719900 0.694100
vn 0.624100 -0.781300 0.000000
vn 0.000000 -0.153100 0.988200
vn 0.000000 -1.000000 0.000000
vn 0.000000 0.235300 0.971900
vn -0.999600 0.029100 0.000000
vn -0.624100 -0.781300 0.000000
usemtl Material
s 1
f 45/1/1 17/2/2 46/3/3 33/4/4
f 43/5/5 13/6/6 41/7/7 34/8/8
f 11/9/9 43/5/5 34/8/8 35/10/10
f 12/11/11 41/12/7 42/13/12 36/14/13
f 39/15/14 10/16/15 14/17/16 44/18/17
f 44/18/17 14/17/16 12/11/11 36/14/13
f 40/19/18 42/20/12 38/21/19 15/22/20
f 37/23/21 15/24/20 43/25/5 11/26/9
f 13/27/6 38/28/19 42/29/12 41/30/7
f 8/31/22 39/32/14 44/33/17 40/19/18
f 9/34/23 40/19/18 15/22/20 37/35/21
f 15/24/20 38/28/19 13/27/6 43/25/5
f 28/36/24 21/37/25 46/3/3 17/2/2
f 11/9/9 35/10/10 22/38/26 6/39/27
f 2/40/28 23/41/29 26/42/30 25/43/31
f 39/15/14 5/44/32 4/45/33 10/16/15
f 5/44/32 23/41/29 2/40/28 4/45/33
f 24/46/34 27/47/35 1/48/36 26/49/30
f 37/23/21 11/26/9 6/50/27 27/51/35
f 8/31/22 24/46/34 5/52/32 39/32/14
f 9/34/23 37/35/21 27/47/35 24/46/34
f 27/51/35 6/50/27 3/53/37 1/54/36
f 24/46/34 26/49/30 23/55/29 5/52/32
f 22/56/26 20/57/38 32/58/39 7/59/40
f 19/60/41 21/61/25 18/62/42 30/63/43
f 3/53/37 25/43/31 26/42/30 1/54/36
f 28/64/24 24/65/34 8/66/22 16/67/44
f 4/68/33 2/69/28 25/70/31 22/38/26
f 6/39/27 22/38/26 25/70/31 3/71/37
f 10/72/15 4/68/33 22/38/26 7/73/40
f 21/61/25 28/64/24 16/67/44 18/62/42
f 24/65/34 28/36/24 17/2/2 9/66/23
f 34/74/8 7/59/40 32/58/39 31/75/45
f 29/76/46 30/63/43 18/62/42 33/77/4
f 45/78/1 16/67/44 8/66/22 40/79/18
f 14/80/16 34/8/8 41/7/7 12/81/11
f 10/72/15 7/73/40 34/8/8 14/80/16
f 33/77/4 18/62/42 16/67/44 45/78/1
f 40/79/18 9/66/23 17/2/2 45/1/1
f 22/82/26 35/83/10 32/84/39 20/85/38
f 19/86/41 30/87/43 46/3/3 21/37/25
f 34/88/8 31/89/45 32/84/39 35/83/10
f 29/90/46 33/4/4 46/3/3 30/87/43
f 40/19/18 44/33/17 36/91/13 42/20/12
