# Blender v2.75 (sub 0) OBJ File: 'Rapier.blend'
# www.blender.org
mtllib Rapier.mtl
o Cube
v 0.010034 -0.599887 0.000000
v 0.000000 -0.599887 0.004131
v -0.010034 -0.599887 0.000000
v 0.000000 -0.599887 -0.004131
v 0.000103 0.577233 0.000000
v 0.017134 -0.396652 0.000000
v 0.011738 -0.388921 -0.000000
v 0.008653 0.495509 0.000000
v 0.000000 -0.400388 0.007727
v 0.000000 -0.388921 0.007727
v -0.000000 0.495509 0.004131
v -0.017134 -0.396652 0.000000
v -0.011738 -0.388921 -0.000000
v -0.008653 0.495509 -0.000000
v 0.000000 -0.400388 -0.007727
v 0.000000 -0.388921 -0.007727
v -0.000000 0.495509 -0.004131
v 0.011007 -0.390704 0.000000
v 0.000000 -0.394488 0.012687
v -0.011007 -0.390704 0.000000
v 0.000000 -0.390704 -0.013136
v 0.010034 -0.614399 0.000000
v 0.000000 -0.622717 0.004131
v -0.010034 -0.614399 0.000000
v 0.000000 -0.622717 -0.004131
v 0.014760 -0.577781 0.000000
v 0.011916 -0.555676 0.000000
v 0.017386 -0.533570 0.000000
v 0.013799 -0.511464 0.000000
v 0.020011 -0.489359 0.000000
v 0.015682 -0.467253 0.000000
v 0.022637 -0.450895 0.000000
v 0.000000 -0.577781 0.006388
v 0.000000 -0.555676 0.005030
v 0.000000 -0.533570 0.007641
v 0.000000 -0.511464 0.005929
v 0.000000 -0.489359 0.008895
v 0.000000 -0.467253 0.006828
v 0.000000 -0.450895 0.010148
v -0.014760 -0.577781 0.000000
v -0.011916 -0.555676 0.000000
v -0.017386 -0.533570 0.000000
v -0.013799 -0.511464 0.000000
v -0.020011 -0.489359 0.000000
v -0.015682 -0.467253 0.000000
v -0.022637 -0.450895 0.000000
v 0.000000 -0.577781 -0.006388
v 0.000000 -0.555676 -0.005030
v 0.000000 -0.533570 -0.007641
v 0.000000 -0.511464 -0.005929
v 0.000000 -0.489359 -0.008895
v 0.000000 -0.467253 -0.006828
v 0.000000 -0.450895 -0.010148
v 0.042717 -0.340683 -0.000000
v 0.046197 -0.347504 0.000000
v 0.044098 -0.343805 0.004105
v 0.044098 -0.343805 -0.004105
v -0.046197 -0.347504 0.000000
v -0.044098 -0.343805 0.004105
v -0.044098 -0.340683 -0.000000
v -0.044098 -0.343805 -0.004105
v -0.014889 -0.393056 -0.005814
v -0.012800 -0.390469 -0.000000
v -0.014889 -0.393056 0.005814
v 0.014889 -0.393056 -0.005814
v 0.014889 -0.393056 0.005814
v 0.011419 -0.390469 -0.000000
v 0.113252 -0.334911 -0.000000
v 0.113252 -0.339156 0.000000
v 0.111871 -0.336593 0.002129
v 0.113252 -0.336593 -0.002129
v -0.113252 -0.339156 0.000000
v -0.111871 -0.336593 0.002129
v -0.113252 -0.334911 -0.000000
v -0.113252 -0.336593 -0.002129
v 0.049319 -0.336622 -0.000000
v 0.049319 -0.339350 -0.003663
v 0.049319 -0.339350 0.003663
v 0.051059 -0.342826 0.000000
v -0.051059 -0.342826 0.000000
v -0.049319 -0.339350 -0.003663
v -0.049319 -0.336622 -0.000000
v -0.049319 -0.339350 0.003663
v 0.103176 -0.336091 -0.000000
v 0.108125 -0.332459 -0.000000
v 0.103176 -0.337749 0.002244
v 0.108125 -0.337189 0.004588
v 0.104589 -0.339920 0.000000
v 0.109540 -0.340350 0.000000
v 0.108125 -0.337189 -0.004588
v 0.103176 -0.337749 -0.002244
v -0.104589 -0.339920 0.000000
v -0.109540 -0.340350 0.000000
v -0.103176 -0.336091 -0.000000
v -0.108125 -0.332459 -0.000000
v -0.108125 -0.337189 -0.004588
v -0.103176 -0.337749 -0.002244
v -0.108125 -0.337189 0.004588
v -0.103176 -0.337749 0.002244
v 0.014119 -0.432226 0.000000
v 0.000000 -0.434094 0.008938
v -0.014119 -0.432226 0.000000
v 0.000000 -0.434094 -0.008938
v 0.067965 -0.407789 0.000000
v -0.067965 -0.407789 0.000000
v 0.077581 -0.352933 0.000000
v -0.077581 -0.352933 0.000000
v 0.078788 -0.347456 0.000000
v -0.078788 -0.347456 0.000000
v 0.017134 -0.396652 0.000000
v -0.017134 -0.396652 0.000000
v 0.046197 -0.347504 0.000000
v -0.046197 -0.347504 0.000000
v 0.051059 -0.342826 0.000000
v -0.051059 -0.342826 0.000000
v 0.067965 -0.407789 0.000000
v -0.067965 -0.407789 0.000000
v 0.077581 -0.352933 0.000000
v -0.077581 -0.352933 0.000000
v 0.078788 -0.347456 0.000000
v -0.078788 -0.347456 0.000000
vt 0.685888 0.358510
vt 0.635771 0.358250
vt 0.636467 0.341680
vt 0.685889 0.332251
vt 0.388837 0.383478
vt 0.411239 0.358250
vt 0.461356 0.358510
vt 0.461357 0.383671
vt 0.151343 0.863687
vt 0.151328 0.009271
vt 0.210979 0.009326
vt 0.210988 0.863531
vt 0.445330 0.828902
vt 0.483557 0.819507
vt 0.495350 0.819543
vt 0.445152 0.832173
vt 0.538146 0.551218
vt 0.547536 0.592245
vt 0.461357 0.587518
vt 0.461357 0.548669
vt 0.270631 0.009271
vt 0.270633 0.863687
vt 0.685887 0.548669
vt 0.685887 0.587518
vt 0.599708 0.592245
vt 0.609097 0.551218
vt 0.444830 0.809779
vt 0.407021 0.819628
vt 0.392708 0.819720
vt 0.444456 0.806277
vt 0.091020 0.009326
vt 0.091003 0.863531
vt 0.031357 0.863687
vt 0.031369 0.009271
vt 0.762676 0.551218
vt 0.772066 0.592245
vt 0.150671 0.009271
vt 0.150648 0.863687
vt 0.445214 0.834667
vt 0.486014 0.836373
vt 0.463275 0.908153
vt 0.444798 0.910218
vt 0.091575 0.990729
vt 0.210415 0.990729
vt 0.655138 0.326855
vt 0.411934 0.341680
vt 0.461356 0.332251
vt 0.511474 0.358250
vt 0.510778 0.341680
vt 0.736006 0.358250
vt 0.735310 0.341680
vt 0.758408 0.383478
vt 0.685888 0.383671
vt 0.746007 0.408793
vt 0.685888 0.408951
vt 0.771415 0.434075
vt 0.685888 0.434295
vt 0.755922 0.459443
vt 0.685888 0.459633
vt 0.784510 0.484783
vt 0.685888 0.485082
vt 0.766207 0.510230
vt 0.685887 0.510629
vt 0.797818 0.529216
vt 0.685887 0.529762
vt 0.613369 0.383478
vt 0.625769 0.408793
vt 0.600361 0.434075
vt 0.615853 0.459443
vt 0.587265 0.484783
vt 0.605568 0.510230
vt 0.573956 0.529216
vt 0.533876 0.383478
vt 0.521476 0.408793
vt 0.461357 0.408952
vt 0.546884 0.434075
vt 0.461357 0.434295
vt 0.531391 0.459443
vt 0.461357 0.459633
vt 0.559979 0.484783
vt 0.461357 0.485082
vt 0.541676 0.510230
vt 0.461357 0.510630
vt 0.573288 0.529216
vt 0.461357 0.529763
vt 0.384567 0.551218
vt 0.349426 0.529216
vt 0.381037 0.510230
vt 0.362734 0.484783
vt 0.391322 0.459443
vt 0.375829 0.434075
vt 0.401237 0.408793
vt 0.430606 0.326855
vt 0.487796 0.803022
vt 0.444428 0.805633
vt 0.440841 0.731625
vt 0.461556 0.732621
vt 0.402253 0.803368
vt 0.420226 0.732783
vt 0.405684 0.836318
vt 0.426336 0.908109
vt 0.524853 0.819615
vt 0.519004 0.838868
vt 0.373141 0.838647
vt 0.368961 0.819854
vt 0.370122 0.801298
vt 0.395147 0.733427
vt 0.457515 0.980678
vt 0.475858 0.982508
vt 0.468053 0.986435
vt 0.453438 0.985605
vt 0.401535 0.907462
vt 0.520173 0.800600
vt 0.486419 0.733078
vt 0.487831 0.907554
vt 0.450644 0.656522
vt 0.436172 0.656374
vt 0.434597 0.652081
vt 0.446179 0.651412
vt 0.424509 0.986044
vt 0.432855 0.983326
vt 0.442264 0.984993
vt 0.437338 0.987636
vt 0.416095 0.651038
vt 0.429361 0.649348
vt 0.424896 0.653841
vt 0.430736 0.980348
vt 0.443592 0.980860
vt 0.414063 0.982546
vt 0.422836 0.656943
vt 0.405383 0.654704
vt 0.469650 0.654560
vt 0.461332 0.650502
vt 0.458075 0.725756
vt 0.480762 0.725102
vt 0.400064 0.725370
vt 0.422903 0.725875
vt 0.440451 0.724904
vt 0.461049 0.914850
vt 0.444724 0.915814
vt 0.428391 0.914831
vt 0.406421 0.915301
vt 0.482922 0.915339
vt 0.451420 0.661720
vt 0.467267 0.660391
vt 0.406801 0.660589
vt 0.422724 0.661875
vt 0.437109 0.662288
vt 0.458061 0.975684
vt 0.444238 0.975170
vt 0.430389 0.975612
vt 0.415208 0.976892
vt 0.473281 0.976917
vt 0.375178 0.592245
vt 0.807847 0.965567
vt 0.826949 0.958471
vt 0.665573 0.960131
vt 0.665446 0.967241
vt 0.918475 0.889795
vt 0.654597 0.889580
vn -0.380700 0.000000 0.924700
vn 0.389000 -0.088400 -0.917000
vn 0.502700 0.002600 -0.864400
vn -0.483000 0.699600 -0.526500
vn -0.471200 -0.005100 -0.882000
vn -0.502700 0.002600 -0.864400
vn -0.471200 -0.005100 0.882000
vn 0.565700 0.421800 0.708500
vn -0.502700 0.002600 0.864400
vn 0.471200 -0.005100 0.882000
vn 0.483000 0.699600 -0.526500
vn 0.502700 0.002600 0.864400
vn 0.765200 0.475000 -0.434500
vn -0.565700 0.421800 0.708500
vn 0.430400 0.045000 0.901500
vn -0.430400 0.046100 0.901500
vn -0.430400 0.046100 -0.901500
vn 0.430400 0.045000 -0.901500
vn -0.638200 -0.769800 0.000000
vn 0.380700 0.000000 -0.924700
vn -0.380700 0.000000 -0.924700
vn 0.380700 0.000000 0.924700
vn 0.389000 -0.088400 0.917000
vn 0.392900 0.053500 0.918000
vn 0.394800 -0.102800 0.913000
vn 0.398100 0.067700 0.914800
vn 0.398800 -0.117000 0.909500
vn 0.401800 0.082000 0.912100
vn 0.398700 -0.176100 0.900000
vn -0.389000 -0.088400 0.917000
vn -0.392900 0.053500 0.918000
vn -0.394800 -0.102800 0.913000
vn -0.398100 0.067700 0.914800
vn -0.398800 -0.117000 0.909500
vn -0.401800 0.082000 0.912100
vn -0.398700 -0.176100 0.900000
vn -0.389000 -0.088400 -0.917000
vn -0.392900 0.053500 -0.918000
vn -0.394800 -0.102800 -0.913000
vn -0.398100 0.067700 -0.914800
vn -0.398800 -0.117000 -0.909500
vn -0.401800 0.082000 -0.912100
vn -0.398700 -0.176100 -0.900000
vn 0.450900 0.138400 -0.881800
vn 0.398700 -0.176100 -0.900000
vn 0.401800 0.082000 -0.912100
vn 0.398800 -0.117000 -0.909500
vn 0.398100 0.067700 -0.914800
vn 0.394800 -0.102800 -0.913000
vn 0.392900 0.053500 -0.918000
vn 0.638200 -0.769800 0.000000
vn -0.688100 0.430400 -0.584200
vn -0.688100 0.430400 0.584200
vn 0.765200 0.475000 0.434500
vn -0.049100 0.936900 0.346300
vn -0.222800 0.946300 -0.234100
vn 0.052500 0.937400 0.344200
vn 0.237800 0.945200 -0.223600
vn -0.371600 -0.561800 -0.739100
vn -0.400900 -0.644200 0.651300
vn 0.693900 -0.400500 0.598400
vn 0.400900 -0.644200 0.651300
vn -0.320600 -0.686600 -0.652600
vn -0.693900 -0.400500 0.598400
vn 0.371600 -0.561800 -0.739100
vn 0.693900 -0.400500 -0.598400
vn -0.693900 -0.400500 -0.598400
vn 0.284300 0.693500 -0.662000
vn -0.951200 -0.000000 0.308500
vn 0.951200 -0.000000 0.308500
vn -0.326200 0.649400 0.687000
vn -0.375800 -0.622300 0.686700
vn 0.326200 0.649400 0.687000
vn 0.375800 -0.622300 0.686700
vn 0.320600 -0.686600 -0.652600
vn -0.284300 0.693500 -0.662000
vn 0.489700 -0.506400 -0.709800
vn 0.489700 -0.506400 0.709800
vn -0.459500 0.668400 0.584900
vn -0.459500 0.668400 -0.584900
vn 0.530600 0.677200 -0.509900
vn -0.489700 -0.506400 0.709800
vn 0.530600 0.677200 0.509900
vn -0.489700 -0.506400 -0.709800
vn 0.039100 -0.711700 -0.701400
vn -0.126100 -0.806700 -0.577400
vn 0.039100 -0.711700 0.701400
vn -0.126100 -0.806700 0.577400
vn -0.008000 0.802900 0.596100
vn -0.426100 0.660800 0.617900
vn -0.008000 0.802900 -0.596100
vn -0.426100 0.660800 -0.617900
vn 0.008000 0.802900 -0.596100
vn 0.426100 0.660800 -0.617900
vn -0.039100 -0.711700 0.701400
vn 0.126100 -0.806700 0.577400
vn 0.008000 0.802900 0.596100
vn 0.426100 0.660800 0.617900
vn -0.039100 -0.711700 -0.701400
vn 0.126100 -0.806700 -0.577400
vn 0.471200 -0.005100 -0.882000
vn 0.450900 0.138400 0.881800
vn -0.450900 0.138400 0.881800
vn -0.450900 0.138400 -0.881800
vn 0.000000 -0.000000 -1.000000
vn -0.000000 0.000000 1.000000
usemtl Material
s off
f 2/1/1 3/2/1 24/3/1 23/4/1
f 26/5/2 1/6/2 4/7/2 47/8/2
f 8/9/3 7/10/3 16/11/3 17/12/3
f 13/13/4 16/14/4 21/15/4 20/16/4
f 102/17/5 12/18/5 15/19/5 103/20/5
f 13/21/6 14/22/6 17/12/6 16/11/6
f 101/23/7 9/24/7 12/25/7 102/26/7
f 7/27/8 10/28/8 19/29/8 18/30/8
f 10/31/9 11/32/9 14/33/9 13/34/9
f 100/35/10 6/36/10 9/24/10 101/23/10
f 16/14/11 7/27/11 18/30/11 21/15/11
f 7/37/12 8/38/12 11/32/12 10/31/12
f 63/39/13 62/40/13 61/41/13 60/42/13
f 10/28/14 13/13/14 20/16/14 19/29/14
f 8/38/15 5/43/15 11/32/15
f 11/32/16 5/43/16 14/33/16
f 14/22/17 5/44/17 17/12/17
f 5/44/18 8/9/18 17/12/18
f 24/3/19 25/45/19 23/4/19
f 4/7/20 1/6/20 22/46/20 25/47/20
f 3/48/21 4/7/21 25/47/21 24/49/21
f 1/50/22 2/1/22 23/4/22 22/51/22
f 1/50/23 26/52/23 33/53/23 2/1/23
f 26/52/24 27/54/24 34/55/24 33/53/24
f 27/54/25 28/56/25 35/57/25 34/55/25
f 28/56/26 29/58/26 36/59/26 35/57/26
f 29/58/27 30/60/27 37/61/27 36/59/27
f 30/60/28 31/62/28 38/63/28 37/61/28
f 31/62/29 32/64/29 39/65/29 38/63/29
f 2/1/30 33/53/30 40/66/30 3/2/30
f 33/53/31 34/55/31 41/67/31 40/66/31
f 34/55/32 35/57/32 42/68/32 41/67/32
f 35/57/33 36/59/33 43/69/33 42/68/33
f 36/59/34 37/61/34 44/70/34 43/69/34
f 37/61/35 38/63/35 45/71/35 44/70/35
f 38/63/36 39/65/36 46/72/36 45/71/36
f 3/48/37 40/73/37 47/8/37 4/7/37
f 40/73/38 41/74/38 48/75/38 47/8/38
f 41/74/39 42/76/39 49/77/39 48/75/39
f 42/76/40 43/78/40 50/79/40 49/77/40
f 43/78/41 44/80/41 51/81/41 50/79/41
f 44/80/42 45/82/42 52/83/42 51/81/42
f 45/82/43 46/84/43 53/85/43 52/83/43
f 100/86/44 32/87/44 53/85/44 103/20/44
f 32/87/45 31/88/45 52/83/45 53/85/45
f 31/88/46 30/89/46 51/81/46 52/83/46
f 30/89/47 29/90/47 50/79/47 51/81/47
f 29/90/48 28/91/48 49/77/48 50/79/48
f 28/91/49 27/92/49 48/75/49 49/77/49
f 27/92/50 26/5/50 47/8/50 48/75/50
f 23/93/51 25/47/51 22/46/51
f 65/94/52 67/95/52 54/96/52 57/97/52
f 67/95/53 66/98/53 56/99/53 54/96/53
f 64/100/54 63/39/54 60/42/54 59/101/54
f 19/29/55 20/16/55 63/39/55 64/100/55
f 20/16/56 21/15/56 62/40/56 63/39/56
f 18/30/57 19/29/57 66/98/57 67/95/57
f 21/15/58 18/30/58 67/95/58 65/94/58
f 62/40/59 21/15/59 15/102/59 12/103/59
f 19/29/60 64/100/60 12/104/60 9/105/60
f 56/99/61 66/98/61 6/106/61 55/107/61
f 66/98/62 19/29/62 9/105/62 6/106/62
f 96/108/63 93/109/63 72/110/63 75/111/63
f 64/100/64 59/101/64 58/112/64 12/104/64
f 21/15/65 65/94/65 6/113/65 15/102/65
f 65/94/66 57/97/66 55/114/66 6/113/66
f 61/41/67 62/40/67 12/103/67 58/115/67
f 90/116/68 85/117/68 68/118/68 71/119/68
f 72/120/69 73/121/69 74/122/69 75/123/69
f 69/124/70 71/125/70 68/118/70 70/126/70
f 98/127/71 95/128/71 74/122/71 73/121/71
f 93/129/72 98/127/72 73/121/72 72/120/72
f 85/117/73 87/130/73 70/126/73 68/118/73
f 87/130/74 89/131/74 69/124/74 70/126/74
f 89/132/75 90/116/75 71/119/75 69/133/75
f 95/128/76 96/108/76 75/111/76 74/122/76
f 55/114/77 57/97/77 77/134/77 79/135/77
f 56/99/78 55/107/78 79/136/78 78/137/78
f 54/96/79 56/99/79 78/137/79 76/138/79
f 57/97/80 54/96/80 76/138/80 77/134/80
f 60/42/81 61/41/81 81/139/81 82/140/81
f 58/112/82 59/101/82 83/141/82 80/142/82
f 59/101/83 60/42/83 82/140/83 83/141/83
f 61/41/84 58/115/84 80/143/84 81/139/84
f 79/135/85 77/134/85 91/144/85 88/145/85
f 88/145/86 91/144/86 90/116/86 89/132/86
f 78/137/87 79/136/87 88/146/87 86/147/87
f 86/147/88 88/146/88 89/131/88 87/130/88
f 76/138/89 78/137/89 86/147/89 84/148/89
f 84/148/90 86/147/90 87/130/90 85/117/90
f 77/134/91 76/138/91 84/148/91 91/144/91
f 91/144/92 84/148/92 85/117/92 90/116/92
f 82/140/93 81/139/93 97/149/93 94/150/93
f 94/150/94 97/149/94 96/108/94 95/128/94
f 80/142/95 83/141/95 99/151/95 92/152/95
f 92/152/96 99/151/96 98/127/96 93/129/96
f 83/141/97 82/140/97 94/150/97 99/151/97
f 99/151/98 94/150/98 95/128/98 98/127/98
f 81/139/99 80/143/99 92/153/99 97/149/99
f 97/149/100 92/153/100 93/109/100 96/108/100
f 6/154/101 100/86/101 103/20/101 15/19/101
f 32/64/102 100/35/102 101/23/102 39/65/102
f 39/65/103 101/23/103 102/26/103 46/72/103
f 46/84/104 102/17/104 103/20/104 53/85/104
f 80/155/105 58/156/105 107/157/105 109/158/105
f 58/156/105 12/159/105 105/160/105 107/157/105
f 79/155/105 108/158/105 106/157/105 55/156/105
f 6/159/105 55/156/105 106/157/105 104/160/105
f 115/155/106 121/158/106 119/157/106 113/156/106
f 113/156/106 119/157/106 117/160/106 111/159/106
f 114/155/106 112/156/106 118/157/106 120/158/106
f 110/159/106 116/160/106 118/157/106 112/156/106
